<?xml version="1.0" encoding="UTF-8"?>
<svg version="1.1" xmlns="http://www.w3.org/2000/svg" width="500" height="500">
<path d="M0 0 C1.27997864 -0.01051392 1.27997864 -0.01051392 2.58581543 -0.02124023 C5.37859616 -0.03870149 8.17034552 -0.02723905 10.96313477 -0.01367188 C12.92171928 -0.01637045 14.88030249 -0.02025591 16.83888245 -0.02526855 C20.93324607 -0.03114776 25.02725932 -0.02265256 29.12158203 -0.00390625 C34.34785881 0.01886708 39.57331303 0.00576026 44.79955959 -0.01819611 C48.84127401 -0.03270974 52.8827962 -0.0280224 56.92451668 -0.01768494 C58.85047569 -0.01503222 60.77645262 -0.0182357 62.70239067 -0.02760315 C81.98582173 -0.10081918 81.98582173 -0.10081918 89.96704102 4.51757812 C89.96704102 5.17757812 89.96704102 5.83757812 89.96704102 6.51757812 C90.52391602 6.72382813 91.08079102 6.93007812 91.65454102 7.14257812 C94.96307333 9.10981356 96.68260381 11.40820526 98.96704102 14.51757812 C98.96704102 15.50757813 98.96704102 16.49757812 98.96704102 17.51757812 C98.0739624 17.54263428 97.18088379 17.56769043 96.26074219 17.59350586 C92.94518647 17.68867998 89.62980372 17.78791095 86.31445312 17.88989258 C84.87993099 17.93318606 83.44535917 17.97486511 82.01074219 18.01489258 C79.94784582 18.07273079 77.88519818 18.13638565 75.82250977 18.20117188 C74.58138428 18.23782959 73.34025879 18.2744873 72.06152344 18.31225586 C68.93150754 18.38901934 68.93150754 18.38901934 65.96704102 19.51757812 C66.08073313 21.97691804 66.20746752 24.43436902 66.34204102 26.89257812 C66.37297852 27.59125 66.40391602 28.28992188 66.43579102 29.00976562 C66.562036 33.21943639 66.562036 33.21943639 68.96704102 36.51757812 C71.97590826 36.76363828 74.89921853 36.89138594 77.91235352 36.93164062 C79.23987137 36.96068985 79.23987137 36.96068985 80.59420776 36.99032593 C83.42672018 37.05020535 86.25927305 37.09654025 89.09204102 37.14257812 C91.01002769 37.18075023 92.92799709 37.21980151 94.84594727 37.25976562 C99.5528385 37.35591368 104.25980998 37.43991355 108.96704102 37.51757812 C110.42453239 40.38899456 111.84336389 43.18519585 112.96704102 46.20507812 C113.79846781 48.55806886 113.79846781 48.55806886 115.52954102 49.95507812 C117.72821116 52.34493698 117.83930923 54.3242834 117.96704102 57.51757812 C116.65454102 60.39257813 116.65454102 60.39257813 114.96704102 62.51757812 C114.30704102 62.51757812 113.64704102 62.51757812 112.96704102 62.51757812 C114.04105209 65.43275104 114.74514277 67.29567988 116.96704102 69.51757812 C116.77954102 72.51757813 116.77954102 72.51757813 115.96704102 75.51757812 C112.84360439 77.59986921 112.42851179 77.75528269 108.95532227 77.49414062 C107.81933594 77.41679687 107.81933594 77.41679687 106.66040039 77.33789062 C105.481875 77.24121094 105.481875 77.24121094 104.27954102 77.14257812 C103.48225586 77.08585937 102.6849707 77.02914062 101.86352539 76.97070312 C99.8973052 76.82941784 97.93205278 76.67477907 95.96704102 76.51757812 C95.73629883 75.84210938 95.50555664 75.16664063 95.26782227 74.47070312 C92.99413433 68.25176222 91.08183778 64.57497651 84.96704102 61.51757812 C80.04517268 60.97758897 76.07291784 61.01490684 71.52954102 63.08007812 C68.4680186 65.99225799 67.37944461 68.56284806 65.96704102 72.51757812 C64.97704102 74.49757813 64.97704102 74.49757813 63.96704102 76.51757812 C48.45704102 76.51757812 32.94704102 76.51757812 16.96704102 76.51757812 C15.64704102 73.21757812 14.32704102 69.91757812 12.96704102 66.51757812 C8.37812184 62.03791893 5.4023085 61.35630941 -0.76733398 61.41601562 C-3.26897687 61.52815824 -5.60818864 61.89183094 -8.03295898 62.51757812 C-8.03295898 63.17757812 -8.03295898 63.83757812 -8.03295898 64.51757812 C-8.69295898 64.51757812 -9.35295898 64.51757812 -10.03295898 64.51757812 C-12.11675408 68.36458445 -13.52982522 72.41812242 -15.03295898 76.51757812 C-17.80330035 76.76616011 -20.57234968 76.99210692 -23.34545898 77.20507812 C-24.13114258 77.27791016 -24.91682617 77.35074219 -25.72631836 77.42578125 C-26.48364258 77.48056641 -27.2409668 77.53535156 -28.02124023 77.59179688 C-28.71773682 77.64940186 -29.4142334 77.70700684 -30.13183594 77.76635742 C-32.03295898 77.51757812 -32.03295898 77.51757812 -33.76416016 76.2043457 C-35.68474409 73.65108143 -35.36219948 71.61243875 -35.03295898 68.51757812 C-34.04295898 67.52757812 -34.04295898 67.52757812 -33.03295898 66.51757812 C-32.04295898 66.51757812 -31.05295898 66.51757812 -30.03295898 66.51757812 C-30.04406204 65.96349274 -30.0551651 65.40940735 -30.06660461 64.83853149 C-30.17790112 59.03037771 -30.2529148 53.22253063 -30.30761719 47.41357422 C-30.33263938 45.25068847 -30.36666807 43.08788624 -30.41015625 40.92529297 C-30.47135105 37.80219831 -30.49929242 34.680229 -30.52124023 31.55664062 C-30.54704666 30.60205963 -30.57285309 29.64747864 -30.59944153 28.66397095 C-30.60258726 20.99903462 -28.54632227 14.59107373 -23.47529602 8.71157837 C-16.73536673 2.46285221 -9.05142539 -0.09346287 0 0 Z M-14.03295898 19.51757812 C-14.30909467 22.27299654 -14.40553523 24.76848915 -14.34545898 27.51757812 C-14.34868164 28.25492188 -14.3519043 28.99226563 -14.35522461 29.75195312 C-14.45214861 34.10234101 -14.45214861 34.10234101 -12.03295898 37.51757812 C-8.44951922 37.68435095 -8.44951922 37.68435095 -5.03295898 37.51757812 C-4.70295898 36.52757812 -4.37295898 35.53757812 -4.03295898 34.51757812 C-4.81670898 34.27007812 -5.60045898 34.02257812 -6.40795898 33.76757812 C-9.48944883 32.30020201 -9.81428058 31.60779837 -11.03295898 28.51757812 C-11.44702148 26.15820312 -11.44702148 26.15820312 -11.65795898 23.76757812 C-11.73272461 22.96835938 -11.80749023 22.16914063 -11.88452148 21.34570312 C-11.95799805 20.44078125 -11.95799805 20.44078125 -12.03295898 19.51757812 C-2.43842595 23.37179225 -2.43842595 23.37179225 0.96704102 27.51757812 C1.64766602 26.75445312 2.32829102 25.99132812 3.02954102 25.20507812 C6.32602626 22.18914481 8.83010937 21.05878795 12.96704102 19.51757812 C10.44264406 16.99318117 9.55647282 17.26078268 6.06469727 17.25195312 C5.09209961 17.249375 4.11950195 17.24679688 3.11743164 17.24414062 C2.09842773 17.251875 1.07942383 17.25960937 0.02954102 17.26757812 C-0.9855957 17.25984375 -2.00073242 17.25210938 -3.04663086 17.24414062 C-4.50746094 17.24800781 -4.50746094 17.24800781 -5.99780273 17.25195312 C-7.33766235 17.25533691 -7.33766235 17.25533691 -8.70458984 17.25878906 C-11.30533152 17.36737652 -11.30533152 17.36737652 -14.03295898 19.51757812 Z M26.96704102 19.51757812 C25.60643009 22.87024372 25.98712179 26.08990281 26.27954102 29.64257812 C26.35817383 30.69703125 26.43680664 31.75148437 26.51782227 32.83789062 C26.72476809 35.66228428 26.72476809 35.66228428 28.96704102 37.51757812 C31.24446662 37.82809568 31.24446662 37.82809568 33.86938477 37.78320312 C34.84198242 37.78578125 35.81458008 37.78835937 36.81665039 37.79101562 C37.8356543 37.78328125 38.8546582 37.77554688 39.90454102 37.76757812 C40.91967773 37.7753125 41.93481445 37.78304687 42.98071289 37.79101562 C43.95459961 37.7884375 44.92848633 37.78585938 45.93188477 37.78320312 C47.27174438 37.77981934 47.27174438 37.77981934 48.63867188 37.77636719 C51.23941355 37.66777973 51.23941355 37.66777973 53.96704102 35.51757812 C55.09027318 31.89203429 55.0246258 28.58773888 54.71704102 24.83007812 C54.61649414 23.40115234 54.61649414 23.40115234 54.51391602 21.94335938 C54.17972148 19.16125724 54.17972148 19.16125724 50.96704102 17.51757812 C48.69506769 17.21038586 48.69506769 17.21038586 46.18579102 17.25195312 C45.2615332 17.249375 44.33727539 17.24679688 43.38500977 17.24414062 C41.94061523 17.25574219 41.94061523 17.25574219 40.46704102 17.26757812 C39.50411133 17.25984375 38.54118164 17.25210938 37.54907227 17.24414062 C36.62481445 17.24671875 35.70055664 17.24929687 34.74829102 17.25195312 C33.90331055 17.25420898 33.05833008 17.25646484 32.18774414 17.25878906 C29.68019523 17.38044265 29.68019523 17.38044265 26.96704102 19.51757812 Z M12.96704102 19.51757812 C12.94125977 20.10925781 12.91547852 20.7009375 12.88891602 21.31054688 C12.51301348 26.54755261 12.00090484 29.81078434 7.96704102 33.51757812 C4.71704102 35.33007812 4.71704102 35.33007812 1.96704102 36.51757812 C1.96704102 36.84757812 1.96704102 37.17757812 1.96704102 37.51757812 C3.56971922 37.62582656 5.1744985 37.70328458 6.77954102 37.76757812 C8.11952148 37.8371875 8.11952148 37.8371875 9.48657227 37.90820312 C12.05011541 37.73135652 12.05011541 37.73135652 13.77954102 35.92382812 C15.35433344 32.73280137 15.26077048 30.30856036 15.15454102 26.76757812 C15.1274707 25.59710938 15.10040039 24.42664063 15.07250977 23.22070312 C15.02030273 21.88265625 15.02030273 21.88265625 14.96704102 20.51757812 C14.30704102 20.18757813 13.64704102 19.85757813 12.96704102 19.51757812 Z M-1.03295898 35.51757812 C-1.69295898 36.17757812 -2.35295898 36.83757812 -3.03295898 37.51757812 C-1.71295898 37.51757812 -0.39295898 37.51757812 0.96704102 37.51757812 C0.96704102 36.85757813 0.96704102 36.19757813 0.96704102 35.51757812 C0.30704102 35.51757812 -0.35295898 35.51757812 -1.03295898 35.51757812 Z " fill="#81B2B9" transform="translate(209.032958984375,187.482421875)"/>
<path d="M0 0 C3.24148234 1.60475753 5.19474952 3.93853346 7.375 6.8125 C8.34810968 10.21838388 8.72578231 13.543308 8 17 C6.73176804 19.04190242 5.40551802 21.05005208 4 23 C5.28390625 22.9278125 6.5678125 22.855625 7.890625 22.78125 C26.33879397 21.79223245 44.56590306 21.75324948 63 23 C62.51402344 22.46246094 62.02804687 21.92492187 61.52734375 21.37109375 C58.73101439 17.02998909 59.37345397 11.97831683 60 7 C62.04230667 3.47878161 63.62826516 2.24782323 67 0 C71.65351665 -0.63792797 76.70437607 -1.05817332 81.05078125 0.9453125 C84.2168205 3.44357672 86.19776199 6.0779475 87 10 C86.86762899 13.80566664 86.71883433 17.56233135 85 21 C84.34 21 83.68 21 83 21 C82.34 22.32 81.68 23.64 81 25 C81.89138672 25.15819214 81.89138672 25.15819214 82.80078125 25.31958008 C85.53531159 25.80944588 88.26760036 26.31089125 91 26.8125 C91.93457031 26.97814453 92.86914062 27.14378906 93.83203125 27.31445312 C99.51665397 28.36789719 104.65164673 29.79884989 110 32 C110 32.66 110 33.32 110 34 C108.06640625 33.81824219 108.06640625 33.81824219 106.09375 33.6328125 C99.7324305 33.04814754 93.36730092 32.51512303 87 32 C85.22520264 31.85594727 85.22520264 31.85594727 83.41455078 31.70898438 C44.17199694 28.63113701 4.965443 29.26466061 -34.13525391 33.74047852 C-36.7773754 33.97983212 -39.3491717 34.04845731 -42 34 C-42 33.34 -42 32.68 -42 32 C-32.4252387 28.77015758 -22.9428695 26.68479945 -13 25 C-13.804375 24.21625 -14.60875 23.4325 -15.4375 22.625 C-19.36028366 18.60653869 -19.3401844 15.98680081 -19.28515625 10.546875 C-18.87004823 6.83933484 -17.4672478 4.74138644 -15 2 C-10.35295717 -0.9069164 -5.29913879 -0.75921091 0 0 Z M-8.6875 10.5 C-9.120625 10.995 -9.55375 11.49 -10 12 C-9.34 13.65 -8.68 15.3 -8 17 C-6.02 16.67 -4.04 16.34 -2 16 C-1.22757731 14.16299211 -1.22757731 14.16299211 -1 12 C-2.16666667 10.16666667 -2.16666667 10.16666667 -4 9 C-7.00259517 8.66781808 -7.00259517 8.66781808 -8.6875 10.5 Z M71 9 C70.34 9.66 69.68 10.32 69 11 C69.32041397 13.60280568 69.32041397 13.60280568 70 16 C72.39719432 16.67958603 72.39719432 16.67958603 75 17 C75.66 16.34 76.32 15.68 77 15 C76.67958603 12.39719432 76.67958603 12.39719432 76 10 C73.60280568 9.32041397 73.60280568 9.32041397 71 9 Z " fill="#5C5E61" transform="translate(216,250)"/>
<path d="M0 0 C0.95261719 0.05542969 1.90523437 0.11085937 2.88671875 0.16796875 C5.3125 0.8125 5.3125 0.8125 6.48046875 2.76171875 C6.75503906 3.43847656 7.02960938 4.11523438 7.3125 4.8125 C8.96511839 5.83554948 10.63041365 6.83866054 12.3125 7.8125 C12.3125 8.4725 12.3125 9.1325 12.3125 9.8125 C11.19875 10.080625 10.085 10.34875 8.9375 10.625 C5.09409049 11.47059019 5.09409049 11.47059019 3.3125 14.8125 C3.39417489 18.38426115 3.39417489 18.38426115 4.3125 21.8125 C7.23015 23.7576 8.93787285 24.26526317 12.3125 24.8125 C12.3125 25.8025 12.3125 26.7925 12.3125 27.8125 C9.43038698 28.77320434 7.61399956 28.91831883 4.625 28.875 C3.41263672 28.86146484 3.41263672 28.86146484 2.17578125 28.84765625 C1.56089844 28.83605469 0.94601563 28.82445312 0.3125 28.8125 C2.9525 29.1425 5.5925 29.4725 8.3125 29.8125 C8.3125 30.8025 8.3125 31.7925 8.3125 32.8125 C1.73456651 36.03434497 -3.45501173 36.56583049 -10.6875 34.8125 C-10.6875 34.1525 -10.6875 33.4925 -10.6875 32.8125 C-11.285625 32.709375 -11.88375 32.60625 -12.5 32.5 C-15.6943088 31.49607438 -17.08171644 29.87090675 -18.72265625 27.00390625 C-20.98458365 21.86649218 -21.36771953 15.92270954 -19.6875 10.5625 C-17.79258226 6.27720437 -14.70756218 3.18351626 -10.6875 0.8125 C-7.04169574 -0.22057798 -3.76618226 -0.27231604 0 0 Z M-2.6875 6.8125 C-2.3575 7.4725 -2.0275 8.1325 -1.6875 8.8125 C-0.6975 7.8225 0.2925 6.8325 1.3125 5.8125 C-0.7620356 5.6634288 -0.7620356 5.6634288 -2.6875 6.8125 Z M-5.6875 10.8125 C-7.63429922 16.28871693 -7.63429922 16.28871693 -6.6875 21.8125 C-6.0275 21.4825 -5.3675 21.1525 -4.6875 20.8125 C-4.6875 17.5125 -4.6875 14.2125 -4.6875 10.8125 C-5.0175 10.8125 -5.3475 10.8125 -5.6875 10.8125 Z M-4.6875 24.8125 C-3.6975 26.2975 -3.6975 26.2975 -2.6875 27.8125 C-2.0275 27.4825 -1.3675 27.1525 -0.6875 26.8125 C-2.0075 26.1525 -3.3275 25.4925 -4.6875 24.8125 Z " fill="#DCA651" transform="translate(252.6875,150.1875)"/>
<path d="M0 0 C1.9375 0.625 1.9375 0.625 4 2 C4.79148599 5.0999868 5 7.80525245 5 11 C5.58007812 10.89300781 6.16015625 10.78601563 6.7578125 10.67578125 C12.07527272 9.85973537 15.40639547 9.75086509 20 13 C22.79414131 17.54047963 23.59252833 22.74321019 23 28 C20.64176313 31.3247274 17.59894525 33.20052738 14 35 C10.08900567 35.14485164 6.77139234 34.94284809 3 34 C1.515 34.495 1.515 34.495 0 35 C-0.99 34.67 -1.98 34.34 -3 34 C-5.24454676 28.58920962 -3.93786557 21.58497474 -3.75 15.875 C-3.72292969 14.57433594 -3.69585937 13.27367187 -3.66796875 11.93359375 C-3.62800781 10.69480469 -3.58804687 9.45601563 -3.546875 8.1796875 C-3.51432617 7.04257324 -3.48177734 5.90545898 -3.44824219 4.73388672 C-3.30032227 3.8317041 -3.15240234 2.92952148 -3 2 C-2.01 1.34 -1.02 0.68 0 0 Z M5 18 C4.95875 19.27875 4.9175 20.5575 4.875 21.875 C4.85179687 22.59429687 4.82859375 23.31359375 4.8046875 24.0546875 C4.81668311 26.23863645 4.81668311 26.23863645 7 28 C9.79844834 28.35877543 11.403308 28.33812547 13.875 26.9375 C15.64782183 23.88430685 14.69235306 21.33588292 14 18 C9.38492226 16.95785309 9.38492226 16.95785309 5 18 Z " fill="#6F7072" transform="translate(292,298)"/>
<path d="M0 0 C2.34967477 0.36715798 2.34967477 0.36715798 4.484375 -0.359375 C5.10570312 -0.49601562 5.72703125 -0.63265625 6.3671875 -0.7734375 C7.3571875 -0.1134375 8.3471875 0.5465625 9.3671875 1.2265625 C10.62117641 8.13245858 10.84116076 15.3480206 9.3671875 22.2265625 C4.7421875 24.3515625 4.7421875 24.3515625 1.3671875 23.2265625 C-0.09733841 23.38563086 -1.55649488 23.59894408 -3.0078125 23.8515625 C-6.26251751 24.26368424 -7.4142707 24.32158068 -10.5078125 22.9765625 C-11.5596875 22.1103125 -11.5596875 22.1103125 -12.6328125 21.2265625 C-13.16519531 20.81792969 -13.69757813 20.40929687 -14.24609375 19.98828125 C-16.25359211 17.4379101 -15.99677425 15.49156706 -15.9453125 12.2890625 C-15.94144531 11.24878906 -15.93757812 10.20851563 -15.93359375 9.13671875 C-15.63701813 6.2672533 -15.20132899 4.61976292 -13.6328125 2.2265625 C-8.9574691 -1.16306147 -5.43256026 -0.86311705 0 0 Z M-7.5078125 7.2890625 C-9.29591585 10.36857383 -8.37873856 12.86989523 -7.6328125 16.2265625 C-6.52114386 17.55844043 -6.52114386 17.55844043 -3.6953125 17.4140625 C-0.52388391 17.55934983 -0.52388391 17.55934983 1.3671875 15.2265625 C1.70052083 11.7265625 1.70052083 11.7265625 1.3671875 8.2265625 C-0.45484831 5.99689503 -0.45484831 5.99689503 -3.0703125 5.9140625 C-5.61503244 6.05792618 -5.61503244 6.05792618 -7.5078125 7.2890625 Z " fill="#6F7175" transform="translate(246.6328125,308.7734375)"/>
<path d="M0 0 C1.33568021 -0.32380126 2.66923011 -0.65657551 4 -1 C4.66 -0.67 5.32 -0.34 6 0 C7.34514997 4.03544992 7.22342133 7.77399146 7.25 12 C7.270625 12.81984375 7.29125 13.6396875 7.3125 14.484375 C7.31765625 15.27328125 7.3228125 16.0621875 7.328125 16.875 C7.34214355 17.95394531 7.34214355 17.95394531 7.35644531 19.0546875 C6.89079819 21.59597263 6.04615858 22.46028119 4 24 C-1.48311859 24.76419771 -8.05033669 25.24438921 -13.25 23.05078125 C-17.35711654 19.79589139 -18.73474654 16.07781877 -19.375 11.0625 C-18.77375256 6.15231255 -16.47795875 3.19834493 -12.6875 0.125 C-8.30077062 -1.71130532 -4.46186512 -1.48728837 0 0 Z M-11 8 C-11.41666667 11.5 -11.41666667 11.5 -11 15 C-9.11861241 17.28930236 -9.11861241 17.28930236 -6.0625 17.375 C-2.96272019 17.28568869 -2.96272019 17.28568869 -1.0625 15.3125 C0.28969442 12.36948861 0.11068406 11.01471387 -1 8 C-5.09913608 5.26724261 -6.90086392 5.26724261 -11 8 Z " fill="#68686A" transform="translate(192,309)"/>
<path d="M0 0 C1.67381019 0.29537827 3.33911955 0.63893903 5 1 C6.50424859 0.82496016 8.00449758 0.61348544 9.5 0.375 C12.70212178 -0.0352552 13.85218119 -0.05975654 16.9375 1.1875 C20.24325774 4.09255983 20.92800566 6.14635284 21.30078125 10.56640625 C21.30658203 12.54447266 21.30658203 12.54447266 21.3125 14.5625 C21.32861328 15.23474609 21.34472656 15.90699219 21.36132812 16.59960938 C21.36419843 19.49000506 21.28406825 21.54636485 19.73046875 24.02734375 C18 25 18 25 15.8125 24.6875 C15.214375 24.460625 14.61625 24.23375 14 24 C13.95101562 23.02417969 13.90203125 22.04835938 13.8515625 21.04296875 C13.77679688 19.77066406 13.70203125 18.49835938 13.625 17.1875 C13.55539063 15.92292969 13.48578125 14.65835937 13.4140625 13.35546875 C13.23897061 9.87244766 13.23897061 9.87244766 11 7 C9.35 7.66 7.7 8.32 6 9 C5.67 13.62 5.34 18.24 5 23 C3.35 23.66 1.7 24.32 0 25 C-2.65866619 22.41870241 -3.23557758 20.35638447 -3.3984375 16.77734375 C-3.40637818 15.16406313 -3.39806309 13.55063531 -3.375 11.9375 C-3.38660156 11.12216797 -3.39820313 10.30683594 -3.41015625 9.46679688 C-3.40628906 8.68240234 -3.40242187 7.89800781 -3.3984375 7.08984375 C-3.39336182 6.02044556 -3.39336182 6.02044556 -3.38818359 4.92944336 C-2.88902774 2.44841901 -1.99514637 1.51499043 0 0 Z " fill="#717375" transform="translate(206,308)"/>
<path d="M0 0 C2.20273258 -0.2022393 2.20273258 -0.2022393 4.4375 -0.625 C7.6552632 -1.03251277 8.84247401 -1.06368072 11.9375 0.1875 C16.36907675 4.08191593 16.54794468 8.67611817 16.96875 14.296875 C17.007034 17.60844084 16.54664391 20.06137657 15 23 C14.01 23.33 13.02 23.66 12 24 C11.01 23.34 10.02 22.68 9 22 C8.55859375 19.06640625 8.55859375 19.06640625 8.4375 15.5625 C8.32031921 10.45322518 8.32031921 10.45322518 6 6 C4.02463255 6.34786708 4.02463255 6.34786708 2 7 C0.58365167 9.83269666 0.6536995 12.47466438 0.4375 15.625 C0.35371094 16.81351562 0.26992188 18.00203125 0.18359375 19.2265625 C0.12300781 20.14179688 0.06242187 21.05703125 0 22 C-1.65 22.66 -3.3 23.32 -5 24 C-7 22 -7 22 -7.22705078 19.75341797 C-7.21657715 18.84221191 -7.20610352 17.93100586 -7.1953125 16.9921875 C-7.18886719 16.00605469 -7.18242187 15.01992188 -7.17578125 14.00390625 C-7.15902344 12.97136719 -7.14226562 11.93882812 -7.125 10.875 C-7.11597656 9.83472656 -7.10695313 8.79445313 -7.09765625 7.72265625 C-7.07403747 5.14820908 -7.04110149 2.57421788 -7 0 C-3.72388298 -1.09203901 -3.15744927 -0.79083776 0 0 Z " fill="#676769" transform="translate(268,309)"/>
<path d="M0 0 C0 0.66 0 1.32 0 2 C0.66 2 1.32 2 2 2 C2.99 3.485 2.99 3.485 4 5 C4.515625 4.175 5.03125 3.35 5.5625 2.5 C8 0 8 0 11.75 -0.3125 C12.8225 -0.209375 13.895 -0.10625 15 0 C14.125 4.75 14.125 4.75 13 7 C12.34 7 11.68 7 11 7 C10.03122528 9.15022836 10.03122528 9.15022836 10 12 C11.14359471 13.9116807 12.4315087 15.55543125 13.87109375 17.25390625 C15 19 15 19 15 23 C12.75 23.75 12.75 23.75 10 24 C7.6875 22.1875 7.6875 22.1875 6 20 C6 19.34 6 18.68 6 18 C4.68 18 3.36 18 2 18 C1.773125 18.804375 1.54625 19.60875 1.3125 20.4375 C0 23 0 23 -2.5 23.875 C-5 24 -5 24 -7 23 C-7.3125 20.3125 -7.3125 20.3125 -7 17 C-4.5 14.125 -4.5 14.125 -2 12 C-2.98249111 9.27925539 -3.87879403 7.15262974 -5.6875 4.875 C-6.120625 4.25625 -6.55375 3.6375 -7 3 C-6.67 2.01 -6.34 1.02 -6 0 C-3.50907189 -1.24546405 -2.58919267 -0.7767578 0 0 Z " fill="#505153" transform="translate(336,309)"/>
<path d="M0 0 C2.62348127 1.04633008 3.0074687 2.06470853 4.1328125 4.61328125 C4.44476563 5.30035156 4.75671875 5.98742187 5.078125 6.6953125 C5.38492188 7.39011719 5.69171875 8.08492188 6.0078125 8.80078125 C6.66800788 10.13733064 7.33279591 11.47165566 8.0078125 12.80078125 C8.28496094 12.10210937 8.56210938 11.4034375 8.84765625 10.68359375 C9.20988281 9.77351563 9.57210937 8.8634375 9.9453125 7.92578125 C10.48478516 6.56839844 10.48478516 6.56839844 11.03515625 5.18359375 C12.0078125 2.80078125 12.0078125 2.80078125 13.0078125 0.80078125 C14.9878125 0.80078125 16.9678125 0.80078125 19.0078125 0.80078125 C19.3378125 3.11078125 19.6678125 5.42078125 20.0078125 7.80078125 C19.0178125 8.13078125 18.0278125 8.46078125 17.0078125 8.80078125 C16.38127034 10.63193917 16.38127034 10.63193917 16.0078125 12.80078125 C15.41738283 14.33536648 14.79065495 15.85636309 14.1328125 17.36328125 C13.80539063 18.12769531 13.47796875 18.89210938 13.140625 19.6796875 C11.98071951 21.85151055 10.91485505 23.25161558 9.0078125 24.80078125 C6.5703125 24.98828125 6.5703125 24.98828125 4.0078125 23.80078125 C2.27812881 21.30725914 1.18537025 18.58751155 0.0078125 15.80078125 C-0.36730469 15.03507812 -0.74242187 14.269375 -1.12890625 13.48046875 C-3.2514249 9.08648278 -4.50432461 5.79411812 -3.9921875 0.80078125 C-1.9921875 -0.19921875 -1.9921875 -0.19921875 0 0 Z " fill="#5C5F61" transform="translate(152.9921875,308.19921875)"/>
<path d="M0 0 C1.6875 1.9375 1.6875 1.9375 1.6875 2.9375 C-23.0625 2.4425 -23.0625 2.4425 -48.3125 1.9375 C-48.3125 1.6075 -48.3125 1.2775 -48.3125 0.9375 C-46.3325 0.9375 -44.3525 0.9375 -42.3125 0.9375 C-42.3125 0.2775 -42.3125 -0.3825 -42.3125 -1.0625 C-44.88143838 -2.34696919 -47.07826337 -2.39227144 -49.9375 -2.625 C-50.94039062 -2.70878906 -51.94328125 -2.79257812 -52.9765625 -2.87890625 C-53.74742187 -2.93949219 -54.51828125 -3.00007813 -55.3125 -3.0625 C-55.3125 -3.3925 -55.3125 -3.7225 -55.3125 -4.0625 C-8.96418539 -7.99508427 -8.96418539 -7.99508427 0 0 Z " fill="#77787A" transform="translate(281.3125,277.0625)"/>
<path d="M0 0 C5.23875285 0.74839326 8.6628876 3.10859173 13 6 C13.680625 5.38125 14.36125 4.7625 15.0625 4.125 C18.45881234 1.6680932 20.96018821 0.95054395 25 0 C25.46555329 4.65553289 25.82636291 8.63399746 22.875 12.5 C18.48103615 16.32083813 14.94692921 16.15960379 9.375 15.8125 C6.17899206 15.40358316 5.12646351 15.09800922 2.5 13.0625 C0.21748618 9.9240435 -0.11726697 8.20868787 -0.0625 4.375 C-0.05347656 3.55773437 -0.04445312 2.74046875 -0.03515625 1.8984375 C-0.02355469 1.27195313 -0.01195312 0.64546875 0 0 Z " fill="#92AF75" transform="translate(197,207)"/>
<path d="M0 0 C0.66 1.32 1.32 2.64 2 4 C0.329375 4.4021875 0.329375 4.4021875 -1.375 4.8125 C-5.21840951 5.65809019 -5.21840951 5.65809019 -7 9 C-6.91832511 12.57176115 -6.91832511 12.57176115 -6 16 C-3.08235 17.9451 -1.37462715 18.45276317 2 19 C2 19.99 2 20.98 2 22 C-1.71627127 23.23875709 -5.14494831 23.6851752 -9 23 C-12.03722197 20.55701712 -13.84424433 18.2336335 -16 15 C-16.46287185 10.00098397 -16.10431905 6.99126735 -13 3 C-9.38884421 -1.02782761 -5.01432757 -0.28928813 0 0 Z " fill="#8AA465" transform="translate(263,156)"/>
<path d="M0 0 C1.08667969 0.01804688 2.17335938 0.03609375 3.29296875 0.0546875 C4.54013672 0.08949219 4.54013672 0.08949219 5.8125 0.125 C6.1425 0.785 6.4725 1.445 6.8125 2.125 C6.07 2.08375 5.3275 2.0425 4.5625 2 C1.72491048 2.12898134 0.22476062 2.69551222 -2.1875 4.125 C-2.1875 5.115 -2.1875 6.105 -2.1875 7.125 C-1.1975 7.785 -0.2075 8.445 0.8125 9.125 C-1.1675 10.115 -1.1675 10.115 -3.1875 11.125 C-2.8575 12.775 -2.5275 14.425 -2.1875 16.125 C-0.2075 15.795 1.7725 15.465 3.8125 15.125 C3.8125 15.785 3.8125 16.445 3.8125 17.125 C4.4725 17.455 5.1325 17.785 5.8125 18.125 C5.05324219 18.18558594 4.29398437 18.24617188 3.51171875 18.30859375 C2.51785156 18.39238281 1.52398437 18.47617187 0.5 18.5625 C-0.48613281 18.64371094 -1.47226562 18.72492188 -2.48828125 18.80859375 C-5.28125599 19.04312559 -5.28125599 19.04312559 -8.1875 20.125 C-8.8475 21.115 -9.5075 22.105 -10.1875 23.125 C-13.95211922 18.96095169 -13.67846464 15.38222356 -13.546875 9.98046875 C-13.08406155 6.30311407 -11.99184728 4.52872624 -9.1875 2.125 C-5.66070901 -0.22619399 -4.15870515 -0.08943452 0 0 Z " fill="#66686C" transform="translate(289.1875,249.875)"/>
<path d="M0 0 C0.91058531 3.07322544 1.08886184 5.80097361 1 9 C1.99 9 2.98 9 4 9 C5 12 5 12 5 14 C7.90092502 15.93395001 8.89674737 16.30131941 12.1875 16.625 C13.445625 16.74875 14.70375 16.8725 16 17 C16 17.99 16 18.98 16 20 C9.42206651 23.22184497 4.23248827 23.75333049 -3 22 C-3 21.34 -3 20.68 -3 20 C-3.598125 19.896875 -4.19625 19.79375 -4.8125 19.6875 C-7.28243264 18.91123545 -8.32251235 17.92911079 -10 16 C-9.67 15.34 -9.34 14.68 -9 14 C-8.01 14.33 -7.02 14.66 -6 15 C-5.5978125 13.7934375 -5.5978125 13.7934375 -5.1875 12.5625 C-4.795625 11.716875 -4.40375 10.87125 -4 10 C-3.01 9.67 -2.02 9.34 -1 9 C-1.020625 7.88625 -1.04125 6.7725 -1.0625 5.625 C-1 2 -1 2 0 0 Z " fill="#D9A557" transform="translate(245,163)"/>
<path d="M0 0 C0.639375 0.2475 1.27875 0.495 1.9375 0.75 C3.28264997 4.78544992 3.16092133 8.52399146 3.1875 12.75 C3.208125 13.56984375 3.22875 14.3896875 3.25 15.234375 C3.25515625 16.02328125 3.2603125 16.8121875 3.265625 17.625 C3.27964355 18.70394531 3.27964355 18.70394531 3.29394531 19.8046875 C2.83247113 22.32319867 1.95143539 23.21375384 -0.0625 24.75 C-2.54296875 24.82421875 -2.54296875 24.82421875 -5.25 24.4375 C-6.15105469 24.31761719 -7.05210937 24.19773437 -7.98046875 24.07421875 C-8.66753906 23.96722656 -9.35460937 23.86023438 -10.0625 23.75 C-10.3925 22.1 -10.7225 20.45 -11.0625 18.75 C-10.258125 18.358125 -9.45375 17.96625 -8.625 17.5625 C-5.91466888 16.01178664 -5.91466888 16.01178664 -5.25 13.5 C-5.10538673 11.37900536 -5.0625 9.25091892 -5.0625 7.125 C-5.0625 3.75 -5.0625 3.75 -4.0625 0.75 C-2.0625 -0.25 -2.0625 -0.25 0 0 Z " fill="#5A5B5C" transform="translate(196.0625,308.25)"/>
<path d="M0 0 C0.33 0 0.66 0 1 0 C1 3.63 1 7.26 1 11 C1.99 10.67 2.98 10.34 4 10 C5.02281518 7.90280128 5.02281518 7.90280128 5.6875 5.4375 C5.93886719 4.61121094 6.19023437 3.78492188 6.44921875 2.93359375 C6.63097656 2.29550781 6.81273437 1.65742188 7 1 C8.44197868 3.88395737 8.58833581 6.82430479 9 10 C10.99954746 10.04254356 13.00041636 10.04080783 15 10 C16.96822886 8.03177114 16.66248381 4.65191291 17 2 C17.33 2 17.66 2 18 2 C18.33 5.3 18.66 8.6 19 12 C20.98 10.35 22.96 8.7 25 7 C26.53445094 10.06890187 25.54984289 12.70094266 25 16 C20.375 18.125 20.375 18.125 17 17 C15.53547409 17.15906836 14.07631762 17.37238158 12.625 17.625 C9.37029499 18.03712174 8.2185418 18.09501818 5.125 16.75 C4.42375 16.1725 3.7225 15.595 3 15 C2.46503906 14.59652344 1.93007812 14.19304687 1.37890625 13.77734375 C-0.65387096 11.15719183 -0.29267465 9.07291422 -0.1875 5.8125 C-0.16042969 4.72582031 -0.13335937 3.63914062 -0.10546875 2.51953125 C-0.07066406 1.68808594 -0.03585938 0.85664063 0 0 Z " fill="#757679" transform="translate(231,315)"/>
<path d="M0 0 C1.98 0 3.96 0 6 0 C8 2 8 2 8.18286133 3.92358398 C8.07406721 6.42953652 7.95806755 8.9333696 7.8125 11.4375 C7.78091797 12.30955078 7.74933594 13.18160156 7.71679688 14.08007812 C7.67232422 14.91861328 7.62785156 15.75714844 7.58203125 16.62109375 C7.54311768 17.3886499 7.5042041 18.15620605 7.46411133 18.94702148 C6.89271049 21.47459101 6.03511387 22.43287185 4 24 C1.9375 24 1.9375 24 0 23 C-1.25 20.4375 -1.25 20.4375 -2 18 C-1.34 18 -0.68 18 0 18 C0 12.06 0 6.12 0 0 Z " fill="#646566" transform="translate(319,309)"/>
<path d="M0 0 C0.99 0.33 1.98 0.66 3 1 C2.78472656 1.5878125 2.56945312 2.175625 2.34765625 2.78125 C1.76465605 5.0093488 1.76465605 5.0093488 2.99609375 6.78125 C3.47175781 7.3484375 3.94742187 7.915625 4.4375 8.5 C6.90811443 11.46204455 7 11.80198362 7 16 C4.75 16.75 4.75 16.75 2 17 C-0.3125 15.1875 -0.3125 15.1875 -2 13 C-2 12.34 -2 11.68 -2 11 C-3.32 11 -4.64 11 -6 11 C-6.226875 11.804375 -6.45375 12.60875 -6.6875 13.4375 C-8 16 -8 16 -10.5 16.875 C-13 17 -13 17 -15 16 C-15.3125 13.1875 -15.3125 13.1875 -15 10 C-12.875 7.9375 -12.875 7.9375 -10 7 C-6.6875 8.3125 -6.6875 8.3125 -4 10 C-3.67 9.34 -3.34 8.68 -3 8 C-2.34 7.67 -1.68 7.34 -1 7 C-1.33 5.02 -1.66 3.04 -2 1 C-1.34 0.67 -0.68 0.34 0 0 Z " fill="#737476" transform="translate(344,316)"/>
<path d="M0 0 C2 1 2 1 3.1171875 4.06640625 C4.15569932 8.04262617 4.19772668 11.82844255 4.125 15.9375 C4.11146484 16.96327148 4.11146484 16.96327148 4.09765625 18.00976562 C4.07438958 19.67333287 4.03853167 21.33671631 4 23 C2.35 23.66 0.7 24.32 -1 25 C-3 23 -3 23 -3.22705078 20.75341797 C-3.21657715 19.84221191 -3.20610352 18.93100586 -3.1953125 17.9921875 C-3.18886719 17.00605469 -3.18242187 16.01992188 -3.17578125 15.00390625 C-3.15902344 13.97136719 -3.14226562 12.93882812 -3.125 11.875 C-3.11597656 10.83472656 -3.10695313 9.79445313 -3.09765625 8.72265625 C-3.07403747 6.14820908 -3.04110149 3.57421788 -3 1 C-2.01 0.67 -1.02 0.34 0 0 Z " fill="#606162" transform="translate(264,308)"/>
<path d="M0 0 C0.99 0.495 0.99 0.495 2 1 C2 1.99 2 2.98 2 4 C12.86226389 4.10707599 23.70628872 4.03078331 34.5625 3.625 C35.55515869 3.59414307 36.54781738 3.56328613 37.57055664 3.53149414 C38.49731201 3.4927417 39.42406738 3.45398926 40.37890625 3.4140625 C41.1994751 3.3826416 42.02004395 3.3512207 42.86547852 3.31884766 C45.29504194 3.11074688 45.29504194 3.11074688 48 1 C48.042721 2.66611905 48.04063832 4.33382885 48 6 C47 7 47 7 45.09544373 7.12025452 C44.26271439 7.11803391 43.42998505 7.11581329 42.57202148 7.11352539 C41.63112167 7.11344986 40.69022186 7.11337433 39.72080994 7.11329651 C38.69790359 7.10813522 37.67499725 7.10297394 36.62109375 7.09765625 C35.57929459 7.0962413 34.53749542 7.09482635 33.46412659 7.09336853 C30.12188906 7.0877508 26.77971743 7.0751953 23.4375 7.0625 C21.17773534 7.05748728 18.91796963 7.05292398 16.65820312 7.04882812 C11.10544609 7.03777561 5.55272775 7.02102024 0 7 C0 4.69 0 2.38 0 0 Z " fill="#B5CACC" transform="translate(226,257)"/>
<path d="M0 0 C2.59368991 1.29684496 2.90526367 2.340703 4 5 C4.88201943 8.69896897 5.35377561 12.20393159 5 16 C3.23965092 18.51939868 1.70435934 19.3994608 -1 21 C-1.33 19.68 -1.66 18.36 -2 17 C-3.8871875 17.2475 -3.8871875 17.2475 -5.8125 17.5 C-8.26456585 17.82158241 -10.51650694 18 -13 18 C-12.67 16.68 -12.34 15.36 -12 14 C-11.67 14.33 -11.34 14.66 -11 15 C-8.54190002 15.2500773 -8.54190002 15.2500773 -6 15 C-3.58878141 13.04366025 -3.58878141 13.04366025 -3.875 9.375 C-3.91625 8.26125 -3.9575 7.1475 -4 6 C-4.66 5.67 -5.32 5.34 -6 5 C-5.34 5 -4.68 5 -4 5 C-3.67 4.34 -3.34 3.68 -3 3 C-1.68 3.33 -0.36 3.66 1 4 C0.67 2.68 0.34 1.36 0 0 Z " fill="#6C6D6F" transform="translate(310,310)"/>
<path d="M0 0 C1.32 0.66 2.64 1.32 4 2 C4.0809313 4.60478883 4.14045434 7.20706653 4.1875 9.8125 C4.22520508 10.91948242 4.22520508 10.91948242 4.26367188 12.04882812 C4.33693783 17.44608673 4.33693783 17.44608673 2.73828125 20.07421875 C0.44745265 21.29427803 -0.58227314 20.71311551 -3 20 C-3.08089542 17.22858283 -3.14044062 14.45952181 -3.1875 11.6875 C-3.22520508 10.50897461 -3.22520508 10.50897461 -3.26367188 9.30664062 C-3.27333984 8.54931641 -3.28300781 7.79199219 -3.29296875 7.01171875 C-3.3086792 6.31522217 -3.32438965 5.61872559 -3.34057617 4.90112305 C-2.90238443 2.45510217 -1.86562642 1.57297914 0 0 Z " fill="#626665" transform="translate(223,312)"/>
<path d="M0 0 C7.36508951 -0.33291364 13.91951249 0.55321797 21.0625 2.3125 C22.01060547 2.52583984 22.95871094 2.73917969 23.93554688 2.95898438 C25.28422852 3.28286133 25.28422852 3.28286133 26.66015625 3.61328125 C27.47105713 3.80704346 28.28195801 4.00080566 29.11743164 4.20043945 C29.7386792 4.46429443 30.35992676 4.72814941 31 5 C31.495 6.485 31.495 6.485 32 8 C31.36610352 7.94465088 30.73220703 7.88930176 30.07910156 7.83227539 C13.54213547 6.38576593 13.54213547 6.38576593 -3 5 C-3 4.67 -3 4.34 -3 4 C0.63 4 4.26 4 8 4 C5.36 3.01 2.72 2.02 0 1 C0 0.67 0 0.34 0 0 Z " fill="#939393" transform="translate(294,276)"/>
<path d="M0 0 C0 1.32 0 2.64 0 4 C2.31 4 4.62 4 7 4 C7 4.33 7 4.66 7 5 C2.96185386 5.43057272 -1.07663971 5.85771069 -5.11547852 6.28173828 C-6.48797291 6.42631351 -7.86037066 6.57180928 -9.23266602 6.71826172 C-11.21084035 6.92920958 -13.18940164 7.13651853 -15.16796875 7.34375 C-16.35672607 7.46943359 -17.5454834 7.59511719 -18.77026367 7.72460938 C-21.53735856 7.96055185 -24.22571705 8.05489101 -27 8 C-27 7.34 -27 6.68 -27 6 C-8.41747573 0 -8.41747573 0 0 0 Z " fill="#656868" transform="translate(201,276)"/>
<path d="M0 0 C0.33 0 0.66 0 1 0 C1 1.65 1 3.3 1 5 C2.32 5 3.64 5 5 5 C5 4.34 5 3.68 5 3 C5.66 3 6.32 3 7 3 C7 2.34 7 1.68 7 1 C9.64 0.67 12.28 0.34 15 0 C12 2 12 2 10 2 C10.33 3.98 10.66 5.96 11 8 C12.98 8 14.96 8 17 8 C16.01 9.485 16.01 9.485 15 11 C13 11 11 11 9 11 C7.06201737 13.77260299 7.06201737 13.77260299 6 16 C3.63680651 15.0547226 2.26997892 14.41996722 0.875 12.25 C-0.15657407 9.59738096 -0.19964343 7.58645051 -0.125 4.75 C-0.09792969 3.41195313 -0.09792969 3.41195313 -0.0703125 2.046875 C-0.04710937 1.37140625 -0.02390625 0.6959375 0 0 Z " fill="#78797C" transform="translate(197,258)"/>
<path d="M0 0 C0.89589844 -0.01417969 1.79179687 -0.02835938 2.71484375 -0.04296875 C5.0625 0.1875 5.0625 0.1875 7.0625 2.1875 C6.875 5.1875 6.875 5.1875 6.0625 8.1875 C2.38903229 10.63647847 0.39893601 10.50287716 -3.9375 10.1875 C-5.9375 8.1875 -5.9375 8.1875 -6.125 4.625 C-5.84325749 -0.54027936 -4.74247372 0.03402061 0 0 Z " fill="#6D7275" transform="translate(318.9375,254.8125)"/>
<path d="M0 0 C2 2 2 2 2.25 5 C2 8 2 8 0 10 C-7.01081917 10.55641422 -7.01081917 10.55641422 -10 8.875 C-11.42098605 6.21065116 -11.19767261 3.96508915 -11 1 C-7.07703567 -0.30765478 -4.13997567 -0.1971417 0 0 Z " fill="#545F64" transform="translate(185,255)"/>
<path d="M0 0 C-0.33 1.65 -0.66 3.3 -1 5 C-1.99 5.33 -2.98 5.66 -4 6 C-4.72980677 7.80999071 -4.72980677 7.80999071 -5.0625 9.9375 C-5.79820628 13.79820628 -5.79820628 13.79820628 -8 16 C-8.66 15.67 -9.32 15.34 -10 15 C-10 10.38 -10 5.76 -10 1 C-4.375 -1.25 -4.375 -1.25 0 0 Z " fill="#5F6063" transform="translate(242,311)"/>
<path d="M0 0 C0.66 1.32 1.32 2.64 2 4 C0.3603125 4.4021875 0.3603125 4.4021875 -1.3125 4.8125 C-4.61692663 5.87663739 -5.94960422 6.34654664 -8 9 C-8.33 8.01 -8.66 7.02 -9 6 C-11.96404505 8.80804268 -14.44499019 11.18315774 -16 15 C-16.29445076 9.99433712 -16.11763863 7.00839253 -13 3 C-9.38884421 -1.02782761 -5.01432757 -0.28928813 0 0 Z " fill="#9EB682" transform="translate(263,156)"/>
<path d="M0 0 C2.93364327 1.01160113 3.99671209 1.99535158 5.8125 4.5625 C7.3174168 8.9188381 7.1825935 12.55415976 6 17 C5.34 17.66 4.68 18.32 4 19 C4 18.34 4 17.68 4 17 C3.01 17.33 2.02 17.66 1 18 C1.52268466 15.23723823 2.10869587 12.6739124 3 10 C2.01 9.21625 1.02 8.4325 0 7.625 C-0.99 6.75875 -1.98 5.8925 -3 5 C-3 3 -3 3 -1.5 1.375 C-1.005 0.92125 -0.51 0.4675 0 0 Z " fill="#737578" transform="translate(296,252)"/>
<path d="M0 0 C0.33 0 0.66 0 1 0 C1.66 2.31 2.32 4.62 3 7 C4.65 7.33 6.3 7.66 8 8 C7.01 8.33 6.02 8.66 5 9 C5 9.66 5 10.32 5 11 C5.66 11.33 6.32 11.66 7 12 C6.67 12.66 6.34 13.32 6 14 C6.66 14.33 7.32 14.66 8 15 C1.97463002 15.602537 1.97463002 15.602537 -0.80078125 13.88671875 C-2.25599455 12.65378147 -3.63479157 11.33191067 -5 10 C-4.34 8.35 -3.68 6.7 -3 5 C-2.34 5 -1.68 5 -1 5 C-0.67 3.35 -0.34 1.7 0 0 Z " fill="#707374" transform="translate(180,318)"/>
<path d="M0 0 C2.97 0.495 2.97 0.495 6 1 C3 3 3 3 1 3 C1 3.66 1 4.32 1 5 C0.34 5 -0.32 5 -1 5 C-3.08379509 8.84700632 -4.49686624 12.90054429 -6 17 C-8.64 17 -11.28 17 -14 17 C-13.67 15.02 -13.34 13.04 -13 11 C-12.67 12.32 -12.34 13.64 -12 15 C-11.34 15 -10.68 15 -10 15 C-10.33 14.01 -10.66 13.02 -11 12 C-10.0409375 11.5978125 -10.0409375 11.5978125 -9.0625 11.1875 C-6.66868314 10.11332248 -6.66868314 10.11332248 -6 7 C-4.68799596 5.64567325 -3.35368596 4.31266518 -2 3 C-1.34 2.01 -0.68 1.02 0 0 Z " fill="#9BBABE" transform="translate(200,247)"/>
<path d="M0 0 C2.74148672 0.37047118 4.58593199 0.68587944 6.8125 2.375 C8 4 8 4 8 7 C8.31088368 8.67099977 8.64080332 10.33871537 9 12 C9.66 12 10.32 12 11 12 C11 12.66 11 13.32 11 14 C7.44051799 13.67641073 5.46536524 13.3899006 2.6875 11.0625 C-0.35409049 7.34500051 -0.0877939 4.74087067 0 0 Z " fill="#96AF80" transform="translate(197,209)"/>
<path d="M0 0 C0.91058531 3.07322544 1.08886184 5.80097361 1 9 C1.99 9 2.98 9 4 9 C5 12 5 12 5 15 C3.68 15 2.36 15 1 15 C1 14.01 1 13.02 1 12 C0.34 12 -0.32 12 -1 12 C-1.33 12.99 -1.66 13.98 -2 15 C-2.99 15 -3.98 15 -5 15 C-4.67 16.65 -4.34 18.3 -4 20 C-6.62187494 18.95125002 -7.79371361 18.35068687 -9.25 15.875 C-9.4975 15.25625 -9.745 14.6375 -10 14 C-8.68 14.33 -7.36 14.66 -6 15 C-5.5978125 13.7934375 -5.5978125 13.7934375 -5.1875 12.5625 C-4.795625 11.716875 -4.40375 10.87125 -4 10 C-3.01 9.67 -2.02 9.34 -1 9 C-1.020625 7.88625 -1.04125 6.7725 -1.0625 5.625 C-1 2 -1 2 0 0 Z " fill="#E3B26C" transform="translate(245,163)"/>
<path d="M0 0 C-0.99 0.495 -0.99 0.495 -2 1 C-2.33 1.99 -2.66 2.98 -3 4 C-3.99 5.485 -3.99 5.485 -5 7 C-5.598125 6.773125 -6.19625 6.54625 -6.8125 6.3125 C-7.8953125 6.1578125 -7.8953125 6.1578125 -9 6 C-10.77190909 7.35444301 -10.77190909 7.35444301 -12 9 C-14.29013653 5.5647952 -14.17842973 4.014669 -14 0 C-8.97703996 -1.13016601 -5.02125926 -0.77916092 0 0 Z " fill="#7D7E80" transform="translate(280,309)"/>
<path d="M0 0 C0 0.66 0 1.32 0 2 C0.66 2 1.32 2 2 2 C3.625 4.5 3.625 4.5 5 7 C1.535 8.485 1.535 8.485 -2 10 C-2.86657116 8.90554162 -3.71792724 7.79902219 -4.5625 6.6875 C-5.03816406 6.07261719 -5.51382812 5.45773437 -6.00390625 4.82421875 C-6.33261719 4.22222656 -6.66132813 3.62023437 -7 3 C-6.67 2.01 -6.34 1.02 -6 0 C-3.50907189 -1.24546405 -2.58919267 -0.7767578 0 0 Z " fill="#6B6C6D" transform="translate(336,309)"/>
<path d="M0 0 C0.95261719 0.05542969 1.90523437 0.11085937 2.88671875 0.16796875 C5.3125 0.8125 5.3125 0.8125 6.64453125 2.86328125 C6.86496094 3.50652344 7.08539063 4.14976562 7.3125 4.8125 C6.61382812 4.91046875 5.91515625 5.0084375 5.1953125 5.109375 C4.28523438 5.25890625 3.37515625 5.4084375 2.4375 5.5625 C1.53257812 5.70171875 0.62765625 5.8409375 -0.3046875 5.984375 C-2.82852483 6.57917779 -2.82852483 6.57917779 -3.8828125 8.765625 C-4.14835938 9.44109375 -4.41390625 10.1165625 -4.6875 10.8125 C-5.3475 11.4725 -6.0075 12.1325 -6.6875 12.8125 C-6.6875 11.4925 -6.6875 10.1725 -6.6875 8.8125 C-6.0275 8.8125 -5.3675 8.8125 -4.6875 8.8125 C-4.6875 7.1625 -4.6875 5.5125 -4.6875 3.8125 C-3.0375 3.4825 -1.3875 3.1525 0.3125 2.8125 C-1.34364657 2.43031233 -3.01207024 2.09854898 -4.6875 1.8125 C-5.0175 2.1425 -5.3475 2.4725 -5.6875 2.8125 C-7.68708364 2.85330783 -9.68795254 2.85504356 -11.6875 2.8125 C-11.3575 2.1525 -11.0275 1.4925 -10.6875 0.8125 C-7.05637822 -0.23506257 -3.75033741 -0.27117037 0 0 Z " fill="#DCBF88" transform="translate(252.6875,150.1875)"/>
<path d="M0 0 C0.99 0.66 1.98 1.32 3 2 C3 2.66 3 3.32 3 4 C3.66 4 4.32 4 5 4 C4.67 6.31 4.34 8.62 4 11 C2.25 11.75 2.25 11.75 0 12 C-2.25 10.1875 -2.25 10.1875 -4 8 C-4 7.34 -4 6.68 -4 6 C-3.34 6 -2.68 6 -2 6 C-2 4.68 -2 3.36 -2 2 C-1.34 2 -0.68 2 0 2 C0 1.34 0 0.68 0 0 Z " fill="#6B6C6E" transform="translate(321,321)"/>
<path d="M0 0 C0.33 0 0.66 0 1 0 C1 2.97 1 5.94 1 9 C4.465 8.505 4.465 8.505 8 8 C8.6875 9.6875 8.6875 9.6875 9 12 C7.5625 14.75 7.5625 14.75 6 17 C3.13275314 16.42655063 2.1385485 16.1385485 0 14 C-0.44921875 11.7578125 -0.44921875 11.7578125 -0.6875 9.125 C-0.77386719 8.26132813 -0.86023438 7.39765625 -0.94921875 6.5078125 C-0.99777213 4.11002241 -0.70483368 2.27878559 0 0 Z " fill="#DFAE69" transform="translate(233,161)"/>
<path d="M0 0 C2.43127964 0.15363536 4.16517559 -0.11563545 6.47265625 -0.84375 C5.85390625 -0.10125 5.23515625 0.64125 4.59765625 1.40625 C2.86828344 3.64426188 1.61158964 5.59364987 0.47265625 8.15625 C-1.50734375 7.49625 -3.48734375 6.83625 -5.52734375 6.15625 C-5.19734375 4.83625 -4.86734375 3.51625 -4.52734375 2.15625 C-6.83734375 2.15625 -9.14734375 2.15625 -11.52734375 2.15625 C-9.26023005 -2.37797739 -4.17680652 -0.55438759 0 0 Z " fill="#7C7E7F" transform="translate(246.52734375,308.84375)"/>
<path d="M0 0 C1.1875 1.625 1.1875 1.625 2 4 C0.9375 7.1875 0.9375 7.1875 -1 10 C-3.5 11 -3.5 11 -6 11 C-9.20148213 8.86567858 -9.52206739 8.31580104 -10.6875 4.875 C-10.93886719 4.15054687 -11.19023437 3.42609375 -11.44921875 2.6796875 C-11.63097656 2.12539063 -11.81273437 1.57109375 -12 1 C-11.34 1 -10.68 1 -10 1 C-10 1.99 -10 2.98 -10 4 C-8.25328412 4.79356801 -8.25328412 4.79356801 -6 5 C-2.30240822 3.23136411 -2.30240822 3.23136411 0 0 Z M-8 6 C-7 8 -7 8 -7 8 Z " fill="#78797B" transform="translate(165,322)"/>
<path d="M0 0 C1.22589844 0.15275391 1.22589844 0.15275391 2.4765625 0.30859375 C3.41628906 0.43427734 3.41628906 0.43427734 4.375 0.5625 C5.035 2.2125 5.695 3.8625 6.375 5.5625 C0.65734361 7.46838546 -2.49584131 5.92980401 -7.625 3.5625 C-7.295 2.5725 -6.965 1.5825 -6.625 0.5625 C-4.10446405 -0.69776798 -2.7707902 -0.35624445 0 0 Z " fill="#67686B" transform="translate(304.625,308.4375)"/>
<path d="M0 0 C4 2 4 2 5.3125 3.75 C6.24944688 6.81637161 5.78662944 8.9190347 5 12 C4.01 13.485 4.01 13.485 3 15 C2.01 14.67 1.02 14.34 0 14 C0 9.38 0 4.76 0 0 Z " fill="#DABF86" transform="translate(321,235)"/>
<path d="M0 0 C3.63 0.66 7.26 1.32 11 2 C11 2.99 11 3.98 11 5 C6.03006806 7.43425238 2.65394631 8.34615998 -3 8 C-2.01 7.34 -1.02 6.68 0 6 C0.2502157 2.91634129 0.2502157 2.91634129 0 0 Z " fill="#E2C187" transform="translate(250,178)"/>
<path d="M0 0 C1.98 0 3.96 0 6 0 C6.33 2.31 6.66 4.62 7 7 C6.01 7.33 5.02 7.66 4 8 C3.26676204 10.01508358 3.26676204 10.01508358 3 12 C2.67 12 2.34 12 2 12 C1.34 10.02 0.68 8.04 0 6 C-0.66 6 -1.32 6 -2 6 C-1.34 4.02 -0.68 2.04 0 0 Z " fill="#767678" transform="translate(166,309)"/>
<path d="M0 0 C1.32 0.33 2.64 0.66 4 1 C4.66 0.67 5.32 0.34 6 0 C7.25 6.625 7.25 6.625 5 10 C3.35 10.66 1.7 11.32 0 12 C0 8.04 0 4.08 0 0 Z " fill="#4F5254" transform="translate(249,316)"/>
<path d="M0 0 C1.11375 0.3403125 1.11375 0.3403125 2.25 0.6875 C1.92 1.6775 1.59 2.6675 1.25 3.6875 C0.59 3.6875 -0.07 3.6875 -0.75 3.6875 C-0.399375 4.409375 -0.04875 5.13125 0.3125 5.875 C1.35409017 8.9997705 1.14096572 10.56911996 0.25 13.6875 C-0.03875 13.06875 -0.3275 12.45 -0.625 11.8125 C-1.68720042 9.55424235 -1.68720042 9.55424235 -3.75 7.6875 C-6.32061311 7.03982207 -6.32061311 7.03982207 -8.75 6.6875 C-8.09 6.3575 -7.43 6.0275 -6.75 5.6875 C-6.75 4.6975 -6.75 3.7075 -6.75 2.6875 C-4.38759023 0.23759357 -3.43453881 -0.3902885 0 0 Z " fill="#5D6165" transform="translate(293.75,251.3125)"/>
<path d="M0 0 C3.96 0 7.92 0 12 0 C12.33 1.32 12.66 2.64 13 4 C8.23692563 4.95261487 3.8333472 5.08333357 -1 5 C-0.67 3.35 -0.34 1.7 0 0 Z " fill="#505153" transform="translate(226,274)"/>
<path d="M0 0 C1.125 4.75 1.125 4.75 0 7 C-2.3431213 6.74438677 -4.67843403 6.40729228 -7 6 C-7.33 5.34 -7.66 4.68 -8 4 C-8.99 4.495 -8.99 4.495 -10 5 C-10 3.68 -10 2.36 -10 1 C-6.52674819 -0.1577506 -3.63932552 -0.06866652 0 0 Z " fill="#626265" transform="translate(189,308)"/>
<path d="M0 0 C6.13053511 -0.32712342 10.62669111 -0.39366878 16 3 C15.67 3.66 15.34 4.32 15 5 C9.06 5 3.12 5 -3 5 C-3 4.67 -3 4.34 -3 4 C0.63 4 4.26 4 8 4 C5.36 3.01 2.72 2.02 0 1 C0 0.67 0 0.34 0 0 Z " fill="#727373" transform="translate(294,276)"/>
<path d="M0 0 C0.33 0 0.66 0 1 0 C1.22119939 2.62450086 1.42746669 5.24870486 1.625 7.875 C1.68945312 8.62136719 1.75390625 9.36773437 1.8203125 10.13671875 C1.96087365 12.0870047 1.98759849 14.04469467 2 16 C-1.38370684 19.38370684 -5.2332093 19.05529986 -9.8125 19.0625 C-11.20839779 19.04655989 -12.60427948 19.02736707 -14 19 C-14.33 17.35 -14.66 15.7 -15 14 C-14.01 14.33 -13.02 14.66 -12 15 C-12 15.33 -12 15.66 -12 16 C-10.54257537 16.08096803 -9.08387193 16.13917774 -7.625 16.1875 C-6.40683594 16.23970703 -6.40683594 16.23970703 -5.1640625 16.29296875 C-4.44992188 16.19628906 -3.73578125 16.09960938 -3 16 C-0.65229357 12.47844036 -0.62330386 10.49228157 -0.375 6.3125 C-0.30023438 5.13300781 -0.22546875 3.95351562 -0.1484375 2.73828125 C-0.09945312 1.83464844 -0.05046875 0.93101562 0 0 Z " fill="#AACBCC" transform="translate(224,208)"/>
<path d="M0 0 C0 0.33 0 0.66 0 1 C-1.80597656 1.09087891 -1.80597656 1.09087891 -3.6484375 1.18359375 C-5.22397077 1.26799732 -6.79949096 1.35264541 -8.375 1.4375 C-9.1690625 1.47681641 -9.963125 1.51613281 -10.78125 1.55664062 C-15.02601221 1.68893404 -15.02601221 1.68893404 -19 3 C-19.47001033 6.27555608 -19.47001033 6.27555608 -19.625 10.0625 C-19.69976562 11.35285156 -19.77453125 12.64320313 -19.8515625 13.97265625 C-19.90054688 14.97167969 -19.94953125 15.97070312 -20 17 C-20.33 17 -20.66 17 -21 17 C-21.06058594 16.01257813 -21.12117187 15.02515625 -21.18359375 14.0078125 C-21.26738281 12.72648438 -21.35117188 11.44515625 -21.4375 10.125 C-21.51871094 8.84882813 -21.59992188 7.57265625 -21.68359375 6.2578125 C-21.79206027 3.11699848 -21.79206027 3.11699848 -23 1 C-15.70181469 -2.33292578 -7.73356171 -1.37485541 0 0 Z " fill="#A4C4C7" transform="translate(215,204)"/>
<path d="M0 0 C0.042721 1.66611905 0.04063832 3.33382885 0 5 C-1 6 -1 6 -4.0625 6.0625 C-5.031875 6.041875 -6.00125 6.02125 -7 6 C-7.33 3.69 -7.66 1.38 -8 -1 C-4.37673261 -2.2077558 -3.35853631 -1.54311128 0 0 Z " fill="#707071" transform="translate(326,300)"/>
<path d="M0 0 C1.65 1.65 3.3 3.3 5 5 C3.02 5.33 1.04 5.66 -1 6 C-1 6.66 -1 7.32 -1 8 C-1.66 8 -2.32 8 -3 8 C-3 8.66 -3 9.32 -3 10 C-4.32 10 -5.64 10 -7 10 C-7 8.35 -7 6.7 -7 5 C-5.68 5 -4.36 5 -3 5 C-1.21030974 2.57327433 -1.21030974 2.57327433 0 0 Z " fill="#505355" transform="translate(205,253)"/>
<path d="M0 0 C-3.75 2 -3.75 2 -6 2 C-6.33 2.66 -6.66 3.32 -7 4 C-7.804375 4.12375 -8.60875 4.2475 -9.4375 4.375 C-12.15983399 4.72567164 -12.15983399 4.72567164 -13.3125 7.0625 C-13.539375 7.701875 -13.76625 8.34125 -14 9 C-14.33 8.34 -14.66 7.68 -15 7 C-15.99 7.33 -16.98 7.66 -18 8 C-17.12800528 5.06692685 -16.31296033 3.29276934 -14.0625 1.1875 C-9.43199798 -0.60800078 -4.90817776 -0.23208546 0 0 Z " fill="#808082" transform="translate(216,250)"/>
<path d="M0 0 C2 0.9375 2 0.9375 3.25 4 C3.4975 4.969375 3.745 5.93875 4 6.9375 C2.68 6.9375 1.36 6.9375 0 6.9375 C-0.33 8.5875 -0.66 10.2375 -1 11.9375 C-1.309375 11.298125 -1.61875 10.65875 -1.9375 10 C-2.8345163 8.00139179 -2.8345163 8.00139179 -4 6.9375 C-4.04080783 4.93791636 -4.04254356 2.93704746 -4 0.9375 C-2 -0.0625 -2 -0.0625 0 0 Z " fill="#6C6D6F" transform="translate(153,308.0625)"/>
<path d="M0 0 C0.99 0.66 1.98 1.32 3 2 C6.14221967 1.68493373 6.14221967 1.68493373 9 1 C9 1.66 9 2.32 9 3 C9.66 3.33 10.32 3.66 11 4 C10.24074219 4.06058594 9.48148437 4.12117188 8.69921875 4.18359375 C7.70535156 4.26738281 6.71148437 4.35117187 5.6875 4.4375 C4.70136719 4.51871094 3.71523438 4.59992188 2.69921875 4.68359375 C-0.09375599 4.91812559 -0.09375599 4.91812559 -3 6 C-3.99 7.485 -3.99 7.485 -5 9 C-8 5.25 -8 5.25 -8 3 C-7.34 3 -6.68 3 -6 3 C-5.67 2.34 -5.34 1.68 -5 1 C-3.35 1.33 -1.7 1.66 0 2 C0 1.34 0 0.68 0 0 Z " fill="#7E8083" transform="translate(284,264)"/>
<path d="M0 0 C0.99 0.66 1.98 1.32 3 2 C4.91448052 2.32460157 4.91448052 2.32460157 7.01245117 2.31884766 C7.81305466 2.33871735 8.61365814 2.35858704 9.43852234 2.37905884 C10.29798965 2.39061005 11.15745697 2.40216125 12.04296875 2.4140625 C12.9265657 2.43342865 13.81016266 2.4527948 14.72053528 2.4727478 C17.54275866 2.53252805 20.36502286 2.57892266 23.1875 2.625 C25.10092925 2.66318122 27.01434133 2.70223304 28.92773438 2.7421875 C33.61835021 2.83822832 38.30904652 2.9222651 43 3 C43 3.33 43 3.66 43 4 C28.15 4 13.3 4 -2 4 C-2 3.34 -2 2.68 -2 2 C-1.34 2 -0.68 2 0 2 C0 1.34 0 0.68 0 0 Z " fill="#A6C2C7" transform="translate(275,222)"/>
<path d="M0 0 C1.65 0.99 3.3 1.98 5 3 C4.34 4.32 3.68 5.64 3 7 C3.66 7.66 4.32 8.32 5 9 C4.01 9 3.02 9 2 9 C1.67 9.99 1.34 10.98 1 12 C-0.5625 11 -0.5625 11 -2 9 C-2.01689698 6.19510065 -1.5386319 3.78293146 -1 1 C-0.67 0.67 -0.34 0.34 0 0 Z " fill="#505356" transform="translate(295,259)"/>
<path d="M0 0 C3.96 0 7.92 0 12 0 C12 1.32 12 2.64 12 4 C8.04 4 4.08 4 0 4 C0 2.68 0 1.36 0 0 Z " fill="#696A6A" transform="translate(266,177)"/>
<path d="M0 0 C3.96 0 7.92 0 12 0 C12 1.32 12 2.64 12 4 C8.04 4 4.08 4 0 4 C0 2.68 0 1.36 0 0 Z " fill="#777775" transform="translate(222,177)"/>
<path d="M0 0 C1.134375 0.020625 2.26875 0.04125 3.4375 0.0625 C2.5625 4.8125 2.5625 4.8125 1.4375 7.0625 C-0.5625 6.0625 -0.5625 6.0625 -3.5625 4.0625 C-3.5625 5.0525 -3.5625 6.0425 -3.5625 7.0625 C-4.5525 6.7325 -5.5425 6.4025 -6.5625 6.0625 C-4.25951087 0.07472826 -4.25951087 0.07472826 0 0 Z " fill="#6E6E70" transform="translate(347.5625,308.9375)"/>
<path d="M0 0 C0.66 0 1.32 0 2 0 C2.46555329 4.65553289 2.82636291 8.63399746 -0.125 12.5 C-4.08847678 15.94650155 -6.92258546 16 -12 16 C-12 15.34 -12 14.68 -12 14 C-10.906875 13.9175 -9.81375 13.835 -8.6875 13.75 C-5.02483452 13.35832667 -5.02483452 13.35832667 -3.1875 11.1875 C-2.5996875 10.1046875 -2.5996875 10.1046875 -2 9 C-1.608125 8.360625 -1.21625 7.72125 -0.8125 7.0625 C0.1585312 4.59757465 0.14590447 2.62628053 0 0 Z " fill="#A0B38D" transform="translate(220,207)"/>
<path d="M0 0 C2.3125 2 2.3125 2 4 4 C4 4.33 4 4.66 4 5 C0.04 5 -3.92 5 -8 5 C-7.34 4.34 -6.68 3.68 -6 3 C-6.33 2.01 -6.66 1.02 -7 0 C-4.23382717 -1.38308641 -2.92591209 -0.90563946 0 0 Z " fill="#7A7B7D" transform="translate(279,275)"/>
<path d="M0 0 C0.95465783 2.16967689 1.14401212 3.56328793 0.3984375 5.82421875 C-0.35870385 7.5684743 -1.17609198 9.28627131 -2 11 C-3.32 10.67 -4.64 10.34 -6 10 C-5.72510809 5.96825194 -5.46508424 4.43105369 -2.4375 1.625 C-1.633125 1.08875 -0.82875 0.5525 0 0 Z " fill="#7FA25A" transform="translate(254,161)"/>
<path d="M0 0 C1.53445094 3.06890187 0.54984289 5.70094266 0 9 C-1.65 9.66 -3.3 10.32 -5 11 C-5.99 10.01 -6.98 9.02 -8 8 C-7.34 8 -6.68 8 -6 8 C-5.7525 7.4225 -5.505 6.845 -5.25 6.25 C-3.83316683 3.6997003 -2.12372463 1.98214299 0 0 Z " fill="#86898B" transform="translate(256,322)"/>
<path d="M0 0 C0.33 0 0.66 0 1 0 C1.08086376 2.93804996 1.1404283 5.87388075 1.1875 8.8125 C1.21263672 9.64587891 1.23777344 10.47925781 1.26367188 11.33789062 C1.27817383 12.54155273 1.27817383 12.54155273 1.29296875 13.76953125 C1.31653442 14.87711792 1.31653442 14.87711792 1.34057617 16.00708008 C0.90219629 18.57230943 0.07505443 19.47034985 -2 21 C-4.6875 20.6875 -4.6875 20.6875 -7 20 C-6.67 19.34 -6.34 18.68 -6 18 C-5.34 18.33 -4.68 18.66 -4 19 C-3.690625 18.360625 -3.38125 17.72125 -3.0625 17.0625 C-2 15 -2 15 -1 14 C-0.76472227 11.65012738 -0.58613583 9.29443961 -0.4375 6.9375 C-0.35371094 5.64714844 -0.26992187 4.35679687 -0.18359375 3.02734375 C-0.12300781 2.02832031 -0.06242188 1.02929688 0 0 Z " fill="#A2A2A3" transform="translate(198,312)"/>
<path d="M0 0 C2.475 0.99 2.475 0.99 5 2 C4.25 8.75 4.25 8.75 2 11 C1.34 10.67 0.68 10.34 0 10 C0 6.7 0 3.4 0 0 Z " fill="#505153" transform="translate(232,316)"/>
<path d="M0 0 C2.31 0 4.62 0 7 0 C7 0.99 7 1.98 7 3 C9.475 3.99 9.475 3.99 12 5 C12 5.33 12 5.66 12 6 C8.04 6 4.08 6 0 6 C0.99 5.34 1.98 4.68 3 4 C1.68 3.34 0.36 2.68 -1 2 C-0.67 1.34 -0.34 0.68 0 0 Z " fill="#808183" transform="translate(219,274)"/>
<path d="M0 0 C-0.33 2.31 -0.66 4.62 -1 7 C-3.31 7.33 -5.62 7.66 -8 8 C-7.67 6.02 -7.34 4.04 -7 2 C-1.125 0 -1.125 0 0 0 Z " fill="#515658" transform="translate(285,259)"/>
<path d="M0 0 C1.31571603 0.2547514 2.62760376 0.52934141 3.9375 0.8125 C4.66839844 0.96332031 5.39929688 1.11414063 6.15234375 1.26953125 C6.76207031 1.51058594 7.37179687 1.75164062 8 2 C8.33 2.99 8.66 3.98 9 5 C6.73538929 6.37494222 5.54345306 7.07991957 2.875 6.6875 C1 6 1 6 -1 5 C-0.67 3.35 -0.34 1.7 0 0 Z " fill="#565C5E" transform="translate(335,319)"/>
<path d="M0 0 C0.99 0.66 1.98 1.32 3 2 C3 2.66 3 3.32 3 4 C3.99 4.66 4.98 5.32 6 6 C5.67 6.99 5.34 7.98 5 9 C2.69 8.67 0.38 8.34 -2 8 C-1.34 7.67 -0.68 7.34 0 7 C0 6.01 0 5.02 0 4 C-0.99 3.67 -1.98 3.34 -3 3 C-2.01 2.01 -1.02 1.02 0 0 Z " fill="#55575C" transform="translate(180,256)"/>
<path d="M0 0 C2.97 0 5.94 0 9 0 C9.33 1.32 9.66 2.64 10 4 C6.7 4 3.4 4 0 4 C0 2.68 0 1.36 0 0 Z " fill="#D7BD85" transform="translate(270,164)"/>
<path d="M0 0 C2.97 0 5.94 0 9 0 C9.33 1.32 9.66 2.64 10 4 C6.33333333 4 2.66666667 4 -1 4 C-0.67 2.68 -0.34 1.36 0 0 Z " fill="#55575B" transform="translate(299,327)"/>
<path d="M0 0 C0 0.66 0 1.32 0 2 C0.66 2 1.32 2 2 2 C1.67 2.99 1.34 3.98 1 5 C-1.66666667 5 -4.33333333 5 -7 5 C-7 3.68 -7 2.36 -7 1 C-4.53721199 -0.231394 -2.7204945 -0.07159196 0 0 Z " fill="#616164" transform="translate(220,308)"/>
<path d="M0 0 C2.97 0 5.94 0 9 0 C9.33 0.99 9.66 1.98 10 3 C9 4 9 4 6.93359375 4.09765625 C6.10988281 4.08605469 5.28617188 4.07445312 4.4375 4.0625 C3.61121094 4.05347656 2.78492188 4.04445312 1.93359375 4.03515625 C1.29550781 4.02355469 0.65742188 4.01195312 0 4 C0 2.68 0 1.36 0 0 Z " fill="#DBBE91" transform="translate(221,164)"/>
<path d="M0 0 C1.23556641 0.01740234 1.23556641 0.01740234 2.49609375 0.03515625 C3.32238281 0.04417969 4.14867187 0.05320313 5 0.0625 C5.63808594 0.07410156 6.27617187 0.08570313 6.93359375 0.09765625 C7.59359375 1.41765625 8.25359375 2.73765625 8.93359375 4.09765625 C6.29359375 4.75765625 3.65359375 5.41765625 0.93359375 6.09765625 C0.60359375 4.77765625 0.27359375 3.45765625 -0.06640625 2.09765625 C-1.05640625 1.76765625 -2.04640625 1.43765625 -3.06640625 1.09765625 C-2.06640625 0.09765625 -2.06640625 0.09765625 0 0 Z " fill="#B4C299" transform="translate(256.06640625,155.90234375)"/>
<path d="M0 0 C0 0.66 0 1.32 0 2 C0.66 2 1.32 2 2 2 C2 2.66 2 3.32 2 4 C-0.64 4.33 -3.28 4.66 -6 5 C-6.33 3.35 -6.66 1.7 -7 0 C-3.86650268 -1.04449911 -3.01031744 -0.93423645 0 0 Z " fill="#525557" transform="translate(192,327)"/>
<path d="M0 0 C0.33 0.66 0.66 1.32 1 2 C1.99 2.33 2.98 2.66 4 3 C4.66 3.33 5.32 3.66 6 4 C6.625 6.5625 6.625 6.5625 7 9 C2.25 8.25 2.25 8.25 0 6 C-0.125 2.875 -0.125 2.875 0 0 Z M4 0 C4.99 0.495 4.99 0.495 6 1 C5.01 1.495 5.01 1.495 4 2 C4 1.34 4 0.68 4 0 Z M7 7 C9 8 9 8 9 8 Z " fill="#646870" transform="translate(174,256)"/>
<path d="M0 0 C0.99 0.33 1.98 0.66 3 1 C1.79618552 3.49361571 0.54571278 5.68143083 -1 8 C-2.32 8 -3.64 8 -5 8 C-4.67 6.35 -4.34 4.7 -4 3 C-3.34 3 -2.68 3 -2 3 C-2 2.34 -2 1.68 -2 1 C-1.34 0.67 -0.68 0.34 0 0 Z " fill="#D8B782" transform="translate(268,146)"/>
<path d="M0 0 C4.8 3.32307692 4.8 3.32307692 5.8125 6.75 C5.874375 7.4925 5.93625 8.235 6 9 C4.25 8.875 4.25 8.875 2 8 C-0.25 4.9375 -0.25 4.9375 -2 2 C-1.34 1.34 -0.68 0.68 0 0 Z " fill="#D4B892" transform="translate(231,145)"/>
<path d="M0 0 C1.32 0 2.64 0 4 0 C4 2.97 4 5.94 4 9 C2.68 9 1.36 9 0 9 C0 6.03 0 3.06 0 0 Z " fill="#DBC091" transform="translate(248,139)"/>
<path d="M0 0 C2.64 0 5.28 0 8 0 C7.01 0.495 7.01 0.495 6 1 C6.99 2.32 7.98 3.64 9 5 C5.7 4.67 2.4 4.34 -1 4 C-0.67 2.68 -0.34 1.36 0 0 Z " fill="#535456" transform="translate(266,274)"/>
<path d="M0 0 C2.64 0 5.28 0 8 0 C7.67 0.66 7.34 1.32 7 2 C6.01 1.67 5.02 1.34 4 1 C4.33 3.31 4.66 5.62 5 8 C3.35 7.67 1.7 7.34 0 7 C0 4.69 0 2.38 0 0 Z " fill="#566064" transform="translate(313,256)"/>
<path d="M0 0 C1.65322266 0.01740234 1.65322266 0.01740234 3.33984375 0.03515625 C4.99693359 0.04869141 4.99693359 0.04869141 6.6875 0.0625 C7.54214844 0.07410156 8.39679688 0.08570313 9.27734375 0.09765625 C9.60734375 0.75765625 9.93734375 1.41765625 10.27734375 2.09765625 C9.53484375 2.05640625 8.79234375 2.01515625 8.02734375 1.97265625 C5.18975423 2.10163759 3.68960437 2.66816847 1.27734375 4.09765625 C1.27734375 5.08765625 1.27734375 6.07765625 1.27734375 7.09765625 C0.61734375 6.76765625 -0.04265625 6.43765625 -0.72265625 6.09765625 C-0.39265625 4.77765625 -0.06265625 3.45765625 0.27734375 2.09765625 C-1.04265625 1.76765625 -2.36265625 1.43765625 -3.72265625 1.09765625 C-2.72265625 0.09765625 -2.72265625 0.09765625 0 0 Z " fill="#767A7B" transform="translate(285.72265625,249.90234375)"/>
<path d="M0 0 C2.31 0.33 4.62 0.66 7 1 C7 1.99 7 2.98 7 4 C3.07703567 5.30765478 0.13997567 5.1971417 -4 5 C-4.66 4.34 -5.32 3.68 -6 3 C-4.02 3 -2.04 3 0 3 C0 2.01 0 1.02 0 0 Z " fill="#B8C1A0" transform="translate(258,174)"/>
<path d="M0 0 C0.99 0.33 1.98 0.66 3 1 C2.814375 1.556875 2.62875 2.11375 2.4375 2.6875 C1.92448835 5.399133 2.3359276 7.34371039 3 10 C1.68 9.67 0.36 9.34 -1 9 C-1.33 6.36 -1.66 3.72 -2 1 C-1.34 0.67 -0.68 0.34 0 0 Z " fill="#6F7072" transform="translate(344,316)"/>
<path d="M0 0 C2 2 2 2 2.1953125 3.9453125 C2.13020833 5.96354167 2.06510417 7.98177083 2 10 C1.34 10 0.68 10 0 10 C0 9.01 0 8.02 0 7 C-1.9254644 5.8509288 -1.9254644 5.8509288 -4 6 C-3.6875 4.125 -3.6875 4.125 -3 2 C-2.01 1.34 -1.02 0.68 0 0 Z " fill="#666768" transform="translate(166,314)"/>
<path d="M0 0 C0.66 1.65 1.32 3.3 2 5 C-0.97 5 -3.94 5 -7 5 C-7.33 3.68 -7.66 2.36 -8 1 C-7.67 1.66 -7.34 2.32 -7 3 C-6.67 2.34 -6.34 1.68 -6 1 C-3.911361 0.32624548 -2.19636905 0 0 0 Z " fill="#B7CBD0" transform="translate(312,259)"/>
<path d="M0 0 C3.96 0 7.92 0 12 0 C12 0.33 12 0.66 12 1 C11.30132812 1.09796875 10.60265625 1.1959375 9.8828125 1.296875 C8.97273438 1.44640625 8.06265625 1.5959375 7.125 1.75 C6.22007812 1.88921875 5.31515625 2.0284375 4.3828125 2.171875 C1.85897517 2.76667779 1.85897517 2.76667779 0.8046875 4.953125 C0.53914062 5.62859375 0.27359375 6.3040625 0 7 C-0.66 7.66 -1.32 8.32 -2 9 C-2 7.68 -2 6.36 -2 5 C-1.34 5 -0.68 5 0 5 C0 3.35 0 1.7 0 0 Z " fill="#E2C896" transform="translate(248,154)"/>
<path d="M0 0 C-0.66 0 -1.32 0 -2 0 C-2 0.66 -2 1.32 -2 2 C-0.35 2 1.3 2 3 2 C3 2.33 3 2.66 3 3 C-1.62 3.33 -6.24 3.66 -11 4 C-11 3.34 -11 2.68 -11 2 C-9.73392393 1.46770674 -8.46189588 0.94955456 -7.1875 0.4375 C-6.47980469 0.14746094 -5.77210938 -0.14257812 -5.04296875 -0.44140625 C-3 -1 -3 -1 0 0 Z " fill="#9D9D9D" transform="translate(185,280)"/>
<path d="M0 0 C0.66 1.98 1.32 3.96 2 6 C0.35 6 -1.3 6 -3 6 C-3 5.34 -3 4.68 -3 4 C-3.66 3.67 -4.32 3.34 -5 3 C-2.25 0 -2.25 0 0 0 Z M2 1 C2.66 1.33 3.32 1.66 4 2 C4 2.66 4 3.32 4 4 C3.01 4 2.02 4 1 4 C1.33 3.01 1.66 2.02 2 1 Z " fill="#83A664" transform="translate(214,215)"/>
<path d="M0 0 C1.2065625 0.0309375 1.2065625 0.0309375 2.4375 0.0625 C0.7875 2.0425 -0.8625 4.0225 -2.5625 6.0625 C-1.2425 6.0625 0.0775 6.0625 1.4375 6.0625 C1.7675 5.0725 2.0975 4.0825 2.4375 3.0625 C2.7675 4.3825 3.0975 5.7025 3.4375 7.0625 C-1.3125 8.1875 -1.3125 8.1875 -3.5625 7.0625 C-3.60504356 5.06295254 -3.60330783 3.06208364 -3.5625 1.0625 C-2.5625 0.0625 -2.5625 0.0625 0 0 Z " fill="#8F9092" transform="translate(332.5625,324.9375)"/>
<path d="M0 0 C1.9375 0.375 1.9375 0.375 4 1 C4.33 1.66 4.66 2.32 5 3 C3.68 3.33 2.36 3.66 1 4 C1.33 3.01 1.66 2.02 2 1 C1.34 0.67 0.68 0.34 0 0 Z M-2 2 C-1.01 2.66 -0.02 3.32 1 4 C0.67 5.65 0.34 7.3 0 9 C-0.61875 8.2884375 -0.61875 8.2884375 -1.25 7.5625 C-3.182185 5.83733482 -4.48192275 5.43415125 -7 5 C-5.35 4.67 -3.7 4.34 -2 4 C-2 3.34 -2 2.68 -2 2 Z " fill="#8A8A8B" transform="translate(220,309)"/>
<path d="M0 0 C0.33 0 0.66 0 1 0 C0.67 2.97 0.34 5.94 0 9 C-6.625 10 -6.625 10 -10 10 C-9.67 8.68 -9.34 7.36 -9 6 C-8.67 6.33 -8.34 6.66 -8 7 C-5.54190002 7.2500773 -5.54190002 7.2500773 -3 7 C-0.64046906 4.64046906 -0.50858587 3.22104383 0 0 Z " fill="#8E9093" transform="translate(307,318)"/>
<path d="M0 0 C0.33 0 0.66 0 1 0 C1.66 5.94 2.32 11.88 3 18 C1.35 17.67 -0.3 17.34 -2 17 C-1.505 15.515 -1.505 15.515 -1 14 C-0.77439324 11.60745424 -0.59151405 9.21071877 -0.4375 6.8125 C-0.35371094 5.54019531 -0.26992188 4.26789063 -0.18359375 2.95703125 C-0.12300781 1.98121094 -0.06242187 1.00539062 0 0 Z " fill="#99B3A9" transform="translate(320,237)"/>
<path d="M0 0 C1.98 0.99 1.98 0.99 4 2 C4 2.66 4 3.32 4 4 C3.34 4 2.68 4 2 4 C1.67 6.64 1.34 9.28 1 12 C1.66 12 2.32 12 3 12 C3 12.99 3 13.98 3 15 C2.01 14.67 1.02 14.34 0 14 C0 9.38 0 4.76 0 0 Z " fill="#C8C29B" transform="translate(321,235)"/>
<path d="M0 0 C3.68754757 0.49831724 5.60490662 1.10067643 8 4 C5.35261084 5.4606285 4.10551666 6 1 6 C0.67 4.02 0.34 2.04 0 0 Z " fill="#84A065" transform="translate(197,209)"/>
<path d="M0 0 C0.99 0.33 1.98 0.66 3 1 C2.34 1.66 1.68 2.32 1 3 C0.39938767 4.90178785 0.39938767 4.90178785 0 7 C-0.33333333 8.33333333 -0.66666667 9.66666667 -1 11 C-1.66 11 -2.32 11 -3 11 C-3 8.36 -3 5.72 -3 3 C-2.34 3 -1.68 3 -1 3 C-0.67 2.01 -0.34 1.02 0 0 Z " fill="#D9A351" transform="translate(237,158)"/>
<path d="M0 0 C0.99 0 1.98 0 3 0 C3 0.66 3 1.32 3 2 C6.465 1.505 6.465 1.505 10 1 C10.33 1.99 10.66 2.98 11 4 C3.57142857 4.28571429 3.57142857 4.28571429 0 2 C0 1.34 0 0.68 0 0 Z " fill="#858688" transform="translate(295,329)"/>
<path d="M0 0 C3.3 0.33 6.6 0.66 10 1 C10.33 1.99 10.66 2.98 11 4 C10.29875 3.855625 9.5975 3.71125 8.875 3.5625 C5.92443859 2.98521625 2.96729849 2.48304859 0 2 C0 1.34 0 0.68 0 0 Z " fill="#818181" transform="translate(315,280)"/>
<path d="M0 0 C-0.66 0.66 -1.32 1.32 -2 2 C-2.30059943 4.36509361 -2.49515012 6.74441881 -2.625 9.125 C-2.69976562 10.40632812 -2.77453125 11.68765625 -2.8515625 13.0078125 C-2.90054688 13.99523437 -2.94953125 14.98265625 -3 16 C-3.33 16 -3.66 16 -4 16 C-4.06058594 15.01257813 -4.12117187 14.02515625 -4.18359375 13.0078125 C-4.26738281 11.72648438 -4.35117188 10.44515625 -4.4375 9.125 C-4.51871094 7.84882813 -4.59992188 6.57265625 -4.68359375 5.2578125 C-4.79206027 2.11699848 -4.79206027 2.11699848 -6 0 C-3 -1 -3 -1 0 0 Z " fill="#C2D9DA" transform="translate(198,205)"/>
<path d="M0 0 C2.97 0.495 2.97 0.495 6 1 C3 3 3 3 1 3 C1 3.66 1 4.32 1 5 C0.34 5 -0.32 5 -1 5 C-1.33 5.99 -1.66 6.98 -2 8 C-2.66 6.68 -3.32 5.36 -4 4 C-3.01 3.67 -2.02 3.34 -1 3 C-0.67 2.01 -0.34 1.02 0 0 Z " fill="#A8C5C9" transform="translate(200,247)"/>
<path d="M0 0 C0.66 0.33 1.32 0.66 2 1 C1.67 1.99 1.34 2.98 1 4 C1.66 4.33 2.32 4.66 3 5 C2.195625 5.12375 1.39125 5.2475 0.5625 5.375 C-0.7059375 5.684375 -0.7059375 5.684375 -2 6 C-2.33 6.66 -2.66 7.32 -3 8 C-3.66 8 -4.32 8 -5 8 C-3.8141763 4.62496331 -2.72426311 2.35277269 0 0 Z " fill="#E3B980" transform="translate(239,153)"/>
<path d="M0 0 C0.66 0.33 1.32 0.66 2 1 C0.06745228 3.0245738 -1.63158688 4.42105792 -4 6 C-6.1875 5.625 -6.1875 5.625 -8 5 C-5.31158141 2.74754119 -3.35358125 1.11786042 0 0 Z " fill="#A3B88E" transform="translate(218,208)"/>
<path d="M0 0 C0.36923077 4.55384615 0.36923077 4.55384615 -1.5 6.8125 C-1.995 7.204375 -2.49 7.59625 -3 8 C-3.99 7.01 -4.98 6.02 -6 5 C-1.125 0 -1.125 0 0 0 Z " fill="#82A463" transform="translate(221,208)"/>
<path d="M0 0 C1.98 0 3.96 0 6 0 C5.67 1.32 5.34 2.64 5 4 C3.35 3.67 1.7 3.34 0 3 C0 2.01 0 1.02 0 0 Z " fill="#525256" transform="translate(270,309)"/>
<path d="M0 0 C1.32 0 2.64 0 4 0 C4 1.32 4 2.64 4 4 C6.31 4 8.62 4 11 4 C11 4.33 11 4.66 11 5 C7.7 5 4.4 5 1 5 C0.67 3.35 0.34 1.7 0 0 Z " fill="#848688" transform="translate(197,276)"/>
<path d="M0 0 C3.63 0 7.26 0 11 0 C7 2 7 2 5 2 C4.67 2.66 4.34 3.32 4 4 C2.68 3.67 1.36 3.34 0 3 C0 2.01 0 1.02 0 0 Z " fill="#777978" transform="translate(205,250)"/>
<path d="M0 0 C0.33 0 0.66 0 1 0 C1.309375 1.11375 1.61875 2.2275 1.9375 3.375 C2.82326483 6.7945155 2.82326483 6.7945155 4 9 C2.35 8.67 0.7 8.34 -1 8 C-1.125 2.25 -1.125 2.25 0 0 Z " fill="#A6BF8D" transform="translate(254,165)"/>
<path d="M0 0 C0.33 0.66 0.66 1.32 1 2 C3.02463255 2.65213292 3.02463255 2.65213292 5 3 C5 3.66 5 4.32 5 5 C4.01 5.33 3.02 5.66 2 6 C1.01 5.34 0.02 4.68 -1 4 C-0.67 2.68 -0.34 1.36 0 0 Z " fill="#4C5053" transform="translate(156,322)"/>
<path d="M0 0 C0 1.65 0 3.3 0 5 C-1.65 5 -3.3 5 -5 5 C-4.625 3.0625 -4.625 3.0625 -4 1 C-2 0 -2 0 0 0 Z " fill="#515555" transform="translate(225,312)"/>
<path d="M0 0 C0.66 0.33 1.32 0.66 2 1 C1.67 3.31 1.34 5.62 1 8 C-1.31 7.34 -3.62 6.68 -6 6 C-6 5.67 -6 5.34 -6 5 C-4.35 5 -2.7 5 -1 5 C-0.67 3.35 -0.34 1.7 0 0 Z " fill="#969597" transform="translate(190,309)"/>
<path d="M0 0 C0.99 0 1.98 0 3 0 C2.125 4.75 2.125 4.75 1 7 C-1 6 -1 6 -2 3 C-1.34 2.01 -0.68 1.02 0 0 Z " fill="#89898B" transform="translate(348,309)"/>
<path d="M0 0 C0.598125 0.20625 1.19625 0.4125 1.8125 0.625 C1.4825 1.285 1.1525 1.945 0.8125 2.625 C-0.52083333 2.95833333 -1.85416667 3.29166667 -3.1875 3.625 C-3.5175 4.285 -3.8475 4.945 -4.1875 5.625 C-4.5175 4.305 -4.8475 2.985 -5.1875 1.625 C-2.1875 -0.375 -2.1875 -0.375 0 0 Z " fill="#8B8C8C" transform="translate(334.1875,308.375)"/>
<path d="M0 0 C-1.875 5.75 -1.875 5.75 -3 8 C-3.99 7.67 -4.98 7.34 -6 7 C-5.649375 6.38125 -5.29875 5.7625 -4.9375 5.125 C-4.628125 4.42375 -4.31875 3.7225 -4 3 C-4.33 2.34 -4.66 1.68 -5 1 C-3 0 -3 0 0 0 Z " fill="#515258" transform="translate(287,268)"/>
<path d="M0 0 C2 1 2 1 2.8125 2.875 C3 5 3 5 1.5625 6.75 C1.046875 7.1625 0.53125 7.575 0 8 C-1.125 5.6875 -1.125 5.6875 -2 3 C-1.34 2.01 -0.68 1.02 0 0 Z " fill="#7C7D7E" transform="translate(211,309)"/>
<path d="M0 0 C-0.33 0.99 -0.66 1.98 -1 3 C-3.97 3 -6.94 3 -10 3 C-8.0130571 -0.97388579 -3.91761109 -0.08705802 0 0 Z " fill="#87898B" transform="translate(245,308)"/>
<path d="M0 0 C3.26954202 0.56371414 4.82575883 1.49962266 7 4 C4.69 4 2.38 4 0 4 C0 2.68 0 1.36 0 0 Z " fill="#4D5154" transform="translate(201,276)"/>
<path d="M0 0 C3.34373475 0.55728913 6.03312999 1.35173889 9 3 C8.67 3.66 8.34 4.32 8 5 C7.236875 4.690625 6.47375 4.38125 5.6875 4.0625 C3.81210323 3.32106407 1.91315348 2.63771783 0 2 C0 1.34 0 0.68 0 0 Z " fill="#B7C7A7" transform="translate(197,207)"/>
<path d="M0 0 C2.475 0.495 2.475 0.495 5 1 C5.33 2.65 5.66 4.3 6 6 C3.37812506 4.95125002 2.20628639 4.35068687 0.75 1.875 C0.5025 1.25625 0.255 0.6375 0 0 Z " fill="#DFBD92" transform="translate(235,177)"/>
<path d="M0 0 C0.99 0 1.98 0 3 0 C4 3 4 3 4 6 C2.68 6 1.36 6 0 6 C0 4.02 0 2.04 0 0 Z " fill="#E8D6A4" transform="translate(246,172)"/>
<path d="M0 0 C0.66 0.66 1.32 1.32 2 2 C2.66 1.67 3.32 1.34 4 1 C4 2.98 4 4.96 4 7 C2.68 6.34 1.36 5.68 0 5 C0 3.35 0 1.7 0 0 Z " fill="#D4A45C" transform="translate(234,171)"/>
<path d="M0 0 C0.99 0 1.98 0 3 0 C3.33 1.32 3.66 2.64 4 4 C3.01 4.33 2.02 4.66 1 5 C0.34 4.01 -0.32 3.02 -1 2 C-0.67 1.34 -0.34 0.68 0 0 Z " fill="#505154" transform="translate(307,310)"/>
<path d="M0 0 C0.99 0.495 0.99 0.495 2 1 C2 1.99 2 2.98 2 4 C3.32 4.33 4.64 4.66 6 5 C6 5.33 6 5.66 6 6 C4.02 6 2.04 6 0 6 C0 4.02 0 2.04 0 0 Z " fill="#84A5A7" transform="translate(226,257)"/>
<path d="M0 0 C0.99 0.33 1.98 0.66 3 1 C3.33 1.99 3.66 2.98 4 4 C0.7 4 -2.6 4 -6 4 C-6 3.67 -6 3.34 -6 3 C-4.02 2.67 -2.04 2.34 0 2 C0 1.34 0 0.68 0 0 Z " fill="#848484" transform="translate(309,278)"/>
<path d="M0 0 C3.25696479 0.41755959 4.63443291 0.63443291 7 3 C5.02 3.33 3.04 3.66 1 4 C0.34 3.01 -0.32 2.02 -1 1 C-0.67 0.67 -0.34 0.34 0 0 Z " fill="#515255" transform="translate(217,276)"/>
<path d="M0 0 C0.33 0.66 0.66 1.32 1 2 C1.99 2.33 2.98 2.66 4 3 C3.67 3.99 3.34 4.98 3 6 C2.01 6 1.02 6 0 6 C0 4.02 0 2.04 0 0 Z M4 0 C4.99 0.495 4.99 0.495 6 1 C5.01 1.495 5.01 1.495 4 2 C4 1.34 4 0.68 4 0 Z " fill="#757778" transform="translate(174,256)"/>
<path d="M0 0 C2.35953094 2.35953094 2.49141413 3.77895617 3 7 C1.0625 6.25 1.0625 6.25 -1 5 C-1.75 2.875 -1.75 2.875 -2 1 C-1.34 0.67 -0.68 0.34 0 0 Z " fill="#A2C4C9" transform="translate(318,226)"/>
</svg>
