<svg xmlns="http://www.w3.org/2000/svg" width="1409" height="744" viewBox="0 0 1409 744">
<g>
<path d="M 722.00 573.76 C719.01,575.48 716.64,575.97 711.80,575.89 C699.94,575.69 693.87,570.27 693.17,559.28 C692.70,551.91 694.04,547.99 698.24,544.45 C700.64,542.44 701.87,542.07 704.62,542.59 C706.72,542.98 708.58,542.76 709.48,542.01 C710.65,541.05 711.27,541.13 712.54,542.40 C713.42,543.28 714.67,543.99 715.32,543.98 C716.11,543.97 716.06,543.69 715.17,543.12 C714.12,542.46 714.22,542.10 715.67,541.45 C717.08,540.81 716.48,540.47 713.00,539.96 C708.77,539.34 708.89,539.30 715.00,539.22 C718.58,539.18 720.82,539.45 719.98,539.82 C717.55,540.90 718.24,542.86 721.80,545.02 C723.61,546.13 724.83,547.47 724.49,548.02 C724.16,548.56 721.25,549.00 718.03,549.00 C712.68,549.00 711.95,549.27 709.50,552.18 C707.48,554.58 706.96,556.06 707.39,558.18 C708.03,561.41 707.18,561.76 704.76,559.25 C697.74,551.97 696.57,552.94 696.89,565.75 C697.01,570.51 698.13,571.02 703.00,568.50 C706.90,566.49 716.57,565.95 718.78,567.63 C719.81,568.41 721.78,568.71 723.68,568.37 C726.42,567.88 726.80,568.06 726.38,569.66 C726.11,570.68 724.14,572.53 722.00,573.76 ZM 897.36 574.15 C895.31,576.42 890.25,576.56 887.22,574.44 C885.21,573.03 885.00,572.06 885.03,564.19 C885.06,557.06 885.29,555.79 886.30,557.13 C887.42,558.60 887.91,558.62 891.27,557.27 C893.32,556.46 895.00,555.16 895.00,554.39 C895.00,553.63 895.45,553.00 896.00,553.00 C896.55,553.00 897.00,550.97 897.00,548.50 C897.00,546.03 896.61,544.00 896.13,544.00 C895.65,544.00 894.96,541.77 894.60,539.04 C894.14,535.54 893.29,533.61 891.73,532.53 C889.93,531.27 889.74,530.65 890.66,529.24 C891.58,527.83 891.32,527.00 889.29,524.84 L 886.80 522.18 L 889.01 520.99 C890.23,520.34 892.29,520.01 893.58,520.26 C894.92,520.52 895.69,520.30 895.35,519.76 C895.03,519.24 895.60,518.97 896.63,519.17 C898.39,519.51 898.52,521.06 898.77,545.92 C899.00,569.41 898.85,572.51 897.36,574.15 ZM 768.69 573.83 C765.85,576.49 760.24,576.63 757.75,574.11 C756.17,572.51 756.00,569.72 756.00,545.75 L 756.00 519.16 L 758.92 518.52 C763.93,517.42 768.74,518.85 769.26,521.59 C769.69,523.81 768.94,524.51 766.61,524.07 C766.11,523.98 764.53,524.16 763.09,524.48 C759.65,525.24 758.25,529.73 759.19,537.00 C759.59,540.03 760.04,548.46 760.20,555.75 L 760.50 568.99 L 763.25 569.00 C764.76,569.00 766.02,568.66 766.05,568.25 C766.61,559.96 767.29,555.32 768.05,554.55 C768.57,554.03 769.00,550.09 769.00,545.80 C769.00,541.27 769.42,538.00 770.00,538.00 C770.63,538.00 771.00,544.28 771.00,554.83 C771.00,571.12 770.93,571.72 768.69,573.83 ZM 679.17 574.75 C677.30,576.26 673.33,576.27 670.23,574.77 C667.98,573.68 667.96,573.51 668.23,556.09 C668.49,539.26 668.59,538.50 670.50,538.50 C672.24,538.50 672.54,539.27 672.80,544.30 C673.02,548.42 673.55,550.28 674.65,550.70 C676.57,551.43 677.91,549.44 678.15,545.50 C678.25,543.73 678.60,544.76 679.00,548.00 L 679.67 553.50 L 679.85 548.00 C679.95,544.97 680.52,541.83 681.11,541.00 C682.01,539.75 682.09,539.81 681.59,541.33 C681.27,542.34 680.96,547.29 680.92,552.33 C680.88,557.37 680.62,560.94 680.34,560.26 C679.96,559.32 679.47,559.38 678.34,560.52 C677.51,561.34 676.49,561.80 676.07,561.54 C674.94,560.84 672.74,565.43 673.16,567.62 C673.43,569.04 674.54,569.57 677.71,569.80 C681.14,570.06 681.79,570.41 681.31,571.80 C680.98,572.74 680.02,574.06 679.17,574.75 ZM 833.36 478.46 C826.39,480.21 822.00,480.44 822.00,479.06 C822.00,478.55 820.54,477.99 818.75,477.81 C814.06,477.36 814.75,475.55 819.75,475.19 C824.13,474.88 825.13,473.34 823.08,470.09 C821.44,467.51 823.12,466.13 828.83,465.37 C831.95,464.95 834.95,464.76 835.50,464.95 C836.05,465.15 838.71,465.43 841.40,465.59 C846.59,465.89 848.07,467.03 847.26,470.11 C846.99,471.15 847.27,472.00 847.88,472.00 C848.50,472.00 849.00,472.36 849.00,472.80 C849.00,473.75 841.95,476.30 833.36,478.46 ZM 803.00 574.72 C800.95,576.38 795.80,576.31 793.44,574.58 C791.67,573.29 791.48,571.65 791.22,555.33 C790.96,538.83 791.05,537.71 792.47,540.36 C793.31,541.94 794.00,544.21 794.00,545.41 C794.00,546.62 794.53,548.13 795.18,548.78 C796.92,550.52 799.00,548.38 799.00,544.85 C799.00,542.66 799.62,541.71 801.57,540.98 C802.98,540.44 804.33,540.00 804.57,540.00 C804.80,540.00 805.00,544.45 805.00,549.88 C805.00,559.12 804.86,559.80 802.87,560.32 C801.70,560.63 799.77,560.24 798.57,559.46 C795.16,557.22 792.00,559.91 792.00,565.06 C792.00,568.89 792.10,569.00 795.45,569.00 C797.68,569.00 799.27,568.38 799.93,567.25 C800.83,565.72 801.09,565.69 801.97,567.00 C802.86,568.33 802.99,568.33 803.13,567.00 C803.21,566.17 803.56,567.30 803.89,569.50 C804.34,572.42 804.09,573.83 803.00,574.72 ZM 582.01 532.00 C577.50,534.27 572.00,531.51 572.00,526.97 C572.00,523.69 576.78,520.58 582.30,520.27 C585.16,520.12 591.56,519.74 596.51,519.43 C605.52,518.87 611.00,519.87 611.00,522.06 C611.00,522.67 610.44,522.97 609.75,522.72 C609.06,522.48 606.92,522.89 605.00,523.64 C603.08,524.40 598.80,525.41 595.50,525.88 C591.70,526.44 590.69,526.80 592.75,526.88 C597.45,527.05 596.75,529.00 591.99,529.00 C589.78,529.00 587.08,529.45 585.99,530.00 ZM 596.87 574.57 C593.71,576.20 582.80,576.39 579.00,574.88 C576.37,573.83 572.00,570.14 572.00,568.96 C572.00,568.59 573.01,568.44 574.25,568.65 C576.67,569.05 581.13,565.70 582.32,562.60 C582.97,560.90 583.19,560.89 585.48,562.40 C588.38,564.30 594.82,564.76 597.50,563.26 C599.00,562.42 599.72,562.65 601.13,564.43 C603.95,568.03 602.41,571.70 596.87,574.57 ZM 644.17 574.35 C642.14,576.18 636.46,576.50 633.75,574.92 C632.15,573.99 632.00,571.54 632.00,546.47 L 632.00 519.04 L 634.51 518.41 C637.66,517.62 644.26,518.81 645.23,520.34 C646.44,522.24 646.11,525.21 644.75,524.72 C644.06,524.47 642.25,524.98 640.73,525.86 C638.48,527.16 637.59,527.23 635.99,526.23 C634.91,525.55 633.80,525.00 633.51,525.00 C633.23,525.00 633.00,534.67 633.00,546.50 C633.00,558.33 633.35,568.00 633.78,568.00 C634.22,568.00 635.37,566.65 636.34,565.00 C638.38,561.56 640.77,561.19 643.85,563.87 C646.58,566.24 646.76,572.00 644.17,574.35 ZM 861.60 573.17 C858.24,575.61 856.78,576.00 851.10,575.98 C844.05,575.95 839.39,574.28 836.32,570.68 C834.62,568.68 834.62,568.63 836.29,569.92 C839.16,572.15 840.36,570.04 839.03,565.13 C837.97,561.16 836.00,559.43 836.00,562.46 C836.00,563.27 835.10,564.41 834.00,565.00 C832.31,565.91 831.81,565.69 830.86,563.60 C829.38,560.34 830.24,558.38 833.42,557.77 C835.40,557.39 836.88,558.09 839.66,560.71 C842.79,563.67 843.84,564.09 847.13,563.71 C849.23,563.47 850.71,563.66 850.42,564.13 C850.12,564.61 848.22,565.03 846.19,565.06 C842.71,565.12 842.64,565.18 845.00,566.13 C846.38,566.68 849.30,567.15 851.50,567.17 C853.70,567.20 856.40,567.73 857.50,568.34 C860.37,569.95 863.18,569.96 864.77,568.37 C865.53,567.62 866.62,567.00 867.19,567.00 C868.73,567.00 866.11,569.89 861.60,573.17 ZM 899.00 401.99 C899.00,410.66 898.62,416.00 898.00,416.00 C897.40,416.00 897.00,411.94 897.00,405.83 C897.00,400.24 896.71,395.95 896.36,396.30 C896.01,396.65 894.48,396.05 892.96,394.97 C888.34,391.68 887.14,392.32 886.80,398.25 C886.51,403.32 886.46,403.21 885.37,395.00 C884.75,390.33 883.77,385.03 883.19,383.23 C882.59,381.38 882.53,380.21 883.06,380.54 C883.58,380.86 884.00,380.59 884.00,379.94 C884.00,379.05 884.37,379.06 885.48,379.98 C886.69,380.98 887.53,380.73 890.06,378.61 C891.76,377.17 893.55,376.00 894.04,376.00 C894.52,376.00 895.43,377.91 896.05,380.25 C896.68,382.59 897.60,385.28 898.09,386.24 C898.59,387.19 899.00,394.28 899.00,401.99 ZM 885.70 441.40 C884.71,441.09 883.33,441.31 882.62,441.90 C881.67,442.69 880.80,442.22 879.17,440.02 C877.98,438.40 877.00,436.59 877.00,435.98 C877.00,435.38 876.54,435.17 875.98,435.51 C875.00,436.12 878.89,427.05 880.06,426.00 C880.36,425.73 881.20,423.92 881.91,422.00 C882.62,420.08 883.59,417.60 884.07,416.50 C884.54,415.40 885.11,413.38 885.34,412.00 C885.57,410.62 885.64,411.43 885.49,413.80 C885.34,416.43 885.76,418.56 886.58,419.30 C887.32,419.96 888.62,421.08 889.47,421.79 C890.31,422.50 891.01,424.52 891.02,426.29 C891.02,428.06 891.41,430.09 891.87,430.82 C892.39,431.65 891.74,433.97 890.10,437.05 C888.11,440.82 887.08,441.83 885.70,441.40 ZM 523.67 376.00 C523.33,377.38 522.44,381.20 521.69,384.50 L 520.33 390.50 L 519.58 386.50 C519.17,384.30 518.24,381.15 517.50,379.50 C516.77,377.85 515.65,374.70 515.02,372.50 C514.38,370.30 513.48,367.60 513.01,366.50 C512.54,365.40 511.88,363.24 511.55,361.70 C510.99,359.15 511.12,358.99 512.90,359.95 C517.01,362.15 523.00,360.93 523.00,357.89 C523.00,356.85 523.45,356.00 524.00,356.00 C524.55,356.00 525.00,357.01 525.01,358.25 C525.01,359.49 525.68,361.79 526.51,363.36 C528.42,367.03 528.39,367.64 526.14,370.85 C525.12,372.31 524.01,374.62 523.67,376.00 ZM 705.00 532.00 C705.00,532.55 703.31,533.00 701.24,533.00 C698.05,533.00 697.29,532.56 696.18,530.05 C694.55,526.37 695.66,523.99 700.36,521.09 C703.39,519.21 704.81,519.05 714.08,519.51 C719.77,519.80 724.76,520.36 725.17,520.77 C727.01,522.61 720.99,526.00 715.89,526.00 C714.14,526.00 713.14,526.42 713.50,527.00 C713.85,527.57 713.01,528.00 711.56,528.00 C709.95,528.00 709.00,528.56 709.00,529.50 C709.00,530.33 708.11,531.00 707.00,531.00 C705.90,531.00 705.00,531.45 705.00,532.00 ZM 544.79 574.43 C542.27,576.20 535.61,576.40 532.30,574.80 C531.09,574.22 529.47,572.34 528.70,570.62 C524.36,560.96 524.15,558.00 527.81,558.00 C530.00,558.00 532.00,561.84 532.00,566.05 C532.00,569.04 534.17,570.16 535.57,567.89 C535.99,567.20 537.73,567.02 540.15,567.41 C543.92,568.01 544.03,567.95 543.41,565.52 C542.91,563.50 543.15,563.01 544.64,563.03 C545.66,563.05 547.29,563.66 548.26,564.40 C549.86,565.62 549.89,566.03 548.52,569.30 C547.70,571.26 546.02,573.57 544.79,574.43 ZM 532.27 415.24 C531.72,415.93 531.07,417.13 530.83,417.91 C530.40,419.29 528.62,415.04 525.80,405.92 C524.37,401.27 524.46,398.55 526.04,399.52 C526.51,399.82 527.41,399.10 528.03,397.94 C529.37,395.44 530.22,396.00 530.61,399.66 C531.07,403.98 532.98,405.24 536.38,403.48 C537.95,402.67 539.33,402.00 539.46,402.00 C540.08,402.00 542.06,413.09 541.58,413.87 C540.65,415.38 535.90,416.16 534.54,415.03 C533.63,414.28 532.98,414.34 532.27,415.24 ZM 853.41 528.50 C849.39,531.57 848.74,531.60 847.49,528.75 C846.81,527.21 845.48,526.40 843.25,526.19 C841.46,526.01 840.00,525.48 840.00,525.00 C840.00,524.53 839.01,523.82 837.80,523.44 L 835.60 522.74 L 837.99 520.81 C839.68,519.44 841.12,519.08 842.94,519.57 C846.38,520.50 853.90,520.12 856.17,518.91 C857.37,518.27 858.64,518.27 859.84,518.91 C862.48,520.33 868.40,526.00 867.23,526.00 C866.69,526.00 865.69,525.33 865.02,524.52 C863.93,523.21 863.54,523.21 861.67,524.52 C860.51,525.33 858.91,526.00 858.12,526.00 C857.33,526.00 855.21,527.12 853.41,528.50 ZM 741.00 545.89 C741.00,554.14 740.60,561.13 740.11,561.43 C737.85,562.83 736.67,558.54 736.56,548.53 C736.47,540.22 736.11,537.78 734.73,536.25 C732.47,533.75 732.48,528.11 734.75,526.39 C737.26,524.49 737.77,524.65 739.47,527.95 C740.64,530.21 741.00,534.41 741.00,545.89 ZM 662.00 530.03 C662.00,531.09 653.72,531.39 652.69,530.36 C652.34,530.01 652.38,529.22 652.78,528.61 C653.17,528.00 653.50,526.38 653.50,525.00 C653.50,522.63 653.83,522.48 659.75,522.20 C663.19,522.04 666.00,521.52 666.00,521.05 C666.00,520.58 667.38,519.71 669.07,519.12 C671.52,518.27 672.64,518.37 674.55,519.62 C676.85,521.13 676.89,521.32 675.40,524.20 C674.06,526.79 673.41,527.14 670.67,526.72 C667.41,526.23 662.00,528.29 662.00,530.03 ZM 584.92 398.50 C584.14,398.50 583.28,399.24 583.00,400.15 C582.55,401.65 582.12,401.62 578.28,399.80 C575.96,398.71 574.16,397.29 574.28,396.65 C574.40,396.02 573.95,395.61 573.27,395.74 C572.40,395.92 572.53,394.96 573.69,392.52 C574.97,389.83 575.65,389.29 576.66,390.14 C577.65,390.96 578.15,390.77 578.68,389.36 C579.07,388.34 580.43,386.68 581.71,385.67 C582.98,384.66 583.76,383.43 583.45,382.92 C583.14,382.41 583.36,382.00 583.94,382.00 C584.52,382.00 585.00,383.33 585.00,384.96 C585.00,387.02 585.69,388.30 587.25,389.13 C588.49,389.80 589.61,390.26 589.75,390.17 C591.03,389.30 590.67,390.69 588.69,394.25 C587.39,396.59 585.69,398.50 584.92,398.50 ZM 896.73 333.82 C893.81,338.57 890.40,341.72 891.62,338.54 C891.94,337.72 891.22,336.89 889.82,336.45 C888.55,336.05 886.43,334.89 885.13,333.88 C883.83,332.86 882.31,332.31 881.75,332.65 C881.19,333.00 881.92,331.54 883.37,329.41 C884.82,327.28 886.00,324.97 886.00,324.27 C886.00,323.57 886.48,323.00 887.06,323.00 C887.64,323.00 887.87,323.40 887.56,323.90 C887.26,324.39 887.72,325.06 888.59,325.40 C891.34,326.45 894.04,326.05 894.64,324.50 C895.51,322.23 896.79,322.69 898.42,325.84 C899.81,328.52 899.71,328.98 896.73,333.82 ZM 818.62 295.27 C817.23,296.77 815.29,297.99 814.30,297.98 C812.75,297.97 812.71,297.82 814.00,296.91 C815.14,296.11 814.65,295.97 812.00,296.31 C808.02,296.82 803.00,294.68 803.00,292.47 C803.00,290.45 807.07,286.51 807.87,287.76 C808.22,288.31 811.73,288.94 815.67,289.16 C819.62,289.38 822.69,289.31 822.50,289.00 C822.31,288.69 822.98,287.35 823.98,286.02 C825.58,283.90 826.02,283.77 827.49,284.99 C828.80,286.08 829.57,286.13 831.03,285.21 C832.06,284.57 833.13,284.40 833.40,284.84 C833.67,285.28 831.39,287.08 828.32,288.84 C824.21,291.20 822.41,291.76 821.47,290.97 C820.66,290.30 819.96,290.26 819.58,290.87 C819.26,291.40 819.47,291.99 820.07,292.19 C820.66,292.39 820.01,293.78 818.62,295.27 ZM 869.02 461.46 C866.53,463.27 863.38,465.02 862.00,465.36 C860.62,465.70 860.06,465.72 860.75,465.41 C862.62,464.55 862.26,463.00 860.19,463.00 C859.20,463.00 856.93,461.92 855.14,460.61 C853.16,459.14 851.05,458.40 849.70,458.69 L 847.50 459.17 L 849.74 457.83 C850.96,457.10 854.25,455.04 857.04,453.26 C859.83,451.47 861.83,450.46 861.50,451.01 C861.16,451.55 861.39,452.00 862.00,452.00 C862.61,452.00 862.88,452.38 862.59,452.85 C861.63,454.40 864.45,456.85 867.52,457.15 C869.19,457.30 871.64,456.66 873.00,455.72 C874.34,454.77 875.86,454.00 876.38,454.00 C877.80,454.00 874.06,457.79 869.02,461.46 ZM 835.12 537.29 C834.03,539.23 832.95,542.55 832.73,544.66 L 832.34 548.50 L 832.17 544.25 C832.08,541.91 831.75,540.00 831.45,540.00 C830.23,540.00 825.27,542.97 824.07,544.41 C823.08,545.61 822.34,545.72 820.77,544.87 C819.01,543.93 818.81,543.10 819.28,538.57 C819.58,535.70 820.73,531.84 821.85,530.01 L 823.88 526.67 L 824.52 529.24 C824.88,530.65 826.29,532.87 827.67,534.16 C830.04,536.39 830.22,536.41 831.48,534.69 C832.27,533.61 833.06,533.29 833.44,533.90 C833.78,534.46 834.75,534.65 835.59,534.33 C836.80,533.86 836.70,534.47 835.12,537.29 ZM 519.05 532.79 C516.72,532.45 516.03,532.77 515.80,534.27 C515.61,535.45 514.61,533.91 513.16,530.24 C510.20,522.73 510.53,519.91 514.50,518.79 C518.08,517.79 523.43,518.57 524.74,520.28 C525.26,520.95 525.35,522.62 524.94,524.00 L 524.20 526.50 L 523.98 524.00 C523.80,521.90 523.69,521.82 523.27,523.48 C522.99,524.56 522.08,525.96 521.23,526.57 C520.14,527.37 520.03,527.90 520.85,528.41 C521.48,528.80 522.00,530.04 522.00,531.17 C522.00,532.88 521.50,533.15 519.05,532.79 ZM 604.88 552.75 C604.79,550.93 604.62,551.07 604.00,553.50 L 603.24 556.50 L 603.12 553.38 C603.02,550.71 602.54,550.16 599.88,549.62 C598.16,549.28 594.57,549.00 591.91,549.00 C588.01,549.00 587.18,548.71 587.64,547.50 C587.98,546.60 589.49,546.00 591.42,546.00 C593.18,546.00 595.49,545.34 596.56,544.53 C597.63,543.72 599.51,543.05 600.75,543.03 C602.65,543.00 603.00,542.45 603.00,539.46 C603.00,536.25 603.18,536.03 604.99,536.99 C607.41,538.29 608.63,542.53 607.10,544.37 C606.27,545.38 606.38,546.65 607.52,549.40 C608.37,551.43 608.80,553.52 608.47,554.04 C607.36,555.85 605.00,555.00 604.88,552.75 ZM 555.10 551.49 C552.90,557.28 552.38,557.67 551.66,554.06 C551.24,551.95 550.32,550.87 548.57,550.43 C547.20,550.08 545.51,549.11 544.81,548.27 C543.69,546.92 543.44,547.03 542.79,549.12 C542.34,550.55 542.27,549.90 542.61,547.50 C542.92,545.30 544.06,541.70 545.15,539.50 C546.23,537.30 546.93,536.41 546.71,537.53 C546.36,539.29 546.73,539.51 549.50,539.19 C552.39,538.85 552.90,539.21 554.74,542.94 C556.70,546.90 556.72,547.24 555.10,551.49 ZM 830.12 574.93 C827.35,576.42 823.91,576.18 821.25,574.33 C818.52,572.42 818.46,570.95 820.84,564.21 C822.73,558.83 824.00,556.71 824.00,558.93 C824.00,561.53 827.29,567.00 828.86,567.03 C829.76,567.05 831.23,567.62 832.11,568.29 C834.10,569.81 833.04,573.38 830.12,574.93 ZM 854.50 278.00 C853.06,280.33 848.00,278.60 848.00,275.78 C848.00,273.13 843.09,268.52 840.50,268.73 C839.40,268.82 840.15,268.36 842.17,267.70 C844.19,267.04 846.17,266.16 846.58,265.75 C847.00,265.34 848.66,265.00 850.28,265.00 C853.09,265.00 853.19,265.15 852.57,268.46 C851.99,271.57 852.22,272.06 854.91,273.46 C856.56,274.30 860.37,275.00 863.39,275.00 C866.41,275.00 869.16,275.45 869.50,276.00 C869.89,276.63 867.36,277.00 862.62,277.00 C858.49,277.00 854.84,277.45 854.50,278.00 ZM 521.74 548.83 C521.52,551.67 521.18,551.57 519.87,548.25 C519.27,546.74 518.38,544.71 517.88,543.75 C517.21,542.43 517.61,541.46 519.49,539.82 C520.87,538.62 522.00,536.85 522.00,535.88 C522.00,534.91 522.34,533.91 522.75,533.66 C524.02,532.89 531.00,536.13 531.00,537.49 C531.00,538.20 531.67,540.06 532.49,541.64 C534.60,545.67 534.38,546.75 531.42,546.75 C529.70,546.75 528.49,545.98 527.79,544.43 C527.20,543.15 526.16,541.89 525.46,541.62 C524.11,541.10 522.01,545.16 521.74,548.83 ZM 580.07 562.00 C579.56,562.00 578.99,562.79 578.79,563.75 C578.49,565.21 578.14,565.06 576.67,562.86 C575.37,560.90 574.34,560.36 572.70,560.77 C571.49,561.07 570.17,561.81 569.77,562.41 C568.49,564.30 568.94,552.53 570.25,549.71 C571.68,546.63 573.00,546.17 573.00,548.75 C573.00,549.94 573.86,550.55 575.70,550.66 C577.18,550.74 578.98,551.62 579.69,552.60 C581.18,554.63 581.48,562.00 580.07,562.00 ZM 895.81 285.55 C889.69,291.20 889.68,291.20 887.23,287.63 C886.00,285.84 884.11,283.42 883.02,282.25 C881.04,280.13 881.04,280.13 883.27,280.24 C884.50,280.30 886.28,281.01 887.23,281.81 C888.68,283.03 889.23,283.06 890.56,281.95 C891.44,281.22 891.98,279.67 891.76,278.51 C891.53,277.35 891.96,275.82 892.71,275.13 C893.82,274.09 894.60,274.44 897.03,277.04 C898.66,278.78 900.00,280.61 900.00,281.11 L 900.00 282.50 C900.00,282.77 899.80,282.89 899.56,282.75 C899.31,282.61 897.62,283.87 895.81,285.55 ZM 898.08 508.34 C896.42,510.16 894.64,511.00 892.46,511.00 C888.86,511.00 884.00,507.69 884.00,505.23 C884.00,503.99 884.28,503.88 885.16,504.76 C886.05,505.65 886.65,505.31 887.66,503.35 C889.25,500.29 889.39,498.00 888.00,498.00 C887.45,498.00 887.00,498.38 887.00,498.83 C887.00,499.29 886.33,499.67 885.50,499.67 C883.66,499.67 883.54,497.63 885.28,496.18 C886.10,495.50 887.10,495.45 888.03,496.04 C888.84,496.55 890.51,496.98 891.75,496.98 C894.22,497.00 894.85,499.75 892.85,501.75 C891.98,502.62 892.35,503.20 894.35,504.11 C895.81,504.78 897.00,505.68 897.00,506.13 C897.00,506.57 897.79,506.65 898.75,506.31 C900.08,505.83 899.91,506.33 898.08,508.34 ZM 743.78 574.44 C738.68,578.01 727.98,574.10 728.02,568.68 C728.02,567.48 728.36,566.95 728.77,567.50 C729.92,569.07 733.17,569.06 737.20,567.49 C740.48,566.22 741.09,566.23 742.45,567.60 C743.85,568.99 744.00,568.94 744.00,567.07 C744.00,565.93 744.45,565.00 745.00,565.00 C745.55,565.00 746.00,566.77 746.00,568.94 C746.00,571.88 745.44,573.28 743.78,574.44 ZM 787.90 524.48 C785.04,524.04 782.50,524.20 781.19,524.90 C779.46,525.82 778.75,525.65 777.12,523.90 C775.91,522.60 774.64,522.08 773.83,522.55 C773.05,523.00 772.84,522.94 773.33,522.41 C773.79,521.91 775.14,521.43 776.33,521.35 C784.38,520.79 791.01,520.11 794.13,519.51 C797.28,518.91 798.10,519.19 800.38,521.65 C801.82,523.21 803.00,524.80 803.00,525.20 C803.00,525.99 795.29,525.62 787.90,524.48 ZM 564.92 524.89 C563.28,530.34 561.44,531.90 560.60,528.54 C559.89,525.70 556.47,524.41 552.38,525.44 C549.92,526.06 549.80,525.93 550.43,523.30 C551.47,519.00 553.76,517.75 559.42,518.39 C565.81,519.11 566.43,519.84 564.92,524.89 ZM 564.96 431.58 C562.46,436.15 560.36,437.58 561.53,433.91 C562.57,430.63 561.16,425.36 558.57,422.87 C556.61,420.98 556.37,420.16 557.17,418.05 C558.39,414.85 561.02,411.89 562.07,412.54 C562.51,412.81 563.39,415.61 564.04,418.77 C564.69,421.92 565.70,425.10 566.30,425.83 C567.09,426.81 566.75,428.30 564.96,431.58 ZM 889.42 372.80 C889.54,375.17 889.27,377.33 888.82,377.61 C888.37,377.89 888.00,377.75 888.00,377.31 C888.00,376.86 886.60,376.45 884.89,376.39 C883.19,376.33 881.39,375.65 880.91,374.89 C880.43,374.12 880.02,373.92 880.02,374.43 C880.01,374.94 878.69,373.60 877.10,371.46 L 874.19 367.57 L 876.25 365.78 C879.72,362.78 881.84,363.47 882.19,367.74 C882.41,370.36 883.03,371.58 884.25,371.82 C885.32,372.02 886.00,371.53 886.00,370.57 C886.00,369.71 886.50,369.00 887.12,369.00 C887.77,369.00 888.03,367.95 887.75,366.46 C887.28,364.03 887.34,364.00 889.16,365.64 C890.20,366.58 890.63,367.61 890.13,367.93 C889.63,368.24 889.31,370.44 889.42,372.80 ZM 621.00 354.00 C622.33,354.86 622.33,354.97 621.00,354.96 C620.17,354.96 618.22,353.39 616.65,351.48 C614.73,349.14 612.94,348.00 611.20,348.00 C608.72,348.00 608.69,347.94 610.56,346.53 C612.78,344.85 618.58,344.51 619.50,346.00 C619.84,346.55 621.42,347.00 623.00,347.00 C624.66,347.00 626.44,347.78 627.19,348.84 C627.91,349.86 629.17,350.93 630.00,351.23 C631.18,351.65 631.08,351.91 629.50,352.46 C628.40,352.84 626.73,353.55 625.80,354.05 C624.74,354.61 623.86,354.58 623.49,353.98 C623.15,353.44 622.12,353.01 621.19,353.02 C619.73,353.03 619.71,353.16 621.00,354.00 ZM 869.76 348.82 C867.87,348.75 864.50,349.77 861.96,351.19 C858.50,353.12 856.99,353.47 855.32,352.73 C853.19,351.78 853.20,351.74 856.16,348.84 C857.80,347.24 860.47,345.66 862.08,345.33 C863.68,345.01 865.00,344.43 865.00,344.03 C865.00,342.93 871.99,343.59 873.20,344.80 C875.16,346.76 873.28,348.95 869.76,348.82 ZM 738.50 411.75 C737.46,416.91 735.00,415.22 735.00,409.35 C735.00,407.99 734.53,405.99 733.96,404.92 C733.38,403.85 733.20,401.43 733.56,399.56 C734.35,395.32 736.46,395.78 738.49,400.62 C739.65,403.41 740.43,404.00 742.95,404.00 C746.08,404.00 746.75,405.27 745.04,407.97 C744.26,409.20 743.80,409.07 742.14,407.16 C739.95,404.64 739.92,404.69 738.50,411.75 ZM 865.01 553.99 C863.81,556.22 863.17,556.40 861.05,555.05 C860.25,554.55 859.24,554.35 858.80,554.62 C858.36,554.90 858.08,551.38 858.17,546.81 L 858.35 538.50 L 859.65 551.50 L 859.83 545.75 C859.98,540.74 860.26,540.00 861.98,540.00 C863.23,540.00 864.13,540.83 864.42,542.25 C865.82,549.06 865.97,552.18 865.01,553.99 ZM 619.07 574.96 C615.66,576.79 611.57,576.12 608.05,573.19 L 604.68 570.37 L 610.09 570.15 C613.79,569.99 615.93,569.38 616.86,568.21 C617.86,566.97 618.36,566.84 618.70,567.76 C618.96,568.45 619.58,568.76 620.09,568.45 C620.59,568.14 621.00,569.24 621.00,570.91 C621.00,572.87 620.32,574.29 619.07,574.96 ZM 727.31 431.00 C727.65,435.67 727.60,443.55 727.18,448.50 C726.52,456.53 726.35,457.07 725.67,453.50 C724.04,444.91 723.88,434.46 725.28,428.50 L 726.69 422.50 ZM 519.62 341.86 C520.03,343.89 519.85,345.00 519.12,345.00 C518.51,345.00 518.00,344.33 518.00,343.50 C518.00,341.77 514.91,341.49 513.33,343.07 C512.58,343.82 511.44,343.42 509.42,341.68 C506.96,339.57 506.75,339.01 507.90,337.61 C509.51,335.67 514.82,335.55 517.25,337.39 C518.21,338.12 519.28,340.13 519.62,341.86 ZM 826.69 500.82 C824.60,502.02 822.80,502.99 822.69,502.97 C821.09,502.72 819.00,500.47 819.00,499.01 C819.00,496.21 822.88,493.98 827.47,494.14 L 831.50 494.28 L 827.50 495.00 C824.78,495.49 824.30,495.77 826.00,495.87 C828.57,496.03 831.81,497.60 830.97,498.26 C830.71,498.47 828.79,499.62 826.69,500.82 ZM 825.08 518.29 C824.51,519.78 823.89,521.00 823.70,521.00 C823.51,521.00 822.34,519.93 821.11,518.61 C819.42,516.81 818.94,515.28 819.18,512.36 C819.46,509.02 819.86,508.46 822.15,508.19 C824.53,507.92 824.87,508.29 825.46,511.74 C825.81,513.86 825.64,516.81 825.08,518.29 ZM 730.43 533.22 C730.18,538.36 727.55,539.77 726.56,535.31 C726.21,533.76 724.50,531.50 722.76,530.27 L 719.60 528.05 L 723.05 528.15 C730.38,528.38 730.65,528.56 730.43,533.22 ZM 873.16 552.75 C872.99,557.27 871.52,558.50 870.76,554.75 C870.12,551.59 870.58,538.09 871.36,537.31 C871.71,536.96 872.18,536.85 872.39,537.08 C872.90,537.62 873.37,547.21 873.16,552.75 ZM 905.78 306.58 C905.53,309.60 904.81,312.59 904.16,313.24 C903.28,314.12 903.00,311.96 903.00,304.20 C903.00,298.39 903.41,294.00 903.95,294.00 C905.38,294.00 906.30,300.35 905.78,306.58 ZM 642.70 541.44 C641.03,543.11 637.55,544.21 636.68,543.34 C636.30,542.97 636.00,541.61 636.00,540.31 C636.00,537.82 640.09,535.44 642.67,536.43 C644.37,537.08 644.38,539.76 642.70,541.44 ZM 556.86 444.85 C555.32,447.32 554.64,447.49 553.24,445.75 C550.33,442.10 551.21,436.00 554.65,436.00 C555.80,436.00 556.10,436.69 555.75,438.53 C555.45,440.12 555.81,441.35 556.74,441.87 C557.99,442.57 558.00,443.02 556.86,444.85 ZM 571.56 421.25 C570.34,424.01 568.31,423.30 567.62,419.88 C566.81,415.80 566.85,414.78 567.91,413.12 C568.65,411.94 569.07,411.94 570.70,413.12 C572.64,414.52 573.01,417.99 571.56,421.25 ZM 753.59 383.48 C750.25,386.61 746.60,383.44 749.87,380.26 C750.87,379.29 751.97,377.70 752.32,376.73 C752.93,375.03 753.03,375.03 754.82,376.73 C756.72,378.53 756.28,380.97 753.59,383.48 ZM 886.38 543.47 C885.40,551.60 884.95,547.96 885.22,534.03 C885.45,522.27 885.77,519.59 887.00,519.26 C887.90,519.01 888.10,519.18 887.50,519.67 C885.98,520.93 885.77,522.98 886.54,529.00 C887.08,533.19 887.44,534.02 888.05,532.50 C888.70,530.91 888.87,531.21 888.91,534.00 C888.96,536.61 888.72,537.12 888.00,536.00 C887.23,534.81 887.01,535.01 886.94,537.00 C886.90,538.38 886.64,541.29 886.38,543.47 ZM 894.94 306.69 C893.80,306.40 892.94,306.83 892.67,307.86 C892.43,308.76 892.23,306.80 892.23,303.50 C892.23,300.20 892.43,298.24 892.67,299.14 C892.95,300.19 893.79,300.61 895.01,300.29 C896.42,299.92 897.08,300.45 897.55,302.34 C898.36,305.56 897.31,307.31 894.94,306.69 ZM 551.23 452.23 C548.75,454.37 545.25,455.00 544.02,453.52 C543.24,452.58 543.61,451.83 545.45,450.63 C549.87,447.73 554.84,449.10 551.23,452.23 ZM 582.68 545.40 C581.87,547.51 576.15,547.55 575.35,545.46 C574.59,543.50 575.20,542.91 578.34,542.57 C581.62,542.21 583.45,543.40 582.68,545.40 ZM 871.00 357.89 C871.00,360.71 868.73,361.06 865.16,358.81 C863.42,357.71 862.00,356.62 862.00,356.40 C862.00,356.18 864.03,356.00 866.50,356.00 C870.25,356.00 871.00,356.32 871.00,357.89 ZM 882.19 351.61 C880.24,354.30 879.00,354.65 879.00,352.50 C879.00,351.67 878.59,351.00 878.09,351.00 C877.07,351.00 877.22,348.44 878.31,347.36 C878.69,346.98 880.10,347.25 881.44,347.97 C883.80,349.23 883.82,349.36 882.19,351.61 ZM 595.00 373.15 C595.00,375.86 593.10,375.41 591.98,372.43 C591.44,371.02 591.00,369.49 591.00,369.02 C591.00,368.55 590.50,368.00 589.89,367.80 C589.18,367.56 589.33,366.97 590.30,366.17 C591.57,365.11 592.06,365.42 593.41,368.11 C594.28,369.87 595.00,372.14 595.00,373.15 ZM 739.56 424.95 C738.77,425.61 737.96,427.35 737.77,428.82 C737.54,430.62 737.27,429.95 736.95,426.77 C736.38,420.91 736.66,420.00 739.08,420.00 C741.38,420.00 741.69,423.19 739.56,424.95 ZM 739.29 459.70 C735.43,461.70 733.70,461.43 734.99,459.02 C736.68,455.86 739.71,454.65 740.85,456.69 C741.59,458.02 741.25,458.68 739.29,459.70 ZM 744.46 377.62 C743.73,377.34 742.92,377.87 742.68,378.81 C742.27,380.35 742.22,380.34 742.12,378.75 C742.05,377.78 742.84,375.42 743.87,373.49 L 745.75 370.00 L 746.37 373.10 C747.09,376.68 746.38,378.36 744.46,377.62 ZM 609.47 354.04 C608.60,355.46 607.50,355.22 605.65,353.17 C603.55,350.84 603.58,350.34 605.84,349.75 C607.83,349.23 610.50,352.38 609.47,354.04 ZM 833.00 468.50 C833.68,469.33 835.54,470.00 837.12,470.00 C839.01,470.00 840.00,469.49 840.00,468.50 C840.00,467.41 838.88,467.00 835.88,467.00 C832.33,467.00 831.93,467.21 833.00,468.50 ZM 761.00 359.19 C761.00,361.49 760.95,361.48 758.20,358.34 C756.50,356.40 756.19,355.42 757.01,354.60 C758.35,353.28 761.00,356.33 761.00,359.19 ZM 732.31 522.62 C731.69,524.25 731.03,524.32 729.00,522.98 C727.75,522.17 727.73,521.85 728.86,521.12 C730.01,520.38 730.01,520.16 728.86,519.70 C727.82,519.29 727.86,519.14 729.05,519.08 C731.15,518.97 732.96,520.93 732.31,522.62 ZM 532.80 383.00 C532.66,384.84 532.62,385.70 532.31,385.81 C532.04,385.90 531.58,385.44 530.71,384.57 L 530.54 384.39 C529.30,383.15 529.19,382.47 530.09,381.39 C531.96,379.14 533.05,379.78 532.80,383.00 ZM 531.61 410.41 C531.94,411.29 532.59,412.00 533.05,412.00 C534.66,412.00 535.08,410.02 533.93,407.86 C532.92,405.98 532.64,405.90 531.88,407.25 C531.39,408.12 531.27,409.54 531.61,410.41 ZM 794.25 314.96 L 796.99 316.67 L 793.95 316.67 C790.77,316.67 789.16,315.39 790.64,314.04 C791.11,313.60 792.74,314.02 794.25,314.96 ZM 845.50 337.00 C847.00,337.64 846.30,337.88 842.69,337.93 C839.72,337.97 838.12,337.62 838.50,337.00 C839.24,335.81 842.72,335.81 845.50,337.00 ZM 852.00 351.11 C852.00,352.47 849.61,352.17 847.44,350.53 C845.77,349.27 845.73,349.06 847.17,349.03 C849.52,348.99 852.00,350.05 852.00,351.11 ZM 897.73 419.00 C897.90,421.35 895.48,421.70 894.62,419.45 C894.28,418.56 894.44,418.16 895.01,418.51 C895.56,418.84 896.00,418.64 896.00,418.06 C896.00,416.11 897.57,416.97 897.73,419.00 ZM 871.02 451.01 C872.16,451.72 872.22,452.18 871.27,453.13 C870.33,454.07 869.92,453.96 869.41,452.62 C868.57,450.45 869.16,449.86 871.02,451.01 ZM 727.00 561.00 C727.00,561.55 726.33,562.00 725.50,562.00 C724.67,562.00 724.00,561.55 724.00,561.00 C724.00,560.45 724.67,560.00 725.50,560.00 C726.33,560.00 727.00,560.45 727.00,561.00 ZM 558.00 544.56 C558.00,544.80 557.55,545.00 557.00,545.00 C556.45,545.00 556.00,544.52 556.00,543.94 C556.00,543.36 556.45,543.16 557.00,543.50 C557.55,543.84 558.00,544.32 558.00,544.56 ZM 701.81 543.32 C701.01,543.64 701.25,543.87 702.42,543.92 C703.47,543.96 704.06,543.73 703.73,543.40 C703.40,543.06 702.53,543.03 701.81,543.32 Z" fill="rgb(22,51,26)"/>
<path d="M 818.62 295.27 C820.01,293.78 820.66,292.39 820.07,292.19 C819.47,291.99 819.26,291.40 819.58,290.87 C819.96,290.26 820.66,290.30 821.47,290.97 C822.24,291.62 823.59,291.36 826.33,289.94 C824.04,291.34 822.33,292.49 822.00,292.93 C821.72,293.30 819.73,294.93 817.57,296.55 C808.85,303.08 784.00,330.36 784.00,333.39 C784.00,335.44 791.76,335.98 821.55,335.99 C828.51,335.99 834.97,336.08 839.93,336.22 C839.25,336.36 838.74,336.62 838.50,337.00 C838.12,337.62 839.72,337.97 842.69,337.93 C846.30,337.88 847.00,337.64 845.50,337.00 C844.82,336.71 844.10,336.49 843.39,336.34 C847.05,336.49 849.33,336.67 849.55,336.87 C850.07,337.34 853.54,338.53 857.25,339.51 C860.96,340.49 864.00,341.65 864.00,342.08 C864.00,342.50 864.79,343.06 865.75,343.31 C865.98,343.37 866.22,343.43 866.47,343.49 C865.60,343.54 865.00,343.71 865.00,344.03 C865.00,344.43 863.68,345.01 862.08,345.33 C860.47,345.66 857.80,347.24 856.16,348.84 C853.20,351.74 853.19,351.78 855.32,352.73 C856.99,353.47 858.50,353.12 861.96,351.19 C864.50,349.77 867.87,348.75 869.76,348.82 C873.28,348.95 875.16,346.76 873.20,344.80 C872.65,344.25 870.89,343.81 869.15,343.60 C870.43,342.80 873.26,340.35 876.23,337.43 C880.64,333.11 883.23,329.74 885.94,324.62 C885.69,325.57 884.63,327.56 883.37,329.41 C881.92,331.54 881.19,333.00 881.75,332.65 C882.31,332.31 883.83,332.86 885.13,333.88 C886.43,334.89 888.55,336.05 889.82,336.45 C891.22,336.89 891.94,337.72 891.62,338.54 C890.88,340.48 891.86,340.06 893.41,338.35 C890.33,342.60 886.97,346.78 884.40,349.27 L 882.65 350.97 C883.79,349.32 883.55,349.10 881.44,347.97 C880.10,347.25 878.69,346.98 878.31,347.36 C877.22,348.44 877.07,351.00 878.09,351.00 C878.59,351.00 879.00,351.67 879.00,352.50 C879.00,354.17 879.75,354.33 881.00,353.06 L 886.40 360.77 C889.48,365.16 892.00,369.46 892.00,370.32 C892.00,371.18 892.43,372.15 892.96,372.48 C893.47,372.79 894.57,375.41 895.47,378.39 C894.95,376.98 894.38,376.00 894.04,376.00 C893.55,376.00 891.76,377.17 890.06,378.61 C887.53,380.73 886.69,380.98 885.48,379.98 C884.37,379.06 884.00,379.05 884.00,379.94 C884.00,380.59 883.58,380.86 883.06,380.54 C882.64,380.27 882.59,380.99 882.90,382.25 C882.54,381.45 882.16,381.00 881.78,381.00 C881.35,381.00 881.00,380.32 881.00,379.49 C881.00,377.83 879.89,375.42 878.10,372.75 C879.21,374.10 880.01,374.83 880.02,374.43 C880.02,373.92 880.43,374.12 880.91,374.89 C881.39,375.65 883.19,376.33 884.89,376.39 C886.60,376.45 888.00,376.86 888.00,377.31 C888.00,377.75 888.37,377.89 888.82,377.61 C889.27,377.33 889.54,375.17 889.42,372.80 C889.31,370.44 889.63,368.24 890.13,367.93 C890.63,367.61 890.20,366.58 889.16,365.64 C887.34,364.00 887.28,364.03 887.75,366.46 C888.03,367.95 887.77,369.00 887.12,369.00 C886.50,369.00 886.00,369.71 886.00,370.57 C886.00,371.53 885.32,372.02 884.25,371.82 C883.03,371.58 882.41,370.36 882.19,367.74 C881.84,363.47 879.72,362.78 876.25,365.78 L 874.19 367.57 L 875.03 368.69 C870.62,363.41 864.55,358.01 859.57,355.55 C856.25,353.91 853.90,352.76 851.19,351.95 C851.69,351.87 852.00,351.60 852.00,351.11 C852.00,350.05 849.52,348.99 847.17,349.03 C845.73,349.06 845.77,349.27 847.44,350.53 C847.85,350.84 848.27,351.11 848.68,351.32 C842.43,350.04 833.00,350.02 808.70,350.01 L 771.90 350.00 L 770.54 353.25 C769.79,355.04 768.21,357.74 767.02,359.25 C765.83,360.76 765.14,362.00 765.50,362.00 C765.85,362.00 765.28,363.24 764.23,364.75 C762.40,367.39 754.60,383.19 751.02,391.50 C750.07,393.70 748.23,398.88 746.93,403.00 C745.63,407.12 744.25,410.96 743.86,411.51 C743.36,412.22 742.03,416.82 740.90,421.39 C740.68,420.58 740.06,420.00 739.08,420.00 C736.66,420.00 736.38,420.91 736.95,426.77 C737.27,429.95 737.54,430.62 737.77,428.82 C737.96,427.35 738.77,425.61 739.56,424.95 C739.81,424.74 740.03,424.51 740.22,424.26 C739.83,425.97 739.51,427.55 739.31,428.76 C739.02,430.55 738.38,432.27 737.89,432.57 C736.72,433.29 736.74,447.53 737.92,449.76 C738.42,450.72 739.35,452.90 739.98,454.62 C741.59,458.98 746.69,463.53 752.00,465.36 C755.66,466.62 762.15,466.91 786.68,466.95 C807.14,466.98 819.85,466.57 827.82,465.51 C822.92,466.30 821.54,467.66 823.08,470.09 C825.13,473.34 824.13,474.88 819.75,475.19 C814.75,475.55 814.06,477.36 818.75,477.81 C820.54,477.99 822.00,478.55 822.00,479.06 C822.00,479.62 822.73,479.92 824.06,479.95 C818.22,480.33 809.02,480.46 791.50,480.62 C771.70,480.81 754.60,480.57 753.50,480.11 C752.40,479.64 749.70,478.71 747.50,478.03 C741.11,476.07 733.16,470.33 730.05,465.42 C728.48,462.95 726.59,458.13 725.85,454.71 C725.69,453.98 725.55,453.08 725.42,452.07 C725.50,452.55 725.59,453.03 725.67,453.50 C726.35,457.07 726.52,456.53 727.18,448.50 C727.60,443.55 727.65,435.67 727.31,431.00 L 726.69 422.50 L 725.28 428.50 C725.08,429.36 724.91,430.31 724.77,431.34 C724.94,426.78 725.32,423.28 725.92,422.68 C726.51,422.09 727.00,420.82 727.00,419.86 C727.00,417.81 731.58,402.89 733.60,398.35 C734.37,396.62 735.00,394.48 735.00,393.60 C735.00,392.72 735.45,392.00 736.00,392.00 C736.55,392.00 737.00,391.21 737.01,390.25 C737.01,389.29 737.62,387.35 738.35,385.93 C739.09,384.52 740.02,382.07 740.41,380.49 C740.81,378.91 742.00,376.40 743.07,374.91 C743.19,374.73 743.31,374.56 743.43,374.39 C742.62,376.10 742.06,377.93 742.12,378.75 C742.22,380.34 742.27,380.35 742.68,378.81 C742.92,377.87 743.73,377.34 744.46,377.62 C746.38,378.36 747.09,376.68 746.37,373.10 L 745.75 370.00 L 745.01 371.37 C745.24,370.27 748.62,363.48 753.32,354.71 L 755.88 349.93 L 694.19 350.21 C650.73,350.42 633.24,350.79 630.72,351.59 C630.61,351.47 630.36,351.36 630.00,351.23 C629.17,350.93 627.91,349.86 627.19,348.84 C626.44,347.78 624.66,347.00 623.00,347.00 C621.42,347.00 619.84,346.55 619.50,346.00 C618.66,344.64 613.74,344.81 611.20,346.13 C613.50,344.61 615.71,343.35 617.68,342.48 C619.78,341.55 622.40,340.40 623.50,339.92 C632.01,336.17 651.54,335.33 719.70,335.77 L 764.90 336.06 L 769.83 328.75 C772.54,324.73 775.49,320.84 776.38,320.10 C777.27,319.36 778.00,318.34 778.00,317.84 C778.00,317.34 778.88,315.93 779.96,314.71 C781.04,313.50 783.63,310.51 785.71,308.07 C795.97,296.06 808.65,284.75 818.87,278.50 C819.76,277.95 820.72,277.25 821.00,276.95 C822.20,275.63 830.92,271.13 835.50,269.47 C838.25,268.47 840.95,267.34 841.50,266.95 C842.21,266.45 844.33,265.92 847.14,265.45 C846.88,265.54 846.69,265.64 846.58,265.75 C846.17,266.16 844.19,267.04 842.17,267.70 C840.15,268.36 839.40,268.82 840.50,268.73 C843.09,268.52 848.00,273.13 848.00,275.78 C848.00,277.47 849.81,278.76 851.57,279.03 C850.79,279.21 849.91,279.38 849.00,279.50 C846.25,279.88 843.75,280.60 843.44,281.09 C843.13,281.59 842.15,282.00 841.26,282.00 C840.47,282.00 835.51,284.60 830.81,287.29 C832.52,286.13 833.59,285.15 833.40,284.84 C833.13,284.40 832.06,284.57 831.03,285.21 C829.57,286.13 828.80,286.08 827.49,284.99 C826.02,283.77 825.58,283.90 823.98,286.02 C822.98,287.35 822.31,288.69 822.50,289.00 C822.69,289.31 819.62,289.38 815.67,289.16 C811.73,288.94 808.22,288.31 807.87,287.76 C807.07,286.51 803.00,290.45 803.00,292.47 C803.00,294.68 808.02,296.82 812.00,296.31 C814.65,295.97 815.14,296.11 814.00,296.91 C812.71,297.82 812.75,297.97 814.30,297.98 C815.29,297.99 817.23,296.77 818.62,295.27 ZM 853.41 528.50 C855.21,527.12 857.33,526.00 858.12,526.00 C858.91,526.00 860.51,525.33 861.67,524.52 C863.54,523.21 863.93,523.21 865.02,524.52 C865.69,525.33 866.69,526.00 867.23,526.00 C868.35,526.00 862.90,520.73 860.14,519.08 C860.35,519.17 860.56,519.27 860.75,519.37 C866.70,522.45 870.59,528.45 872.24,536.99 C872.00,536.90 871.64,537.03 871.36,537.31 C870.58,538.09 870.12,551.59 870.76,554.75 C871.22,557.01 871.93,557.46 872.47,556.48 C871.98,558.43 871.15,560.23 869.71,563.00 C868.97,564.42 868.17,565.77 867.32,567.01 C867.28,567.00 867.24,567.00 867.19,567.00 C866.62,567.00 865.53,567.62 864.77,568.37 C863.18,569.96 860.37,569.95 857.50,568.34 C856.40,567.73 853.70,567.20 851.50,567.17 C849.30,567.15 846.38,566.68 845.00,566.13 C842.64,565.18 842.71,565.12 846.19,565.06 C848.22,565.03 850.12,564.61 850.42,564.13 C850.71,563.66 849.23,563.47 847.13,563.71 C846.76,563.75 846.43,563.78 846.11,563.80 C847.69,563.63 849.43,562.81 851.73,561.32 C854.96,559.23 856.08,557.73 856.93,554.38 C859.28,545.02 857.80,536.84 852.94,532.45 C850.49,530.23 841.12,529.82 838.70,531.83 C837.77,532.61 836.96,533.67 836.28,534.99 C836.59,534.17 836.34,534.04 835.59,534.33 C834.75,534.65 833.78,534.46 833.44,533.90 C833.06,533.29 832.27,533.61 831.48,534.69 C830.22,536.41 830.04,536.39 827.67,534.16 C826.29,532.87 824.88,530.65 824.52,529.24 L 823.88 526.67 L 821.85 530.01 C820.73,531.84 819.58,535.70 819.28,538.57 C818.81,543.10 819.01,543.93 820.77,544.87 C822.34,545.72 823.08,545.61 824.07,544.41 C825.27,542.97 830.23,540.00 831.45,540.00 C831.75,540.00 832.08,541.91 832.17,544.25 L 832.34 548.50 L 832.73 544.66 C832.95,542.55 834.03,539.23 835.12,537.29 C835.38,536.83 835.60,536.42 835.78,536.08 C834.63,538.83 834.00,542.43 834.00,546.53 C834.00,552.08 835.07,555.89 837.65,558.99 C836.04,557.79 834.86,557.49 833.42,557.77 C830.24,558.38 829.38,560.34 830.86,563.60 C831.81,565.69 832.31,565.91 834.00,565.00 C835.10,564.41 836.00,563.27 836.00,562.46 C836.00,559.43 837.97,561.16 839.03,565.13 C840.36,570.04 839.16,572.15 836.29,569.92 C834.62,568.63 834.62,568.68 836.32,570.68 C837.51,572.07 838.93,573.17 840.62,574.00 C837.92,573.02 836.00,571.83 836.00,570.82 C836.00,570.37 835.33,570.00 834.50,570.00 C833.86,570.00 833.32,570.39 833.10,570.93 C833.23,569.89 832.93,568.92 832.11,568.29 C831.23,567.62 829.76,567.05 828.86,567.03 C827.29,567.00 824.00,561.53 824.00,558.93 C824.00,556.71 822.73,558.83 820.84,564.21 C818.46,570.95 818.52,572.42 821.25,574.33 L 819.00 572.76 L 819.00 497.11 L 821.22 495.56 C823.16,494.20 826.26,493.76 828.81,494.19 L 827.47 494.14 C822.88,493.98 819.00,496.21 819.00,499.01 C819.00,500.47 821.09,502.72 822.69,502.97 C822.80,502.99 824.60,502.02 826.69,500.82 C828.79,499.62 830.71,498.47 830.97,498.26 C831.81,497.60 828.57,496.03 826.00,495.87 C824.30,495.77 824.78,495.49 827.50,495.00 L 830.17 494.52 C831.07,494.82 831.83,495.26 832.35,495.83 C833.70,497.33 834.00,499.94 834.00,510.33 C834.00,520.42 834.51,524.05 835.87,522.82 L 837.80 523.44 C839.01,523.82 840.00,524.53 840.00,525.00 C840.00,525.48 841.46,526.01 843.25,526.19 C845.48,526.40 846.81,527.21 847.49,528.75 C848.74,531.60 849.39,531.57 853.41,528.50 ZM 803.00 574.72 C804.09,573.83 804.34,572.42 803.89,569.50 C803.56,567.30 803.21,566.17 803.13,567.00 C802.99,568.33 802.86,568.33 801.97,567.00 C801.09,565.69 800.83,565.72 799.93,567.25 C799.27,568.38 797.68,569.00 795.45,569.00 C792.10,569.00 792.00,568.89 792.00,565.06 C792.00,559.91 795.16,557.22 798.57,559.46 C799.77,560.24 801.70,560.63 802.87,560.32 C804.81,559.82 804.99,559.16 805.00,550.62 C805.00,550.85 805.00,551.08 805.00,551.31 C805.00,575.60 804.92,575.92 798.50,575.95 C791.14,575.99 790.00,572.71 790.00,551.57 C790.00,535.65 789.85,534.22 787.96,532.19 C785.06,529.08 778.52,529.24 774.50,532.52 L 771.50 534.97 L 771.19 553.23 C771.12,557.24 771.05,560.38 770.97,562.87 C771.00,560.73 771.00,558.09 771.00,554.83 C771.00,544.28 770.63,538.00 770.00,538.00 C769.42,538.00 769.00,541.27 769.00,545.80 C769.00,550.09 768.57,554.03 768.05,554.55 C767.29,555.32 766.61,559.96 766.05,568.25 C766.02,568.66 764.76,569.00 763.25,569.00 L 760.50 568.99 L 760.20 555.75 C760.04,548.46 759.59,540.03 759.19,537.00 C758.25,529.73 759.65,525.24 763.09,524.48 C764.53,524.16 766.11,523.98 766.61,524.07 C768.79,524.48 769.58,523.90 769.33,522.00 C769.38,522.23 769.43,522.47 769.48,522.73 L 770.14 526.27 L 772.31 523.22 C773.50,521.55 776.05,519.54 777.99,518.76 C782.12,517.09 792.59,517.16 796.65,518.89 C797.08,519.07 797.52,519.31 797.96,519.59 C796.97,519.11 795.93,519.17 794.13,519.51 C791.01,520.11 784.38,520.79 776.33,521.35 C775.14,521.43 773.79,521.91 773.33,522.41 C772.84,522.94 773.05,523.00 773.83,522.55 C774.64,522.08 775.91,522.60 777.12,523.90 C778.75,525.65 779.46,525.82 781.19,524.90 C782.50,524.20 785.04,524.04 787.90,524.48 C795.19,525.60 802.80,525.98 803.00,525.23 C803.20,525.69 803.34,526.14 803.40,526.54 C803.52,527.31 803.92,528.26 804.30,528.64 C804.65,528.99 804.94,537.43 804.99,548.03 C804.95,543.47 804.78,540.00 804.57,540.00 C804.33,540.00 802.98,540.44 801.57,540.98 C799.62,541.71 799.00,542.66 799.00,544.85 C799.00,548.38 796.92,550.52 795.18,548.78 C794.53,548.13 794.00,546.62 794.00,545.41 C794.00,544.21 793.31,541.94 792.47,540.36 C791.05,537.71 790.96,538.83 791.22,555.33 C791.48,571.65 791.67,573.29 793.44,574.58 C795.80,576.31 800.95,576.38 803.00,574.72 ZM 582.01 532.00 L 585.99 530.00 C587.08,529.45 589.78,529.00 591.99,529.00 C596.75,529.00 597.45,527.05 592.75,526.88 C590.69,526.80 591.70,526.44 595.50,525.88 C598.80,525.41 603.08,524.40 605.00,523.64 C606.92,522.89 609.06,522.48 609.75,522.72 C610.44,522.97 611.00,522.67 611.00,522.06 C611.00,521.87 610.96,521.68 610.87,521.51 C611.65,522.16 612.36,522.91 613.03,523.77 C617.28,529.16 618.00,532.57 618.03,547.37 C618.05,557.47 618.44,561.99 619.38,563.23 C620.11,564.19 620.99,564.68 621.35,564.32 C621.71,563.96 622.00,565.74 622.00,568.28 C622.00,571.90 621.53,573.21 619.79,574.43 C620.58,573.66 621.00,572.45 621.00,570.91 C621.00,569.24 620.59,568.14 620.09,568.45 C619.58,568.76 618.96,568.45 618.70,567.76 C618.36,566.84 617.86,566.97 616.86,568.21 C615.93,569.38 613.79,569.99 610.09,570.15 L 604.84 570.37 L 603.78 568.84 L 601.38 571.07 C602.96,568.97 602.90,566.69 601.13,564.43 C599.72,562.65 599.00,562.42 597.50,563.26 C597.16,563.45 596.76,563.61 596.31,563.74 C599.25,562.07 603.00,556.50 603.00,553.40 C603.00,552.07 602.90,551.27 602.49,550.74 C602.93,551.27 603.07,552.07 603.12,553.38 L 603.24 556.50 L 604.00 553.50 C604.62,551.07 604.79,550.93 604.88,552.75 C605.00,555.00 607.36,555.85 608.47,554.04 C608.80,553.52 608.37,551.43 607.52,549.40 C606.38,546.65 606.27,545.38 607.10,544.37 C608.63,542.53 607.41,538.29 604.99,536.99 C603.18,536.03 603.00,536.25 603.00,539.46 C603.00,542.45 602.65,543.00 600.75,543.03 C599.51,543.05 597.63,543.72 596.56,544.53 C595.49,545.34 593.18,546.00 591.42,546.00 C589.49,546.00 587.98,546.60 587.64,547.50 C587.18,548.71 588.01,549.00 591.91,549.00 C591.96,549.00 592.01,549.00 592.06,549.00 C587.89,549.34 585.18,551.05 584.12,554.08 C582.72,558.11 584.64,562.14 588.35,563.58 C587.24,563.29 586.24,562.89 585.48,562.40 C583.19,560.89 582.97,560.90 582.32,562.60 C581.13,565.70 576.67,569.05 574.25,568.65 C573.01,568.44 572.00,568.59 572.00,568.96 C572.00,569.06 572.03,569.18 572.09,569.31 C570.90,567.48 570.07,565.24 569.59,562.59 C569.65,562.56 569.70,562.50 569.77,562.41 C570.17,561.81 571.49,561.07 572.70,560.77 C574.34,560.36 575.37,560.90 576.67,562.86 C578.14,565.06 578.49,565.21 578.79,563.75 C578.99,562.79 579.56,562.00 580.07,562.00 C581.48,562.00 581.18,554.63 579.69,552.60 C578.98,551.62 577.18,550.74 575.70,550.66 C573.86,550.55 573.00,549.94 573.00,548.75 C573.00,546.64 572.11,546.57 571.00,548.30 C571.01,548.22 571.02,548.13 571.02,548.05 C571.04,546.99 572.88,545.20 575.23,543.59 C574.95,544.02 575.02,544.61 575.35,545.46 C576.15,547.55 581.87,547.51 582.68,545.40 C583.45,543.40 581.62,542.21 578.34,542.57 C577.40,542.67 576.69,542.79 576.18,542.97 C578.22,541.69 580.49,540.61 582.22,540.28 C584.02,539.93 589.33,539.54 594.00,539.41 C602.32,539.19 602.51,539.13 602.82,536.60 C603.33,532.43 598.83,529.00 592.84,529.00 C590.16,529.00 586.97,529.52 585.74,530.16 C584.09,531.01 582.89,531.61 581.95,532.03 C581.97,532.02 581.99,532.01 582.01,532.00 ZM 662.00 530.03 C662.00,528.29 667.41,526.23 670.67,526.72 C673.41,527.14 674.06,526.79 675.40,524.20 C676.23,522.59 676.58,521.82 676.34,521.19 C677.41,522.24 678.35,523.61 679.31,525.40 C680.93,528.43 681.36,530.02 681.46,540.52 C681.36,540.65 681.25,540.81 681.11,541.00 C680.52,541.83 679.95,544.97 679.85,548.00 L 679.67 553.50 L 679.00 548.00 C678.60,544.76 678.25,543.73 678.15,545.50 C677.91,549.44 676.57,551.43 674.65,550.70 C673.55,550.28 673.02,548.42 672.80,544.30 C672.54,539.27 672.24,538.50 670.50,538.50 C668.59,538.50 668.49,539.26 668.23,556.09 C667.99,571.11 667.98,573.31 669.42,574.33 L 668.00 573.68 L 668.00 557.49 C668.00,535.03 666.45,531.00 657.81,531.00 C647.73,531.00 646.00,535.01 646.00,558.39 C646.00,562.62 645.98,565.65 645.88,567.85 C645.61,566.28 644.93,564.81 643.85,563.87 C640.77,561.19 638.38,561.56 636.34,565.00 C635.37,566.65 634.22,568.00 633.78,568.00 C633.35,568.00 633.00,558.33 633.00,546.50 C633.00,534.67 633.23,525.00 633.51,525.00 C633.80,525.00 634.91,525.55 635.99,526.23 C637.59,527.23 638.48,527.16 640.73,525.86 C642.25,524.98 644.06,524.47 644.75,524.72 C645.42,524.96 645.83,524.37 645.95,523.48 L 646.25 525.01 L 650.21 521.43 C652.41,519.44 654.80,518.09 655.59,518.39 C656.36,518.69 657.00,518.47 657.00,517.90 C657.00,517.33 657.79,517.10 658.75,517.39 C659.71,517.69 663.20,518.02 666.50,518.13 C668.30,518.19 669.82,518.33 671.13,518.60 C670.54,518.67 669.88,518.84 669.07,519.12 C667.38,519.71 666.00,520.58 666.00,521.05 C666.00,521.52 663.19,522.04 659.75,522.20 C653.83,522.48 653.50,522.63 653.50,525.00 C653.50,526.38 653.17,528.00 652.78,528.61 C652.38,529.22 652.34,530.01 652.69,530.36 C653.72,531.39 662.00,531.09 662.00,530.03 ZM 584.92 398.50 C585.62,398.50 587.07,396.94 588.31,394.92 C586.87,397.50 585.47,399.74 585.14,400.00 C584.47,400.53 583.72,401.69 579.33,409.00 C578.00,411.23 574.52,416.76 571.25,421.85 C571.36,421.67 571.46,421.47 571.56,421.25 C573.01,417.99 572.64,414.52 570.70,413.12 C569.07,411.94 568.65,411.94 567.91,413.12 C566.85,414.78 566.81,415.80 567.62,419.88 C568.24,422.94 569.92,423.83 571.15,422.01 C570.83,422.51 570.51,423.01 570.19,423.50 C567.96,426.96 566.19,429.71 564.71,432.03 C564.79,431.88 564.87,431.73 564.96,431.58 C566.75,428.30 567.09,426.81 566.30,425.83 C565.70,425.10 564.69,421.92 564.04,418.77 C563.39,415.61 562.51,412.81 562.07,412.54 C561.60,412.25 560.82,412.67 560.00,413.51 C560.33,413.04 560.64,412.61 560.93,412.25 C562.34,410.46 563.52,408.66 563.54,408.25 C563.56,407.84 566.52,403.00 570.12,397.50 C573.72,392.00 578.40,384.58 580.52,381.00 C582.65,377.42 584.86,374.05 585.44,373.50 C586.02,372.95 587.40,370.73 588.50,368.57 C590.95,363.76 597.38,356.95 604.23,351.32 C604.44,351.77 604.92,352.36 605.65,353.17 C607.50,355.22 608.60,355.46 609.47,354.04 C610.43,352.50 608.18,349.66 606.26,349.69 C607.57,348.68 608.88,347.71 610.17,346.83 C608.71,347.95 608.90,348.00 611.20,348.00 C612.94,348.00 614.73,349.14 616.65,351.48 C618.22,353.39 620.17,354.96 621.00,354.96 C622.33,354.97 622.33,354.86 621.00,354.00 C619.71,353.16 619.73,353.03 621.19,353.02 C622.12,353.01 623.15,353.44 623.49,353.98 C623.80,354.49 624.49,354.59 625.33,354.27 C624.72,354.55 624.10,354.84 623.50,355.11 C620.75,356.35 616.95,358.52 615.05,359.93 C610.06,363.64 602.05,371.12 602.25,371.86 C602.35,372.21 599.93,376.33 596.87,381.00 C594.14,385.16 590.88,390.42 589.12,393.47 C590.72,390.49 590.94,389.37 589.75,390.17 C589.61,390.26 588.49,389.80 587.25,389.13 C585.69,388.30 585.00,387.02 585.00,384.96 C585.00,383.33 584.52,382.00 583.94,382.00 C583.36,382.00 583.14,382.41 583.45,382.92 C583.76,383.43 582.98,384.66 581.71,385.67 C580.43,386.68 579.07,388.34 578.68,389.36 C578.15,390.77 577.65,390.96 576.66,390.14 C575.65,389.29 574.97,389.83 573.69,392.52 C572.53,394.96 572.40,395.92 573.27,395.74 C573.95,395.61 574.40,396.02 574.28,396.65 C574.16,397.29 575.96,398.71 578.28,399.80 C582.12,401.62 582.55,401.65 583.00,400.15 C583.28,399.24 584.14,398.50 584.92,398.50 ZM 705.00 532.00 C705.00,531.45 705.90,531.00 707.00,531.00 C708.11,531.00 709.00,530.33 709.00,529.50 C709.00,528.56 709.95,528.00 711.56,528.00 C713.01,528.00 713.85,527.57 713.50,527.00 C713.14,526.42 714.14,526.00 715.89,526.00 C720.99,526.00 727.01,522.61 725.17,520.77 C724.76,520.36 719.77,519.80 714.08,519.51 C706.76,519.15 704.33,519.17 702.15,520.12 C703.50,519.44 704.80,519.00 705.70,519.00 C706.78,519.00 707.94,518.73 708.28,518.39 C709.09,517.58 726.00,517.32 726.00,518.12 C726.00,518.39 727.07,518.80 728.55,519.12 C727.88,519.20 727.99,519.35 728.86,519.70 C730.01,520.16 730.01,520.38 728.86,521.12 C727.73,521.85 727.75,522.17 729.00,522.98 C731.03,524.32 731.69,524.25 732.31,522.62 C732.74,521.52 732.12,520.30 731.05,519.62 C734.48,520.56 737.05,523.07 739.38,527.70 C740.66,530.22 741.00,534.07 741.00,545.85 C741.00,534.40 740.64,530.21 739.47,527.95 C737.77,524.65 737.26,524.49 734.75,526.39 C732.48,528.11 732.47,533.75 734.73,536.25 C736.11,537.78 736.47,540.22 736.56,548.53 C736.67,558.54 737.85,562.83 740.11,561.43 C740.60,561.13 741.00,554.14 741.00,545.89 C741.00,560.46 741.06,560.84 743.48,563.15 C744.06,563.69 744.54,564.32 744.93,565.01 C744.41,565.08 744.00,565.98 744.00,567.07 C744.00,568.94 743.85,568.99 742.45,567.60 C741.09,566.23 740.48,566.22 737.20,567.49 C733.17,569.06 729.92,569.07 728.77,567.50 C728.36,566.95 728.02,567.48 728.02,568.68 C728.01,569.39 728.19,570.07 728.52,570.72 C727.46,569.76 726.85,569.28 726.49,569.17 C726.68,568.03 726.11,567.94 723.68,568.37 C721.78,568.71 719.81,568.41 718.78,567.63 C716.57,565.95 706.90,566.49 703.00,568.50 C698.13,571.02 697.01,570.51 696.89,565.75 C696.57,552.94 697.74,551.97 704.76,559.25 C707.02,561.60 707.92,561.45 707.49,558.77 C707.72,559.42 708.06,560.15 708.50,560.99 C709.74,563.39 710.72,563.94 714.25,564.19 C720.90,564.67 725.24,561.26 726.44,554.60 C727.33,549.69 726.38,549.04 718.34,549.02 C715.43,549.01 713.83,549.07 712.64,549.51 C713.80,549.07 715.33,549.00 718.03,549.00 C721.25,549.00 724.16,548.56 724.49,548.02 C724.83,547.47 723.61,546.13 721.80,545.02 C718.24,542.86 717.55,540.90 719.98,539.82 C720.82,539.45 718.58,539.18 715.00,539.22 C708.89,539.30 708.77,539.34 713.00,539.96 C716.48,540.47 717.08,540.81 715.67,541.45 C714.22,542.10 714.12,542.46 715.17,543.12 C716.06,543.69 716.11,543.97 715.32,543.98 C714.67,543.99 713.42,543.28 712.54,542.40 C711.27,541.13 710.65,541.05 709.48,542.01 C708.58,542.76 706.72,542.98 704.62,542.59 C701.87,542.07 700.64,542.44 698.24,544.45 C697.72,544.89 697.25,545.33 696.81,545.78 C697.35,545.20 697.94,544.62 698.61,544.04 C703.22,539.99 708.85,538.67 718.86,539.28 L 727.23 539.79 L 726.67 536.35 C726.52,535.43 726.29,534.60 725.96,533.86 C726.25,534.37 726.46,534.87 726.56,535.31 C727.55,539.77 730.18,538.36 730.43,533.22 C730.65,528.56 730.38,528.38 723.05,528.15 L 719.60 528.05 L 722.76 530.27 C722.93,530.39 723.09,530.52 723.26,530.65 C721.58,529.58 719.28,529.05 716.31,529.03 C713.45,529.01 710.84,529.45 710.50,530.00 C710.16,530.55 708.78,531.00 707.44,531.00 C706.10,531.00 705.00,531.45 705.00,532.00 ZM 532.27 415.24 C532.98,414.34 533.63,414.28 534.54,415.03 C535.90,416.16 540.65,415.38 541.58,413.87 C541.85,413.44 541.34,409.76 540.74,406.61 C540.96,407.36 541.18,408.15 541.41,409.00 C543.39,416.36 545.94,424.10 547.07,426.24 C547.58,427.19 548.00,428.75 548.00,429.70 C548.00,432.06 553.14,425.91 556.10,420.00 C556.42,419.36 556.80,418.66 557.22,417.93 C557.20,417.97 557.19,418.01 557.17,418.05 C556.37,420.16 556.61,420.98 558.57,422.87 C561.16,425.36 562.57,430.63 561.53,433.91 C560.66,436.63 561.59,436.55 563.15,434.46 C561.03,437.78 559.47,440.25 557.69,443.12 C557.76,442.59 557.45,442.27 556.74,441.87 C555.81,441.35 555.45,440.12 555.75,438.53 C556.10,436.69 555.80,436.00 554.65,436.00 C551.21,436.00 550.33,442.10 553.24,445.75 C554.16,446.90 554.77,447.22 555.52,446.60 C554.36,448.39 553.30,449.85 552.28,450.99 C553.42,448.79 549.24,448.14 545.45,450.63 C543.77,451.72 543.32,452.44 543.84,453.28 C543.69,453.18 543.55,453.09 543.40,452.98 C541.26,451.47 538.00,446.02 538.00,443.95 C538.00,443.32 537.36,441.38 536.59,439.65 C535.81,437.92 534.63,434.02 533.96,431.00 C533.29,427.98 532.42,425.05 532.02,424.50 C531.63,423.95 530.06,419.45 528.55,414.50 C528.29,413.68 528.05,412.90 527.82,412.15 C529.47,416.90 530.52,418.92 530.83,417.91 C531.07,417.13 531.72,415.93 532.27,415.24 ZM 521.74 548.83 C522.01,545.16 524.11,541.10 525.46,541.62 C526.16,541.89 527.20,543.15 527.79,544.43 C528.49,545.98 529.70,546.75 531.42,546.75 C533.02,546.75 533.82,546.43 533.88,545.50 C534.45,547.17 535.06,549.05 535.59,550.75 C536.64,554.19 537.81,557.00 538.18,557.00 C538.83,557.00 540.12,553.94 540.60,551.27 C540.93,549.41 544.04,540.94 545.84,537.00 C546.72,535.08 547.55,532.38 547.68,531.01 C547.81,529.64 548.38,527.62 548.94,526.51 C549.39,525.63 550.06,524.08 550.58,522.74 C550.53,522.92 550.48,523.11 550.43,523.30 C549.80,525.93 549.92,526.06 552.38,525.44 C556.47,524.41 559.89,525.70 560.60,528.54 C561.14,530.70 562.09,530.83 563.13,529.21 C561.93,531.84 561.00,534.32 561.00,534.84 C561.00,535.23 559.67,539.09 557.79,544.16 C557.61,543.94 557.32,543.70 557.00,543.50 C556.45,543.16 556.00,543.36 556.00,543.94 C556.00,544.52 556.45,545.00 557.00,545.00 C557.18,545.00 557.36,544.98 557.50,544.94 C557.02,546.23 556.51,547.60 555.98,548.99 C556.60,546.87 556.23,545.95 554.74,542.94 C552.90,539.21 552.39,538.85 549.50,539.19 C546.73,539.51 546.36,539.29 546.71,537.53 C546.93,536.41 546.23,537.30 545.15,539.50 C544.06,541.70 542.92,545.30 542.61,547.50 C542.27,549.90 542.34,550.55 542.79,549.12 C543.44,547.03 543.69,546.92 544.81,548.27 C545.51,549.11 547.20,550.08 548.57,550.43 C550.32,550.87 551.24,551.95 551.66,554.06 C552.24,556.95 552.69,557.28 553.97,554.33 C551.94,559.76 550.11,564.76 549.43,566.80 C549.68,565.65 549.31,565.20 548.26,564.40 C547.29,563.66 545.66,563.05 544.64,563.03 C543.15,563.01 542.91,563.50 543.41,565.52 C544.03,567.95 543.92,568.01 540.15,567.41 C537.73,567.02 535.99,567.20 535.57,567.89 C534.17,570.16 532.00,569.04 532.00,566.05 C532.00,561.84 530.00,558.00 527.81,558.00 C524.16,558.00 524.36,560.95 528.67,570.55 C526.83,566.49 523.20,557.57 520.96,551.50 C520.07,549.11 519.09,546.56 518.44,544.92 C518.91,545.93 519.46,547.21 519.87,548.25 C521.18,551.57 521.52,551.67 521.74,548.83 ZM 895.81 285.55 C897.62,283.87 899.31,282.61 899.56,282.75 C899.80,282.89 900.00,282.77 900.00,282.50 L 900.00 281.39 C901.95,284.37 903.23,287.00 902.40,287.00 C902.04,287.00 902.18,287.56 902.71,288.25 C903.56,289.37 904.37,292.07 904.95,295.19 C904.67,294.44 904.33,294.00 903.95,294.00 C903.41,294.00 903.00,298.39 903.00,304.20 C903.00,311.96 903.28,314.12 904.16,313.24 C904.44,312.96 904.74,312.23 905.01,311.25 C904.12,316.82 902.89,321.43 901.88,322.64 C901.26,323.39 901.04,324.00 901.39,324.00 C902.34,324.00 900.91,326.97 898.42,330.96 C899.67,328.62 899.47,327.87 898.42,325.84 C896.79,322.69 895.51,322.23 894.64,324.50 C894.04,326.05 891.34,326.45 888.59,325.40 C887.72,325.06 887.26,324.39 887.56,323.90 C887.87,323.40 887.64,323.00 887.06,323.00 C886.95,323.00 886.85,323.02 886.75,323.06 C886.89,322.77 887.03,322.48 887.18,322.18 C891.26,313.84 891.43,313.13 891.45,304.00 C891.46,295.79 891.16,293.27 888.19,288.98 C889.82,291.07 890.60,290.35 895.81,285.55 ZM 885.70 441.40 C886.56,441.67 887.28,441.38 888.19,440.20 C885.05,445.33 881.11,450.19 876.54,454.65 C876.77,454.24 876.73,454.00 876.38,454.00 C875.86,454.00 874.34,454.77 873.00,455.72 C871.64,456.66 869.19,457.30 867.52,457.15 C864.45,456.85 861.63,454.40 862.59,452.85 C862.88,452.38 862.61,452.00 862.00,452.00 C861.39,452.00 861.16,451.55 861.50,451.01 C861.83,450.46 859.83,451.47 857.04,453.26 C854.25,455.04 850.96,457.10 849.74,457.83 L 847.50 459.17 L 849.70 458.69 C851.05,458.40 853.16,459.14 855.14,460.61 C856.93,461.92 859.20,463.00 860.19,463.00 C862.26,463.00 862.62,464.55 860.75,465.41 C860.06,465.72 860.62,465.70 862.00,465.36 C862.84,465.16 864.36,464.41 865.98,463.45 C860.59,467.30 854.67,470.67 848.41,473.42 C848.80,473.17 849.00,472.96 849.00,472.80 C849.00,472.36 848.50,472.00 847.88,472.00 C847.27,472.00 846.99,471.15 847.26,470.11 C848.07,467.03 846.59,465.89 841.40,465.59 C838.71,465.43 836.05,465.15 835.50,464.95 C834.97,464.77 832.20,464.93 829.23,465.31 C831.84,464.91 833.88,464.43 835.50,463.86 C837.15,463.28 842.72,460.73 847.87,458.20 C855.50,454.45 858.86,452.00 865.93,445.05 C871.19,439.88 875.58,434.52 877.06,431.50 C877.36,430.88 877.67,430.28 877.96,429.71 C876.64,432.55 875.37,435.89 875.98,435.51 C876.54,435.17 877.00,435.38 877.00,435.98 C877.00,436.59 877.98,438.40 879.17,440.02 C880.80,442.22 881.67,442.69 882.62,441.90 C883.33,441.31 884.71,441.09 885.70,441.40 ZM 850.15 265.00 C854.56,264.42 859.83,264.01 864.08,264.02 C878.27,264.07 886.68,266.96 894.54,274.50 C894.88,274.83 895.24,275.20 895.60,275.60 C894.23,274.35 893.57,274.33 892.71,275.13 C891.96,275.82 891.53,277.35 891.76,278.51 C891.98,279.67 891.44,281.22 890.56,281.95 C889.23,283.06 888.68,283.03 887.23,281.81 C886.28,281.01 884.50,280.30 883.27,280.24 C881.04,280.13 881.04,280.13 883.02,282.25 C884.11,283.42 886.00,285.84 887.23,287.63 L 887.41 287.89 C886.91,287.22 886.35,286.49 885.72,285.69 C880.97,279.63 874.36,277.00 863.87,277.00 C860.90,277.00 858.16,277.16 856.43,277.39 C857.95,277.15 860.20,277.00 862.62,277.00 C867.36,277.00 869.89,276.63 869.50,276.00 C869.16,275.45 866.41,275.00 863.39,275.00 C860.37,275.00 856.56,274.30 854.91,273.46 C852.22,272.06 851.99,271.57 852.57,268.46 C853.19,265.15 853.09,265.00 850.28,265.00 C850.24,265.00 850.19,265.00 850.15,265.00 ZM 897.36 574.15 C898.85,572.51 899.00,569.41 898.77,545.92 C898.52,521.06 898.39,519.51 896.63,519.17 C895.60,518.97 895.03,519.24 895.35,519.76 C895.69,520.30 894.92,520.52 893.58,520.26 C892.29,520.01 890.23,520.34 889.01,520.99 L 886.80 522.18 L 889.29 524.84 C891.32,527.00 891.58,527.83 890.66,529.24 C889.74,530.65 889.93,531.27 891.73,532.53 C893.29,533.61 894.14,535.54 894.60,539.04 C894.96,541.77 895.65,544.00 896.13,544.00 C896.61,544.00 897.00,546.03 897.00,548.50 C897.00,550.97 896.55,553.00 896.00,553.00 C895.45,553.00 895.00,553.63 895.00,554.39 C895.00,555.16 893.32,556.46 891.27,557.27 C887.91,558.62 887.42,558.60 886.30,557.13 C885.38,555.92 885.11,556.85 885.04,562.35 C885.00,558.55 885.00,553.44 885.00,546.50 C885.00,520.37 885.02,520.10 887.22,518.56 C888.44,517.70 890.59,517.00 892.00,517.00 C893.41,517.00 895.56,517.70 896.78,518.56 C898.98,520.10 899.00,520.37 899.00,546.40 C899.00,570.29 898.86,572.76 897.24,574.29 C897.28,574.24 897.32,574.20 897.36,574.15 ZM 891.07 435.07 C891.98,432.99 892.27,431.46 891.87,430.82 C891.41,430.09 891.02,428.06 891.02,426.29 C891.01,424.52 890.31,422.50 889.47,421.79 C888.62,421.08 887.32,419.96 886.58,419.30 C885.76,418.56 885.34,416.43 885.49,413.80 C885.64,411.43 885.57,410.62 885.34,412.00 C885.11,413.38 884.54,415.40 884.07,416.50 C883.59,417.60 882.62,420.08 881.91,422.00 C881.85,422.17 881.78,422.33 881.72,422.50 C882.16,421.33 882.65,419.95 883.13,418.50 C884.96,412.95 885.44,409.33 885.42,401.00 C885.41,397.85 885.22,394.68 884.91,391.83 C885.08,392.89 885.24,393.96 885.37,395.00 C886.46,403.21 886.51,403.32 886.80,398.25 C887.14,392.32 888.34,391.68 892.96,394.97 C894.48,396.05 896.01,396.65 896.36,396.30 C896.71,395.95 897.00,400.24 897.00,405.83 C897.00,411.94 897.40,416.00 898.00,416.00 C898.02,416.00 898.04,415.99 898.06,415.98 C897.95,417.04 897.83,417.92 897.69,418.70 C897.42,416.89 896.00,416.21 896.00,418.06 C896.00,418.64 895.56,418.84 895.01,418.51 C894.44,418.16 894.28,418.56 894.62,419.45 C895.21,420.98 896.51,421.31 897.23,420.62 C897.05,421.25 896.84,421.85 896.59,422.50 C896.16,423.60 895.32,425.85 894.72,427.50 C894.25,428.79 892.75,431.88 891.07,435.07 ZM 523.67 376.00 C524.01,374.62 525.12,372.31 526.14,370.85 C527.43,369.01 527.99,368.02 527.87,366.82 C528.14,367.66 528.37,368.49 528.52,369.18 C528.91,371.01 529.51,372.95 529.84,373.50 C530.17,374.05 530.58,375.36 530.74,376.42 C530.91,377.48 531.44,378.83 531.93,379.42 C532.04,379.56 532.18,379.83 532.33,380.21 C531.86,379.81 531.09,380.19 530.09,381.39 C529.19,382.47 529.30,383.15 530.54,384.39 L 530.71 384.57 C531.58,385.44 532.04,385.90 532.31,385.81 C532.62,385.70 532.66,384.84 532.80,383.00 C532.84,382.47 532.85,382.01 532.82,381.62 C533.25,383.00 533.72,384.85 534.11,386.75 C534.82,390.19 535.79,393.00 536.26,393.00 C536.73,393.00 536.85,393.43 536.53,393.96 C536.20,394.49 536.34,395.72 536.85,396.71 C537.79,398.54 538.55,400.23 539.24,402.07 C538.78,402.27 537.64,402.83 536.38,403.48 C532.98,405.24 531.07,403.98 530.61,399.66 C530.22,396.00 529.37,395.44 528.03,397.94 C527.41,399.10 526.51,399.82 526.04,399.52 C524.76,398.73 524.45,400.39 525.16,403.53 C523.33,397.72 522.68,395.92 522.01,394.50 C521.68,393.80 521.09,391.99 520.48,389.85 L 521.69 384.50 C522.44,381.20 523.33,377.38 523.67,376.00 ZM 511.25 359.86 C510.88,358.20 510.40,357.00 510.07,357.00 C509.66,357.00 508.74,354.43 508.04,351.30 C507.34,348.16 506.27,344.80 505.66,343.83 C504.73,342.34 505.68,340.01 507.42,338.31 C506.90,339.26 507.41,339.95 509.42,341.68 C511.44,343.42 512.58,343.82 513.33,343.07 C514.91,341.49 518.00,341.77 518.00,343.50 C518.00,344.33 518.51,345.00 519.12,345.00 C519.85,345.00 520.03,343.89 519.62,341.86 C519.81,342.49 519.99,343.16 520.15,343.90 C520.83,346.98 522.19,350.98 523.19,352.78 C523.89,354.05 524.50,355.64 524.80,356.91 C524.62,356.36 524.33,356.00 524.00,356.00 C523.45,356.00 523.00,356.85 523.00,357.89 C523.00,360.93 517.01,362.15 512.90,359.95 C511.73,359.32 511.28,359.17 511.25,359.86 ZM 519.05 532.79 C521.50,533.15 522.00,532.88 522.00,531.17 C522.00,530.04 521.48,528.80 520.85,528.41 C520.03,527.90 520.14,527.37 521.23,526.57 C522.08,525.96 522.99,524.56 523.27,523.48 C523.69,521.82 523.80,521.90 523.98,524.00 L 524.20 526.50 L 524.94 524.00 C525.30,522.80 525.27,521.36 524.91,520.57 C525.24,520.93 525.48,521.32 525.62,521.73 C525.93,522.71 526.56,524.40 527.02,525.50 C527.48,526.60 528.60,529.97 529.52,533.00 C529.90,534.28 530.36,535.70 530.81,537.04 C529.69,535.54 523.89,532.97 522.75,533.66 C522.34,533.91 522.00,534.91 522.00,535.88 C522.00,536.85 520.87,538.62 519.49,539.82 C518.08,541.05 517.50,541.90 517.58,542.81 C516.98,541.28 515.89,538.28 514.92,535.50 C514.17,533.33 513.53,531.45 513.00,529.83 C513.05,529.96 513.11,530.10 513.16,530.24 C514.61,533.91 515.61,535.45 515.80,534.27 C516.03,532.77 516.72,532.45 519.05,532.79 ZM 738.50 411.75 C739.92,404.69 739.95,404.64 742.14,407.16 C743.80,409.07 744.26,409.20 745.04,407.97 C746.75,405.27 746.08,404.00 742.95,404.00 C740.43,404.00 739.65,403.41 738.49,400.62 C736.46,395.78 734.35,395.32 733.56,399.56 C733.20,401.43 733.38,403.85 733.96,404.92 C734.53,405.99 735.00,407.99 735.00,409.35 C735.00,415.22 737.46,416.91 738.50,411.75 ZM 865.01 553.99 C865.97,552.18 865.82,549.06 864.42,542.25 C864.13,540.83 863.23,540.00 861.98,540.00 C860.26,540.00 859.98,540.74 859.83,545.75 L 859.65 551.50 L 858.35 538.50 L 858.17 546.81 C858.08,551.38 858.36,554.90 858.80,554.62 C859.24,554.35 860.25,554.55 861.05,555.05 C863.17,556.40 863.81,556.22 865.01,553.99 ZM 681.48 541.87 C681.50,544.48 681.50,547.59 681.50,551.33 C681.50,562.00 681.47,567.50 681.18,570.51 C680.73,570.13 679.67,569.95 677.71,569.80 C674.54,569.57 673.43,569.04 673.16,567.62 C672.74,565.43 674.94,560.84 676.07,561.54 C676.49,561.80 677.51,561.34 678.34,560.52 C679.47,559.38 679.96,559.32 680.34,560.26 C680.62,560.94 680.88,557.37 680.92,552.33 C680.96,547.90 681.20,543.55 681.48,541.87 ZM 899.50 506.15 C899.37,506.12 899.11,506.18 898.75,506.31 C897.79,506.65 897.00,506.57 897.00,506.13 C897.00,505.68 895.81,504.78 894.35,504.11 C892.35,503.20 891.98,502.62 892.85,501.75 C894.85,499.75 894.22,497.00 891.75,496.98 C890.51,496.98 888.84,496.55 888.03,496.04 C887.34,495.60 886.61,495.52 885.94,495.78 C886.97,495.02 888.49,494.61 890.71,494.31 C896.36,493.56 900.00,496.73 900.00,502.40 C900.00,503.95 899.85,505.14 899.50,506.15 ZM 825.08 518.29 C825.64,516.81 825.81,513.86 825.46,511.74 C824.87,508.29 824.53,507.92 822.15,508.19 C819.86,508.46 819.46,509.02 819.18,512.36 C818.94,515.28 819.42,516.81 821.11,518.61 C822.34,519.93 823.51,521.00 823.70,521.00 C823.89,521.00 824.51,519.78 825.08,518.29 ZM 642.70 541.44 C644.38,539.76 644.37,537.08 642.67,536.43 C640.09,535.44 636.00,537.82 636.00,540.31 C636.00,541.61 636.30,542.97 636.68,543.34 C637.55,544.21 641.03,543.11 642.70,541.44 ZM 608.95 520.17 C606.58,519.35 602.27,519.07 596.51,519.43 C591.56,519.74 585.16,520.12 582.30,520.27 C579.88,520.41 577.60,521.08 575.80,522.07 C578.06,520.37 580.96,518.90 583.50,518.42 C584.05,518.32 584.95,518.15 585.50,518.04 C586.05,517.94 590.44,517.84 595.25,517.81 C601.72,517.78 605.86,518.42 608.95,520.17 ZM 753.59 383.48 C756.28,380.97 756.72,378.53 754.82,376.73 C753.03,375.03 752.93,375.03 752.32,376.73 C751.97,377.70 750.87,379.29 749.87,380.26 C746.60,383.44 750.25,386.61 753.59,383.48 ZM 886.38 543.47 C886.64,541.29 886.90,538.38 886.94,537.00 C887.01,535.01 887.23,534.81 888.00,536.00 C888.72,537.12 888.96,536.61 888.91,534.00 C888.87,531.21 888.70,530.91 888.05,532.50 C887.44,534.02 887.08,533.19 886.54,529.00 C885.77,522.98 885.98,520.93 887.50,519.67 C888.10,519.18 887.90,519.01 887.00,519.26 C885.77,519.59 885.45,522.27 885.22,534.03 C884.95,547.96 885.40,551.60 886.38,543.47 ZM 894.94 306.69 C897.31,307.31 898.36,305.56 897.55,302.34 C897.08,300.45 896.42,299.92 895.01,300.29 C893.79,300.61 892.95,300.19 892.67,299.14 C892.43,298.24 892.23,300.20 892.23,303.50 C892.23,306.80 892.43,308.76 892.67,307.86 C892.94,306.83 893.80,306.40 894.94,306.69 ZM 858.22 518.44 C857.53,518.39 856.84,518.55 856.17,518.91 C853.90,520.12 846.38,520.50 842.94,519.57 C841.87,519.28 840.94,519.29 840.01,519.62 C840.31,519.45 840.63,519.29 840.94,519.14 C844.84,517.26 853.04,517.05 858.22,518.44 ZM 871.00 357.89 C871.00,356.32 870.25,356.00 866.50,356.00 C864.03,356.00 862.00,356.18 862.00,356.40 C862.00,356.62 863.42,357.71 865.16,358.81 C868.73,361.06 871.00,360.71 871.00,357.89 ZM 595.00 373.15 C595.00,372.14 594.28,369.87 593.41,368.11 C592.06,365.42 591.57,365.11 590.30,366.17 C589.33,366.97 589.18,367.56 589.89,367.80 C590.50,368.00 591.00,368.55 591.00,369.02 C591.00,369.49 591.44,371.02 591.98,372.43 C593.10,375.41 595.00,375.86 595.00,373.15 ZM 884.20 499.02 C884.41,499.41 884.85,499.67 885.50,499.67 C886.33,499.67 887.00,499.29 887.00,498.83 C887.00,498.38 887.45,498.00 888.00,498.00 C889.39,498.00 889.25,500.29 887.66,503.35 C886.65,505.31 886.05,505.65 885.16,504.76 C884.55,504.15 884.23,504.01 884.09,504.41 C884.02,503.75 884.00,502.97 884.00,502.05 C884.00,500.86 884.06,499.86 884.20,499.02 ZM 739.29 459.70 C741.25,458.68 741.59,458.02 740.85,456.69 C739.71,454.65 736.68,455.86 734.99,459.02 C733.70,461.43 735.43,461.70 739.29,459.70 ZM 833.00 468.50 C831.93,467.21 832.33,467.00 835.88,467.00 C838.88,467.00 840.00,467.41 840.00,468.50 C840.00,469.49 839.01,470.00 837.12,470.00 C835.54,470.00 833.68,469.33 833.00,468.50 ZM 761.00 359.19 C761.00,356.33 758.35,353.28 757.01,354.60 C756.19,355.42 756.50,356.40 758.20,358.34 C760.95,361.48 761.00,361.49 761.00,359.19 ZM 531.61 410.41 C531.27,409.54 531.39,408.12 531.88,407.25 C532.64,405.90 532.92,405.98 533.93,407.86 C535.08,410.02 534.66,412.00 533.05,412.00 C532.59,412.00 531.94,411.29 531.61,410.41 ZM 794.25 314.96 C792.74,314.02 791.11,313.60 790.64,314.04 C789.16,315.39 790.77,316.67 793.95,316.67 L 796.99 316.67 ZM 871.02 451.01 C869.16,449.86 868.57,450.45 869.41,452.62 C869.92,453.96 870.33,454.07 871.27,453.13 C872.22,452.18 872.16,451.72 871.02,451.01 ZM 727.00 561.00 C727.00,560.45 726.33,560.00 725.50,560.00 C724.67,560.00 724.00,560.45 724.00,561.00 C724.00,561.55 724.67,562.00 725.50,562.00 C726.33,562.00 727.00,561.55 727.00,561.00 ZM 605.08 570.70 L 608.05 573.19 C609.63,574.50 611.32,575.36 613.02,575.75 C610.04,575.26 607.11,573.60 605.30,571.02 ZM 743.78 574.44 C740.78,576.54 737.05,576.61 733.60,574.79 C736.98,576.13 741.13,576.30 743.78,574.44 ZM 701.81 543.32 C702.53,543.03 703.40,543.06 703.73,543.40 C704.06,543.73 703.47,543.96 702.42,543.92 C701.25,543.87 701.01,543.64 701.81,543.32 ZM 833.36 478.46 C836.23,477.74 838.92,476.97 841.25,476.24 C839.29,476.92 837.31,477.55 835.31,478.10 C832.79,478.81 830.75,479.29 827.75,479.63 C829.35,479.38 831.23,478.99 833.36,478.46 ZM 569.91 550.69 C569.50,552.22 569.21,554.64 569.08,556.91 C569.01,553.60 569.30,551.30 569.88,550.72 C569.89,550.71 569.90,550.70 569.91,550.69 ZM 514.81 518.71 C514.71,518.74 514.60,518.77 514.50,518.79 C512.30,519.41 511.22,520.55 511.19,522.71 C510.96,519.98 512.14,519.24 514.81,518.71 ZM 596.32 574.88 C595.11,575.49 591.29,575.98 587.82,575.96 C586.99,575.96 586.20,575.93 585.43,575.87 C589.83,576.05 594.84,575.60 596.85,574.58 C596.66,574.69 596.48,574.79 596.32,574.88 ZM 581.18 532.36 C579.85,532.89 579.04,533.00 577.88,533.00 C577.09,533.00 576.20,532.64 575.35,532.06 C577.05,532.90 579.17,533.09 581.18,532.36 ZM 542.45 575.41 C540.10,576.21 537.27,576.23 534.79,575.58 C537.23,576.05 540.21,575.98 542.45,575.41 ZM 679.17 574.75 C679.72,574.30 680.32,573.59 680.77,572.88 C680.48,573.78 680.10,574.19 679.56,574.58 C677.74,575.91 675.40,576.27 672.85,575.65 C675.31,576.15 677.80,575.85 679.17,574.75 ZM 517.11 378.57 C517.10,378.54 517.08,378.52 517.07,378.50 C516.65,377.95 515.72,375.25 515.00,372.50 C514.94,372.29 514.89,372.08 514.83,371.87 C514.89,372.08 514.96,372.29 515.02,372.50 C515.55,374.34 516.41,376.83 517.11,378.57 ZM 769.02 520.88 C768.51,519.88 767.36,519.10 765.85,518.64 C767.74,519.04 768.52,519.51 769.02,520.88 ZM 644.90 519.99 C644.01,519.26 641.89,518.64 639.68,518.35 C640.01,518.38 640.33,518.42 640.64,518.47 C643.11,518.84 644.26,519.15 644.90,519.99 ZM 554.33 518.54 C556.01,518.00 558.24,518.02 561.03,518.59 C560.54,518.52 560.00,518.46 559.42,518.39 C557.28,518.15 555.62,518.18 554.33,518.54 ZM 519.61 386.65 C519.55,386.43 519.50,386.22 519.45,386.00 C518.84,383.60 518.16,381.28 517.66,379.86 C518.36,381.57 519.20,384.45 519.58,386.50 ZM 885.59 508.01 C886.93,509.27 888.93,510.37 890.83,510.80 C889.36,510.56 887.91,509.93 886.63,508.93 C886.23,508.61 885.88,508.31 885.59,508.01 ZM 531.01 537.62 C531.55,539.22 532.07,540.65 532.42,541.50 C531.68,540.04 531.07,538.38 531.01,537.62 ZM 768.69 573.83 L 768.73 573.79 C766.11,576.52 760.32,576.70 757.76,574.11 C760.25,576.63 765.85,576.49 768.69,573.83 ZM 722.00 573.76 C723.64,572.81 725.19,571.50 725.94,570.48 C725.63,571.25 723.99,572.64 722.04,573.75 C720.53,574.61 719.18,575.17 717.60,575.50 C719.17,575.17 720.51,574.62 722.00,573.76 ZM 572.96 570.50 C573.83,571.44 575.17,572.57 576.51,573.48 C575.13,572.69 573.94,571.70 572.96,570.50 ZM 513.14 366.81 C513.07,366.67 513.01,366.57 512.96,366.50 C512.65,366.08 512.20,364.61 511.84,362.90 C512.19,364.22 512.65,365.67 513.01,366.50 C513.05,366.59 513.09,366.70 513.14,366.81 ZM 849.90 575.96 C850.29,575.97 850.69,575.98 851.10,575.98 C855.70,575.99 857.53,575.74 859.85,574.35 C857.54,575.79 855.83,576.00 851.28,576.00 C850.83,576.00 850.37,575.99 849.90,575.96 ZM 696.35 524.50 C695.21,526.15 695.22,527.87 696.18,530.05 C695.24,527.91 695.17,526.56 695.93,525.14 C696.04,524.93 696.18,524.72 696.35,524.50 ZM 528.76 570.75 C529.25,571.78 530.02,572.85 530.82,573.66 C530.12,573.08 529.56,572.41 529.18,571.65 C529.06,571.39 528.92,571.09 528.76,570.75 ZM 745.75 571.62 C745.92,570.89 746.00,570.02 746.00,568.94 C746.00,568.63 745.99,568.32 745.97,568.03 C746.16,569.27 746.09,570.52 745.75,571.62 ZM 802.24 523.88 C801.77,523.23 801.11,522.44 800.38,521.65 C800.12,521.38 799.89,521.13 799.66,520.91 C800.66,521.80 801.57,522.85 802.24,523.88 ZM 898.08 508.34 C898.39,508.00 898.65,507.70 898.86,507.45 C898.55,507.93 898.16,508.38 897.69,508.83 C897.35,509.14 897.00,509.42 896.62,509.66 C897.12,509.30 897.60,508.86 898.08,508.34 ZM 549.88 453.19 C548.94,453.83 548.04,454.17 547.14,454.24 C548.02,454.08 548.97,453.72 549.88,453.19 ZM 512.64 336.08 C513.95,336.04 515.06,336.23 516.00,336.70 C515.00,336.30 513.81,336.09 512.64,336.08 ZM 838.11 520.71 C838.07,520.74 838.03,520.77 837.99,520.81 L 836.48 522.03 L 836.50 521.99 C836.68,521.71 837.28,521.24 838.11,520.71 ZM 842.25 562.89 C843.18,563.42 844.06,563.73 844.96,563.82 C843.97,563.76 843.17,563.49 842.25,562.89 ZM 896.34 381.27 C896.86,382.93 897.38,384.48 897.78,385.54 C897.35,384.51 896.80,382.88 896.34,381.27 ZM 832.24 573.06 C832.60,572.54 832.86,571.99 833.00,571.44 C833.00,571.87 832.71,572.47 832.24,573.06 ZM 635.31 518.26 C635.02,518.30 634.75,518.35 634.51,518.41 L 633.69 518.61 C633.82,518.56 633.95,518.51 634.10,518.47 C634.40,518.37 634.81,518.30 635.31,518.26 ZM 898.24 386.70 C898.39,387.18 898.51,388.20 898.60,389.59 C898.49,388.29 898.37,387.28 898.24,386.70 ZM 693.63 551.51 C693.09,553.63 692.97,556.15 693.17,559.28 C692.97,556.12 693.08,553.63 693.63,551.51 ZM 519.87 518.44 C519.01,518.35 518.11,518.33 517.23,518.37 C518.14,518.31 519.03,518.34 519.87,518.44 ZM 627.12 353.42 C626.72,353.61 626.30,353.81 625.88,354.01 C626.23,353.83 626.66,353.62 627.12,353.42 ZM 886.49 573.87 C886.70,574.06 886.95,574.25 887.22,574.44 C886.95,574.25 886.70,574.08 886.49,573.87 Z" fill="rgb(34,68,41)"/>
<path d="M 0.00 372.00 L 0.00 0.00 L 704.50 0.00 L 1409.00 0.00 L 1409.00 372.00 L 1409.00 744.00 L 704.50 744.00 L 0.00 744.00 L 0.00 372.00 ZM 545.38 573.75 C546.75,572.51 548.54,569.47 549.36,567.00 C550.18,564.53 553.13,556.49 555.92,549.14 C558.72,541.79 561.00,535.36 561.00,534.84 C561.00,534.32 561.93,531.84 563.08,529.33 C564.22,526.82 565.23,523.60 565.33,522.16 C565.48,519.88 565.00,519.45 561.32,518.65 C555.61,517.41 552.15,518.45 550.94,521.78 C550.40,523.28 549.50,525.41 548.94,526.51 C548.38,527.62 547.81,529.64 547.68,531.01 C547.55,532.38 546.72,535.08 545.84,537.00 C544.04,540.94 540.93,549.41 540.60,551.27 C540.12,553.94 538.83,557.00 538.18,557.00 C537.81,557.00 536.64,554.19 535.59,550.75 C534.53,547.31 533.11,543.15 532.42,541.50 C531.74,539.85 530.43,536.03 529.52,533.00 C528.60,529.97 527.48,526.60 527.02,525.50 C526.56,524.40 525.93,522.71 525.62,521.73 C524.82,519.24 520.27,517.78 515.73,518.55 C509.81,519.55 509.76,520.61 514.92,535.50 C516.07,538.80 517.39,542.40 517.87,543.50 C518.34,544.60 519.73,548.20 520.96,551.50 C523.44,558.20 527.59,568.37 529.18,571.65 C531.48,576.37 541.10,577.62 545.38,573.75 ZM 596.32 574.88 C597.52,574.26 599.69,572.65 601.14,571.30 L 603.78 568.84 L 605.30 571.02 C608.58,575.70 615.61,577.37 619.78,574.44 C621.53,573.22 622.00,571.91 622.00,568.28 C622.00,565.74 621.71,563.96 621.35,564.32 C620.99,564.68 620.11,564.19 619.38,563.23 C618.44,561.99 618.05,557.47 618.03,547.37 C618.00,532.57 617.28,529.16 613.03,523.77 C609.48,519.25 605.03,517.76 595.25,517.81 C590.44,517.84 586.05,517.94 585.50,518.04 C584.95,518.15 584.05,518.32 583.50,518.42 C578.48,519.37 572.00,524.21 572.00,527.02 C572.00,529.51 575.43,533.00 577.88,533.00 C579.95,533.00 580.90,532.66 585.74,530.16 C586.97,529.52 590.16,529.00 592.84,529.00 C598.83,529.00 603.33,532.43 602.82,536.60 C602.51,539.13 602.32,539.19 594.00,539.41 C589.33,539.54 584.02,539.93 582.22,540.28 C578.12,541.07 571.05,545.98 571.02,548.05 C571.01,548.90 570.50,550.10 569.88,550.72 C569.19,551.41 568.91,554.48 569.16,558.78 C569.82,570.57 575.60,575.89 587.82,575.96 C591.29,575.98 595.11,575.49 596.32,574.88 ZM 644.17 574.35 C645.78,572.89 646.00,570.97 646.00,558.39 C646.00,535.01 647.73,531.00 657.81,531.00 C666.45,531.00 668.00,535.03 668.00,557.49 L 668.00 573.68 L 670.55 574.84 C673.96,576.40 677.20,576.30 679.56,574.58 C681.38,573.25 681.50,571.78 681.50,551.33 C681.50,530.77 681.37,529.26 679.31,525.40 C676.37,519.92 673.65,518.37 666.50,518.13 C663.20,518.02 659.71,517.69 658.75,517.39 C657.79,517.10 657.00,517.33 657.00,517.90 C657.00,518.47 656.36,518.69 655.59,518.39 C654.80,518.09 652.41,519.44 650.21,521.43 L 646.25 525.01 L 645.66 522.07 C645.15,519.49 644.54,519.05 640.64,518.47 C638.20,518.10 635.25,518.10 634.10,518.47 C632.03,519.12 632.00,519.58 632.00,546.52 C632.00,571.54 632.15,573.99 633.75,574.92 C636.46,576.50 642.14,576.18 644.17,574.35 ZM 722.04 573.75 C724.21,572.51 725.99,570.94 725.99,570.25 C726.00,568.46 726.31,568.61 730.43,572.50 C734.61,576.44 739.84,577.20 743.78,574.44 C746.96,572.21 746.81,566.30 743.48,563.15 C741.05,560.84 741.00,560.46 741.00,545.85 C741.00,534.07 740.66,530.22 739.38,527.70 C736.77,522.53 733.87,520.00 729.81,519.35 C727.71,519.02 726.00,518.46 726.00,518.12 C726.00,517.32 709.09,517.58 708.28,518.39 C707.94,518.73 706.78,519.00 705.70,519.00 C703.10,519.00 697.24,522.68 695.93,525.14 C695.17,526.56 695.24,527.91 696.18,530.05 C697.29,532.56 698.05,533.00 701.24,533.00 C703.31,533.00 705.00,532.55 705.00,532.00 C705.00,531.45 706.10,531.00 707.44,531.00 C708.78,531.00 710.16,530.55 710.50,530.00 C710.84,529.45 713.45,529.01 716.31,529.03 C722.60,529.07 725.86,531.38 726.67,536.35 L 727.23 539.79 L 718.86 539.28 C708.85,538.67 703.22,539.99 698.61,544.04 C694.01,548.08 692.69,551.77 693.17,559.28 C693.87,570.27 699.94,575.69 711.80,575.89 C716.64,575.97 719.02,575.48 722.04,573.75 ZM 768.76 573.75 C770.72,571.66 770.89,570.21 771.19,553.23 L 771.50 534.97 L 774.50 532.52 C778.52,529.24 785.06,529.08 787.96,532.19 C789.85,534.22 790.00,535.65 790.00,551.57 C790.00,572.71 791.14,575.99 798.50,575.95 C804.92,575.92 805.00,575.60 805.00,551.31 C805.00,539.22 804.69,529.02 804.30,528.64 C803.92,528.26 803.52,527.31 803.40,526.54 C803.04,524.05 799.58,520.13 796.65,518.89 C792.59,517.16 782.12,517.09 777.99,518.76 C776.05,519.54 773.50,521.55 772.31,523.22 L 770.14 526.27 L 769.48 522.73 C768.90,519.66 768.35,519.10 765.32,518.53 C763.40,518.17 760.52,518.17 758.92,518.52 L 756.00 519.16 L 756.00 545.75 C756.00,569.72 756.17,572.51 757.75,574.11 C760.32,576.71 766.16,576.52 768.76,573.75 ZM 830.78 574.44 C832.00,573.59 833.00,572.24 833.00,571.44 C833.00,570.65 833.67,570.00 834.50,570.00 C835.33,570.00 836.00,570.37 836.00,570.82 C836.00,572.98 844.91,576.00 851.28,576.00 C857.15,576.00 858.30,575.65 862.09,572.75 C864.81,570.67 867.56,567.15 869.71,563.00 C872.74,557.15 873.09,555.64 873.15,547.88 C873.26,533.49 868.98,523.62 860.75,519.37 C856.23,517.04 845.56,516.91 840.94,519.14 C838.84,520.16 836.85,521.44 836.50,521.99 C834.67,524.97 834.00,521.87 834.00,510.33 C834.00,499.94 833.70,497.33 832.35,495.83 C830.29,493.55 824.29,493.41 821.22,495.56 L 819.00 497.11 L 819.00 534.93 L 819.00 572.76 L 821.25 574.33 C824.16,576.36 827.98,576.40 830.78,574.44 ZM 897.17 574.35 C898.85,572.82 899.00,570.60 899.00,546.40 C899.00,520.37 898.98,520.10 896.78,518.56 C895.56,517.70 893.41,517.00 892.00,517.00 C890.59,517.00 888.44,517.70 887.22,518.56 C885.02,520.10 885.00,520.37 885.00,546.50 C885.00,572.63 885.02,572.90 887.22,574.44 C890.12,576.48 894.87,576.43 897.17,574.35 ZM 897.69 508.83 C899.40,507.21 900.00,505.55 900.00,502.40 C900.00,496.73 896.36,493.56 890.71,494.31 C885.25,495.04 884.00,496.48 884.00,502.05 C884.00,506.05 884.44,507.20 886.63,508.93 C890.07,511.63 894.75,511.58 897.69,508.83 ZM 835.31 478.10 C858.77,471.55 879.41,456.22 889.62,437.76 C891.82,433.77 894.12,429.15 894.72,427.50 C895.32,425.85 896.16,423.60 896.59,422.50 C898.03,418.77 898.26,416.52 898.69,402.54 C898.92,394.86 898.69,387.66 898.18,386.54 C897.67,385.42 896.50,381.93 895.58,378.78 C894.67,375.64 893.49,372.80 892.96,372.48 C892.43,372.15 892.00,371.18 892.00,370.32 C892.00,369.46 889.48,365.16 886.40,360.77 L 880.79 352.77 L 884.40 349.27 C891.23,342.63 903.76,324.00 901.39,324.00 C901.04,324.00 901.26,323.39 901.88,322.64 C903.19,321.07 904.86,313.82 905.69,306.14 C906.26,300.81 904.58,290.70 902.71,288.25 C902.18,287.56 902.04,287.00 902.40,287.00 C903.91,287.00 898.36,278.16 894.54,274.50 C886.68,266.96 878.27,264.07 864.08,264.02 C855.73,264.00 843.42,265.60 841.50,266.95 C840.95,267.34 838.25,268.47 835.50,269.47 C830.92,271.13 822.20,275.63 821.00,276.95 C820.72,277.25 819.76,277.95 818.87,278.50 C808.65,284.75 795.97,296.06 785.71,308.07 C783.63,310.51 781.04,313.50 779.96,314.71 C778.88,315.93 778.00,317.34 778.00,317.84 C778.00,318.34 777.27,319.36 776.38,320.10 C775.49,320.84 772.54,324.73 769.83,328.75 L 764.90 336.06 L 719.70 335.77 C651.54,335.33 632.01,336.17 623.50,339.92 C622.40,340.40 619.78,341.55 617.68,342.48 C607.97,346.75 592.62,360.48 588.50,368.57 C587.40,370.73 586.02,372.95 585.44,373.50 C584.86,374.05 582.65,377.42 580.52,381.00 C578.40,384.58 573.72,392.00 570.12,397.50 C566.52,403.00 563.56,407.84 563.54,408.25 C563.52,408.66 562.34,410.46 560.93,412.25 C559.51,414.04 557.34,417.52 556.10,420.00 C553.14,425.91 548.00,432.06 548.00,429.70 C548.00,428.75 547.58,427.19 547.07,426.24 C545.94,424.10 543.39,416.36 541.41,409.00 C539.98,403.70 538.80,400.51 536.85,396.71 C536.34,395.72 536.20,394.49 536.53,393.96 C536.85,393.43 536.73,393.00 536.26,393.00 C535.79,393.00 534.82,390.19 534.11,386.75 C533.40,383.31 532.42,380.01 531.93,379.42 C531.44,378.83 530.91,377.48 530.74,376.42 C530.58,375.36 530.17,374.05 529.84,373.50 C529.51,372.95 528.91,371.01 528.52,369.18 C528.13,367.36 527.18,364.66 526.41,363.18 C525.64,361.71 525.01,359.50 525.01,358.28 C525.00,357.06 524.19,354.58 523.19,352.78 C522.19,350.98 520.83,346.98 520.15,343.90 C518.79,337.70 516.43,335.59 511.51,336.17 C507.73,336.61 504.12,341.36 505.66,343.83 C506.27,344.80 507.34,348.16 508.04,351.30 C508.74,354.43 509.66,357.00 510.07,357.00 C510.49,357.00 511.14,358.91 511.53,361.25 C511.91,363.59 512.56,365.95 512.96,366.50 C513.36,367.05 514.28,369.75 515.00,372.50 C515.72,375.25 516.65,377.95 517.07,378.50 C517.48,379.05 518.55,382.42 519.45,386.00 C520.34,389.58 521.49,393.40 522.01,394.50 C522.99,396.58 523.93,399.45 528.55,414.50 C530.06,419.45 531.63,423.95 532.02,424.50 C532.42,425.05 533.29,427.98 533.96,431.00 C534.63,434.02 535.81,437.92 536.59,439.65 C537.36,441.38 538.00,443.32 538.00,443.95 C538.00,446.02 541.26,451.47 543.40,452.98 C547.53,455.90 551.00,453.89 556.14,445.61 C560.31,438.88 562.49,435.45 570.19,423.50 C573.74,418.00 577.85,411.48 579.33,409.00 C583.72,401.69 584.47,400.53 585.14,400.00 C585.49,399.73 587.02,397.25 588.54,394.50 C590.06,391.75 593.81,385.67 596.87,381.00 C599.93,376.33 602.35,372.21 602.25,371.86 C602.05,371.12 610.06,363.64 615.05,359.93 C616.95,358.52 620.75,356.35 623.50,355.11 C626.25,353.87 629.40,352.33 630.50,351.68 C631.96,350.82 649.09,350.42 694.19,350.21 L 755.88 349.93 L 753.32 354.71 C748.45,363.80 745.00,370.75 745.00,371.47 C745.00,371.87 744.13,373.41 743.07,374.91 C742.00,376.40 740.81,378.91 740.41,380.49 C740.02,382.07 739.09,384.52 738.35,385.93 C737.62,387.35 737.01,389.29 737.01,390.25 C737.00,391.21 736.55,392.00 736.00,392.00 C735.45,392.00 735.00,392.72 735.00,393.60 C735.00,394.48 734.37,396.62 733.60,398.35 C731.58,402.89 727.00,417.81 727.00,419.86 C727.00,420.82 726.51,422.09 725.92,422.68 C724.30,424.30 724.25,447.35 725.85,454.71 C726.59,458.13 728.48,462.95 730.05,465.42 C733.16,470.33 741.11,476.07 747.50,478.03 C749.70,478.71 752.40,479.64 753.50,480.11 C754.60,480.57 771.70,480.81 791.50,480.62 C824.85,480.31 828.07,480.13 835.31,478.10 ZM 590.05 564.04 C585.26,563.29 582.51,558.69 584.12,554.08 C585.74,549.45 591.22,547.89 599.88,549.62 C602.58,550.17 603.00,550.67 603.00,553.40 C603.00,556.88 598.27,563.47 595.28,564.16 C594.30,564.39 591.95,564.33 590.05,564.04 ZM 714.25 564.19 C710.72,563.94 709.74,563.39 708.50,560.99 C706.43,557.00 706.60,555.63 709.59,552.08 C711.97,549.25 712.68,549.00 718.34,549.02 C726.38,549.04 727.33,549.69 726.44,554.60 C725.24,561.26 720.90,564.67 714.25,564.19 ZM 840.80 561.92 C835.91,558.27 834.00,553.95 834.00,546.53 C834.00,539.71 835.73,534.30 838.70,531.83 C841.12,529.82 850.49,530.23 852.94,532.45 C857.80,536.84 859.28,545.02 856.93,554.38 C856.08,557.73 854.96,559.23 851.73,561.32 C846.83,564.50 844.43,564.63 840.80,561.92 ZM 752.00 465.36 C746.69,463.53 741.59,458.98 739.98,454.62 C739.35,452.90 738.42,450.72 737.92,449.76 C736.74,447.53 736.72,433.29 737.89,432.57 C738.38,432.27 739.02,430.55 739.31,428.76 C740.12,423.81 743.06,412.65 743.86,411.51 C744.25,410.96 745.63,407.12 746.93,403.00 C748.23,398.88 750.07,393.70 751.02,391.50 C754.60,383.19 762.40,367.39 764.23,364.75 C765.28,363.24 765.85,362.00 765.50,362.00 C765.14,362.00 765.83,360.76 767.02,359.25 C768.21,357.74 769.79,355.04 770.54,353.25 L 771.90 350.00 L 808.70 350.01 C848.24,350.03 848.42,350.05 859.57,355.55 C868.52,359.97 881.00,373.91 881.00,379.49 C881.00,380.32 881.35,381.00 881.78,381.00 C883.57,381.00 885.40,391.05 885.42,401.00 C885.44,409.33 884.96,412.95 883.13,418.50 C881.85,422.35 880.52,425.72 880.16,426.00 C879.80,426.27 878.40,428.75 877.06,431.50 C875.58,434.52 871.19,439.88 865.93,445.05 C858.86,452.00 855.50,454.45 847.87,458.20 C842.72,460.73 837.15,463.28 835.50,463.86 C829.02,466.15 815.60,467.00 786.68,466.95 C762.15,466.91 755.66,466.62 752.00,465.36 ZM 865.75 343.31 C864.79,343.06 864.00,342.50 864.00,342.08 C864.00,341.65 860.96,340.49 857.25,339.51 C853.54,338.53 850.07,337.34 849.55,336.87 C849.03,336.39 836.43,336.00 821.55,335.99 C791.76,335.98 784.00,335.44 784.00,333.39 C784.00,330.36 808.85,303.08 817.57,296.55 C819.73,294.93 821.72,293.30 822.00,292.93 C823.10,291.45 839.75,282.00 841.26,282.00 C842.15,282.00 843.13,281.59 843.44,281.09 C843.75,280.60 846.25,279.88 849.00,279.50 C851.75,279.12 854.25,278.40 854.56,277.91 C854.87,277.41 859.06,277.00 863.87,277.00 C874.36,277.00 880.97,279.63 885.72,285.69 C891.00,292.42 891.47,293.91 891.45,304.00 C891.43,313.13 891.26,313.84 887.18,322.18 C883.97,328.74 881.30,332.46 876.23,337.43 C872.55,341.04 869.08,343.95 868.52,343.88 C867.96,343.82 866.71,343.56 865.75,343.31 Z" fill="rgb(247,249,242)"/>
</g>
</svg>