<svg xmlns="http://www.w3.org/2000/svg" width="1409" height="744" viewBox="0 0 1409 744">
<g>
<path d="M 836.50 478.19 C829.03,480.24 826.12,480.41 792.50,480.63 C772.70,480.76 754.92,480.47 752.98,480.00 C726.52,473.46 718.91,450.51 730.17,411.24 C734.24,397.03 742.79,375.96 750.05,362.26 C753.32,356.07 756.00,350.79 756.00,350.51 C756.00,350.23 729.85,350.00 697.89,350.00 C633.85,350.00 633.39,350.04 621.62,356.29 C614.45,360.10 606.07,368.32 599.78,377.69 C597.19,381.55 585.80,399.51 574.48,417.60 C563.15,435.70 553.06,451.34 552.04,452.38 C549.90,454.55 545.70,454.83 543.44,452.95 C542.57,452.23 541.19,450.34 540.37,448.75 C538.14,444.45 506.01,344.87 506.01,342.25 C505.99,337.32 513.15,334.15 517.29,337.25 C518.22,337.95 521.64,346.88 525.04,357.50 C542.77,412.85 548.27,429.58 548.96,430.32 C549.39,430.77 550.99,428.97 552.53,426.32 C557.05,418.56 581.81,379.26 588.02,370.00 C596.05,358.04 606.80,348.12 617.19,343.10 C620.22,341.63 622.59,340.47 625.04,339.55 C634.43,336.03 645.15,336.03 699.51,336.02 L 702.15 336.01 L 765.81 336.00 L 768.42 331.55 C771.67,326.00 781.16,313.93 790.28,303.74 C806.61,285.51 829.24,270.52 848.24,265.36 C852.25,264.27 858.46,263.64 865.50,263.59 C878.96,263.52 885.26,265.65 893.29,272.98 C912.70,290.72 910.78,321.97 888.84,345.47 C885.08,349.49 882.00,353.10 882.00,353.49 C882.00,353.87 883.54,355.98 885.42,358.18 C901.21,376.63 904.89,407.64 894.11,431.42 C884.08,453.53 862.56,471.00 836.50,478.19 ZM 754.99 466.07 C756.37,466.48 771.81,466.87 789.29,466.91 C814.61,466.98 822.65,466.68 828.79,465.42 C869.79,457.01 895.65,418.38 883.52,383.66 C878.75,370.02 870.13,360.35 857.23,354.19 L 849.50 350.50 L 773.14 349.91 L 768.89 357.18 C752.15,385.84 739.00,423.06 739.00,441.78 C739.00,455.66 743.56,462.59 754.99,466.07 ZM 865.63 342.36 C869.65,344.54 870.13,344.44 874.77,340.46 C880.41,335.64 888.46,323.32 890.57,316.29 C892.74,309.07 892.71,297.64 890.52,292.38 C885.09,279.37 871.04,274.32 852.96,278.89 C836.80,282.98 822.39,291.85 806.68,307.36 C797.90,316.03 784.06,332.72 784.02,334.68 C784.01,335.55 792.69,335.95 817.75,336.23 C849.08,336.58 851.90,336.75 857.13,338.71 C860.22,339.86 864.05,341.51 865.63,342.36 ZM 857.00 576.01 C855.08,576.55 852.38,576.97 851.00,576.95 C846.07,576.87 836.00,572.19 836.00,569.98 C836.00,569.44 835.55,569.00 835.00,569.00 C834.45,569.00 834.00,569.67 834.00,570.50 C834.00,573.15 830.19,576.00 826.65,576.00 L 826.37 576.00 C824.91,576.00 823.78,576.00 822.91,575.53 C820.00,573.94 820.00,567.01 820.00,536.83 L 820.00 535.11 C820.00,511.35 820.37,497.17 821.04,495.93 C821.86,494.39 823.16,494.00 827.50,494.00 C831.84,494.00 833.14,494.39 833.96,495.93 C834.53,497.00 835.00,503.79 835.00,511.04 L 835.00 524.21 L 838.48 521.15 C844.65,515.74 855.98,515.51 863.32,520.64 C880.92,532.96 876.63,570.55 857.00,576.01 ZM 597.42 574.82 C591.35,577.94 581.19,576.77 575.16,572.27 C567.57,566.60 566.84,550.86 573.90,545.23 C579.59,540.69 583.45,539.55 593.25,539.53 L 603.00 539.50 L 603.00 536.32 C603.00,528.68 592.80,526.63 582.91,532.28 C579.31,534.34 578.83,534.39 576.27,532.97 C574.52,532.00 573.38,530.45 573.19,528.77 C572.33,521.46 579.71,517.57 594.50,517.53 C602.96,517.50 605.14,517.84 608.67,519.73 C616.98,524.17 618.99,529.82 618.99,548.75 C619.00,560.66 619.20,562.20 621.00,564.00 C623.55,566.55 623.65,572.11 621.17,574.35 C618.02,577.19 611.64,576.50 607.50,572.86 L 603.92 569.72 L 601.71 571.74 C600.49,572.84 598.57,574.23 597.42,574.82 ZM 718.28 575.94 C704.42,579.79 692.08,570.16 693.22,556.40 C694.19,544.62 704.37,538.09 719.75,539.37 L 727.00 539.97 L 727.00 537.10 C727.00,529.51 718.38,526.85 708.48,531.38 C701.61,534.53 700.59,534.59 698.00,532.00 C691.73,525.73 700.69,518.16 715.44,517.26 C728.54,516.46 735.73,519.62 740.04,528.09 C741.72,531.38 742.00,534.00 742.00,546.60 C742.00,560.96 742.05,561.32 744.50,563.59 C747.56,566.42 747.90,571.88 745.17,574.35 C741.44,577.72 730.92,575.46 729.49,570.98 C728.87,569.01 728.71,569.05 725.45,571.91 C723.58,573.55 720.35,575.36 718.28,575.94 ZM 645.17 574.35 C642.60,576.67 636.48,576.48 634.00,574.00 C632.10,572.10 632.00,570.67 632.00,546.57 L 632.00 545.01 C632.00,526.09 632.00,520.42 634.60,518.72 C635.71,517.99 637.30,518.00 639.57,518.00 C639.71,518.00 639.86,518.00 640.01,518.00 C644.66,518.00 644.93,518.15 646.14,521.50 L 647.40 525.00 L 650.45 522.06 C654.32,518.33 657.88,517.00 664.00,517.00 C669.98,517.00 673.65,518.32 677.27,521.77 C681.92,526.21 683.00,532.13 683.00,553.18 C683.00,570.67 682.86,572.14 681.00,574.00 C678.59,576.41 673.34,576.63 670.22,574.44 C668.07,572.94 668.00,572.33 668.00,555.69 C668.00,541.33 667.71,537.92 666.25,535.00 C664.62,531.75 664.13,531.48 659.26,531.20 C654.81,530.94 653.64,531.26 651.59,533.32 C647.95,536.96 647.01,542.03 647.01,558.10 C647.00,570.96 646.78,572.89 645.17,574.35 ZM 769.60 573.89 C767.03,576.73 760.77,576.77 757.95,573.95 C755.98,571.98 755.92,570.98 756.20,545.92 C756.43,525.66 756.37,520.10 758.81,518.58 C759.73,518.01 761.01,518.01 762.80,518.02 C763.04,518.02 763.29,518.02 763.55,518.02 C768.13,518.00 770.00,519.35 770.00,522.70 C770.00,525.49 771.55,525.70 772.95,523.10 C773.51,522.05 776.02,520.20 778.53,518.98 C782.20,517.21 784.37,516.85 789.54,517.18 C797.15,517.67 800.35,519.64 803.99,526.09 C806.43,530.41 806.49,530.95 806.49,551.83 C806.50,571.79 806.38,573.24 804.56,574.58 C802.04,576.42 797.01,576.40 794.33,574.52 C792.33,573.12 792.20,572.04 791.86,554.12 C791.44,531.82 791.11,531.00 782.77,531.00 C778.70,531.00 777.36,531.49 775.02,533.82 C771.70,537.15 770.93,542.67 771.28,560.64 C771.47,570.38 771.26,572.05 769.60,573.89 ZM 545.77 574.23 C543.33,576.67 534.03,576.68 531.14,574.25 C529.26,572.67 523.06,557.63 513.46,531.38 C510.42,523.06 510.26,522.07 511.62,520.13 C512.83,518.41 514.14,518.00 518.50,518.00 C521.46,518.00 524.17,518.46 524.52,519.03 C524.87,519.60 528.04,528.22 531.57,538.18 C535.09,548.15 538.13,556.47 538.33,556.66 C538.52,556.86 540.40,551.95 542.50,545.76 C548.40,528.36 551.84,519.72 553.23,518.84 C555.19,517.59 563.45,517.85 564.80,519.20 C565.46,519.86 566.00,521.21 566.00,522.20 C566.00,525.19 547.67,572.33 545.77,574.23 ZM 898.17 574.35 C895.87,576.43 891.12,576.48 888.22,574.44 C886.02,572.90 886.00,572.63 886.00,546.57 L 886.00 544.74 C886.00,525.04 886.00,520.15 888.32,518.48 C889.15,517.88 890.29,517.69 891.83,517.38 C893.95,516.96 895.79,517.29 897.49,518.40 L 900.00 520.05 L 900.00 546.37 C900.00,570.60 899.85,572.82 898.17,574.35 ZM 841.19 560.97 C845.74,563.75 850.18,563.56 853.89,560.44 C859.32,555.87 860.68,544.75 856.75,536.97 C854.13,531.77 850.84,529.74 846.14,530.42 C838.63,531.51 835.00,536.75 835.00,546.50 C835.00,553.67 837.04,558.45 841.19,560.97 ZM 897.99 510.01 C895.63,511.27 891.14,511.17 888.32,509.81 C885.43,508.41 883.65,503.88 884.49,500.05 C885.56,495.18 893.06,492.35 897.96,494.98 C902.44,497.38 902.46,507.61 897.99,510.01 ZM 710.63 561.93 C713.75,564.38 717.97,564.58 722.02,562.49 C725.63,560.62 727.00,558.18 727.00,553.61 C727.00,550.37 726.72,550.04 723.44,549.42 C717.93,548.39 711.77,549.57 709.76,552.05 C707.14,555.28 707.51,559.47 710.63,561.93 ZM 586.45 561.55 C591.55,566.64 601.00,563.43 603.02,555.92 C604.53,550.31 603.50,549.50 594.86,549.50 C588.67,549.50 587.59,549.78 585.91,551.86 C583.31,555.07 583.51,558.60 586.45,561.55 Z" fill="rgb(39,69,43)"/>
<path d="M 0.00 372.00 L 0.00 0.00 L 704.50 0.00 L 1409.00 0.00 L 1409.00 372.00 L 1409.00 744.00 L 704.50 744.00 L 0.00 744.00 L 0.00 372.00 ZM 597.42 574.82 C598.57,574.23 600.49,572.84 601.71,571.74 L 603.92 569.72 L 607.50 572.86 C611.64,576.50 618.02,577.19 621.17,574.35 C623.65,572.11 623.55,566.55 621.00,564.00 C619.20,562.20 619.00,560.66 618.99,548.75 C618.99,529.82 616.98,524.17 608.67,519.73 C605.14,517.84 602.96,517.50 594.50,517.53 C579.71,517.57 572.33,521.46 573.19,528.77 C573.38,530.45 574.52,532.00 576.27,532.97 C578.83,534.39 579.31,534.34 582.91,532.28 C592.80,526.63 603.00,528.68 603.00,536.32 L 603.00 539.50 L 593.25 539.53 C583.45,539.55 579.59,540.69 573.90,545.23 C566.84,550.86 567.57,566.60 575.16,572.27 C581.19,576.77 591.35,577.94 597.42,574.82 ZM 718.28 575.94 C720.35,575.36 723.58,573.55 725.45,571.91 C728.71,569.05 728.87,569.01 729.49,570.98 C730.92,575.46 741.44,577.72 745.17,574.35 C747.90,571.88 747.56,566.42 744.50,563.59 C742.05,561.32 742.00,560.96 742.00,546.60 C742.00,534.00 741.72,531.38 740.04,528.09 C735.73,519.62 728.54,516.46 715.44,517.26 C700.69,518.16 691.73,525.73 698.00,532.00 C700.59,534.59 701.61,534.53 708.48,531.38 C718.38,526.85 727.00,529.51 727.00,537.10 L 727.00 539.97 L 719.75 539.37 C704.37,538.09 694.19,544.62 693.22,556.40 C692.08,570.16 704.42,579.79 718.28,575.94 ZM 857.00 576.01 C876.63,570.55 880.92,532.96 863.32,520.64 C855.98,515.51 844.65,515.74 838.48,521.15 L 835.00 524.21 L 835.00 511.04 C835.00,503.79 834.53,497.00 833.96,495.93 C833.14,494.39 831.84,494.00 827.50,494.00 C823.16,494.00 821.86,494.39 821.04,495.93 C820.37,497.17 820.00,511.35 820.00,535.11 C820.00,576.59 819.90,576.00 826.65,576.00 C830.19,576.00 834.00,573.15 834.00,570.50 C834.00,569.67 834.45,569.00 835.00,569.00 C835.55,569.00 836.00,569.44 836.00,569.98 C836.00,572.19 846.07,576.87 851.00,576.95 C852.38,576.97 855.08,576.55 857.00,576.01 ZM 545.77 574.23 C547.67,572.33 566.00,525.19 566.00,522.20 C566.00,521.21 565.46,519.86 564.80,519.20 C563.45,517.85 555.19,517.59 553.23,518.84 C551.84,519.72 548.40,528.36 542.50,545.76 C540.40,551.95 538.52,556.86 538.33,556.66 C538.13,556.47 535.09,548.15 531.57,538.18 C528.04,528.22 524.87,519.60 524.52,519.03 C524.17,518.46 521.46,518.00 518.50,518.00 C514.14,518.00 512.83,518.41 511.62,520.13 C510.26,522.07 510.42,523.06 513.46,531.38 C523.06,557.63 529.26,572.67 531.14,574.25 C534.03,576.68 543.33,576.67 545.77,574.23 ZM 645.17 574.35 C646.78,572.89 647.00,570.96 647.01,558.10 C647.01,542.03 647.95,536.96 651.59,533.32 C653.64,531.26 654.81,530.94 659.26,531.20 C664.13,531.48 664.62,531.75 666.25,535.00 C667.71,537.92 668.00,541.33 668.00,555.69 C668.00,572.33 668.07,572.94 670.22,574.44 C673.34,576.63 678.59,576.41 681.00,574.00 C682.86,572.14 683.00,570.67 683.00,553.18 C683.00,532.13 681.92,526.21 677.27,521.77 C673.65,518.32 669.98,517.00 664.00,517.00 C657.88,517.00 654.32,518.33 650.45,522.06 L 647.40 525.00 L 646.14 521.50 C644.93,518.15 644.66,518.00 640.01,518.00 C631.85,518.00 632.00,517.46 632.00,546.57 C632.00,570.67 632.10,572.10 634.00,574.00 C636.48,576.48 642.60,576.67 645.17,574.35 ZM 769.60 573.89 C771.26,572.05 771.47,570.38 771.28,560.64 C770.93,542.67 771.70,537.15 775.02,533.82 C777.36,531.49 778.70,531.00 782.77,531.00 C791.11,531.00 791.44,531.82 791.86,554.12 C792.20,572.04 792.33,573.12 794.33,574.52 C797.01,576.40 802.04,576.42 804.56,574.58 C806.38,573.24 806.50,571.79 806.49,551.83 C806.49,530.95 806.43,530.41 803.99,526.09 C800.35,519.64 797.15,517.67 789.54,517.18 C784.37,516.85 782.20,517.21 778.53,518.98 C776.02,520.20 773.51,522.05 772.95,523.10 C771.55,525.70 770.00,525.49 770.00,522.70 C770.00,519.35 768.13,518.00 763.55,518.02 C756.25,518.04 756.53,516.97 756.20,545.92 C755.92,570.98 755.98,571.98 757.95,573.95 C760.77,576.77 767.03,576.73 769.60,573.89 ZM 898.17 574.35 C899.85,572.82 900.00,570.60 900.00,546.37 L 900.00 520.05 L 897.49 518.40 C895.79,517.29 893.95,516.96 891.83,517.38 C885.87,518.58 886.00,517.91 886.00,546.57 C886.00,572.63 886.02,572.90 888.22,574.44 C891.12,576.48 895.87,576.43 898.17,574.35 ZM 897.99 510.01 C902.46,507.61 902.44,497.38 897.96,494.98 C893.06,492.35 885.56,495.18 884.49,500.05 C883.65,503.88 885.43,508.41 888.32,509.81 C891.14,511.17 895.63,511.27 897.99,510.01 ZM 836.50 478.19 C862.56,471.00 884.08,453.53 894.11,431.42 C904.89,407.64 901.21,376.63 885.42,358.18 C883.54,355.98 882.00,353.87 882.00,353.49 C882.00,353.10 885.08,349.49 888.84,345.47 C910.78,321.97 912.70,290.72 893.29,272.98 C885.26,265.65 878.96,263.52 865.50,263.59 C858.46,263.64 852.25,264.27 848.24,265.36 C829.24,270.52 806.61,285.51 790.28,303.74 C781.16,313.93 771.67,326.00 768.42,331.55 L 765.81 336.00 L 702.15 336.01 C630.91,336.03 632.00,335.94 617.19,343.10 C606.80,348.12 596.05,358.04 588.02,370.00 C581.81,379.26 557.05,418.56 552.53,426.32 C550.99,428.97 549.39,430.77 548.96,430.32 C548.27,429.58 542.77,412.85 525.04,357.50 C521.64,346.88 518.22,337.95 517.29,337.25 C513.15,334.15 505.99,337.32 506.01,342.25 C506.01,344.87 538.14,444.45 540.37,448.75 C541.19,450.34 542.57,452.23 543.44,452.95 C545.70,454.83 549.90,454.55 552.04,452.38 C553.06,451.34 563.15,435.70 574.48,417.60 C585.80,399.51 597.19,381.55 599.78,377.69 C606.07,368.32 614.45,360.10 621.62,356.29 C633.39,350.04 633.85,350.00 697.89,350.00 C729.85,350.00 756.00,350.23 756.00,350.51 C756.00,350.79 753.32,356.07 750.05,362.26 C742.79,375.96 734.24,397.03 730.17,411.24 C718.91,450.51 726.52,473.46 752.98,480.00 C754.92,480.47 772.70,480.76 792.50,480.63 C826.12,480.41 829.03,480.24 836.50,478.19 ZM 586.45 561.55 C583.51,558.60 583.31,555.07 585.91,551.86 C587.59,549.78 588.67,549.50 594.86,549.50 C603.50,549.50 604.53,550.31 603.02,555.92 C601.00,563.43 591.55,566.64 586.45,561.55 ZM 710.63 561.93 C707.51,559.47 707.14,555.28 709.76,552.05 C711.77,549.57 717.93,548.39 723.44,549.42 C726.72,550.04 727.00,550.37 727.00,553.61 C727.00,558.18 725.63,560.62 722.02,562.49 C717.97,564.58 713.75,564.38 710.63,561.93 ZM 841.19 560.97 C837.04,558.45 835.00,553.67 835.00,546.50 C835.00,536.75 838.63,531.51 846.14,530.42 C850.84,529.74 854.13,531.77 856.75,536.97 C860.68,544.75 859.32,555.87 853.89,560.44 C850.18,563.56 845.74,563.75 841.19,560.97 ZM 754.99 466.07 C743.56,462.59 739.00,455.66 739.00,441.78 C739.00,423.06 752.15,385.84 768.89,357.18 L 773.14 349.91 L 811.32 350.21 L 849.50 350.50 L 857.23 354.19 C870.13,360.35 878.75,370.02 883.52,383.66 C895.65,418.38 869.79,457.01 828.79,465.42 C822.65,466.68 814.61,466.98 789.29,466.91 C771.81,466.87 756.37,466.48 754.99,466.07 ZM 865.63 342.36 C864.05,341.51 860.22,339.86 857.13,338.71 C851.90,336.75 849.08,336.58 817.75,336.23 C792.69,335.95 784.01,335.55 784.02,334.68 C784.06,332.72 797.90,316.03 806.68,307.36 C822.39,291.85 836.80,282.98 852.96,278.89 C871.04,274.32 885.09,279.37 890.52,292.38 C892.71,297.64 892.74,309.07 890.57,316.29 C888.46,323.32 880.41,335.64 874.77,340.46 C870.13,344.44 869.65,344.54 865.63,342.36 Z" fill="rgb(254,254,254)"/>
</g>
</svg>